<?xml version="1.0" standalone="no"?>
<!DOCTYPE svg PUBLIC "-//W3C//DTD SVG 20010904//EN"
 "http://www.w3.org/TR/2001/REC-SVG-20010904/DTD/svg10.dtd">
<svg version="1.0" xmlns="http://www.w3.org/2000/svg"
 width="1003.000000pt" height="1003.000000pt" viewBox="0 0 1003.000000 1003.000000"
 preserveAspectRatio="xMidYMid meet">
<metadata>
Created by potrace 1.14, written by Peter Selinger 2001-2017
</metadata>
<g transform="translate(0.000000,1003.000000) scale(0.100000,-0.100000)"
fill="#000000" stroke="none">
<path d="M10 5025 l0 -5005 1948 0 c2976 -1 3175 -1 3191 -14 8 -6 12 -6 9 -1
-8 13 291 13 311 0 9 -5 12 -4 8 2 -4 6 16 10 51 10 31 0 1055 1 2275 2 l2217
1 0 5005 0 5005 -5005 0 -5005 0 0 -5005z"/>
</g>
</svg>
