<?xml version="1.0" encoding="utf-8"?>
<!-- Generator: Adobe Illustrator 23.0.3, SVG Export Plug-In . SVG Version: 6.00 Build 0)  -->
<svg version="1.1" id="Layer" xmlns="http://www.w3.org/2000/svg" xmlns:xlink="http://www.w3.org/1999/xlink" x="0px" y="0px"
	 viewBox="0 0 512 512" style="enable-background:new 0 0 512 512;" xml:space="preserve">
<style type="text/css">
	.st0{fill:#2C2B30;}
</style>
<path class="st0" d="M343.3,65.8c-7.8-4-17.5-0.9-21.5,7s-0.9,17.5,7,21.5c53.8,27.5,87.2,82.1,87.2,142.5c0,88.2-71.8,160-160,160
	c-88.2,0-160-71.8-160-160c0-60.4,33.4-115,87.3-142.5c7.9-4,11-13.7,7-21.5c-2.8-5.5-8.4-8.7-14.3-8.7c-2.5,0-4.9,0.6-7.3,1.8
	C104.1,98.8,64,164.3,64,236.8c0,105.9,86.1,192,192,192s192-86.1,192-192C448,164.3,407.9,98.8,343.3,65.8L343.3,65.8z"/>
<path class="st0" d="M198.6,277.2c-4.1,0-8.2,1.6-11.3,4.7c-6.2,6.2-6.2,16.4,0,22.6l64,64c6.2,6.2,16.4,6.2,22.6,0l64-64
	c6.2-6.2,6.2-16.4,0-22.6c-6.2-6.2-16.4-6.2-22.6,0l-36.7,36.7V133.2c0-8.8-7.2-16-16-16c-8.8,0-16,7.2-16,16v185.4l-36.7-36.7
	C206.8,278.8,202.7,277.2,198.6,277.2z"/>
</svg>
