<?xml version="1.0" encoding="utf-8"?>
<!-- Generator: Adobe Illustrator 23.0.3, SVG Export Plug-In . SVG Version: 6.00 Build 0)  -->
<svg version="1.1" id="Layer_1" xmlns="http://www.w3.org/2000/svg" xmlns:xlink="http://www.w3.org/1999/xlink" x="0px" y="0px"
	 viewBox="0 0 1000 835.66" style="enable-background:new 0 0 1000 835.66;" xml:space="preserve">
<style type="text/css">
	.st0{fill:#2AA1FF;}
	.st1{fill:#E5E5E5;}
	.st2{opacity:0.43;fill:url(#SVGID_1_);enable-background:new    ;}
	.st3{fill:none;stroke:#212728;stroke-width:6;stroke-linecap:round;stroke-linejoin:round;}
	.st4{fill:none;stroke:#283035;stroke-width:8;stroke-linecap:round;stroke-linejoin:round;}
	.st5{fill:#D2DCE6;}
	.st6{fill:none;stroke:#283035;stroke-width:6;stroke-linecap:round;stroke-linejoin:round;}
	.st7{fill:#FF5C5C;}
	.st8{opacity:0.3;fill:none;stroke:#FFFFFF;stroke-width:6;stroke-linecap:round;stroke-linejoin:round;enable-background:new    ;}
	.st9{opacity:0.3;}
	.st10{fill:#FFFFFF;}
	.st11{fill:#CFD1D0;}
	.st12{fill:#686B6D;}
	.st13{fill:none;stroke:#283035;stroke-width:4;stroke-linecap:round;stroke-linejoin:round;}
	.st14{fill:#EAD57D;}
	.st15{fill:#E5C66E;}
	.st16{fill:#5CBF84;}
	.st17{fill:#F2C4CE;}
	.st18{opacity:0.14;enable-background:new    ;}
	.st19{fill:#353F49;}
	.st20{fill:#EAEEEF;}
	.st21{opacity:0.35;fill:#283035;enable-background:new    ;}
	.st22{fill:none;stroke:#46BB86;stroke-width:3;stroke-miterlimit:10;}
	.st23{fill:none;stroke:#389ABE;stroke-width:3;stroke-miterlimit:10;}
	.st24{fill:none;stroke:#E5C689;stroke-width:3;stroke-miterlimit:10;}
	.st25{fill:none;stroke:#F2F3F4;stroke-width:3;stroke-miterlimit:10;}
	.st26{fill:none;stroke:#FFA49F;stroke-width:3;stroke-miterlimit:10;}
	.st27{fill:none;stroke:#212728;stroke-linecap:round;stroke-miterlimit:10;}
	.st28{fill:none;stroke:#283035;stroke-width:3;stroke-linecap:round;stroke-linejoin:round;}
	.st29{fill:#F7B66F;}
	.st30{fill:#EDA762;}
	.st31{fill:#8EAFBF;}
	.st32{fill:none;stroke:#8BAFC1;stroke-width:4;stroke-linecap:round;stroke-linejoin:round;}
	.st33{fill:#EFAA65;}
	.st34{fill:none;stroke:#283035;stroke-width:6;stroke-linejoin:round;}
	.st35{opacity:0;fill:#FFFFFF;stroke:#000000;stroke-miterlimit:10;}
</style>
<title>111-coding</title>
<g>
	<rect class="st0" width="1000" height="1000"/>
	<path class="st1" d="M420.92,937.59c1.25,0.09,2.33-0.86,2.42-2.11c0.01-0.08,0.01-0.15,0-0.23c0.08-1.14-0.78-2.13-1.93-2.21
		c-0.12-0.01-0.24-0.01-0.36,0.01c-1.21-0.12-2.29,0.76-2.41,1.97c-0.01,0.06-0.01,0.11-0.01,0.17v0.06
		c-0.03,1.26,0.97,2.3,2.22,2.33C420.88,937.59,420.9,937.59,420.92,937.59z"/>
	<path class="st1" d="M476.41,941.87c-0.13-0.78,1.18-0.91,1.05-1.56c-0.13-0.91-0.92-0.91-1.44-0.84c-2.95,0.33-3.53,1.3-3.8,3.18
		c0.01,1.11,0.49,2.17,1.31,2.92c-0.02,1.48-0.2,2.96-0.52,4.41c-0.25,0.11-0.44,0.32-0.52,0.58c-0.47,2.13-1.06,4.23-1.77,6.29
		c-0.31,0.36-0.53,0.78-0.65,1.23v0.32c-0.65,1.23-1.37,2.14-2.22,2.14c-0.39,0-0.52-1.04-0.52-2.4c0-2.4,1.24-9.07,1.24-10.5
		c0-1.88,0.33-3.5,0.33-5.06c0-0.65-0.46-0.84-1.05-0.84c-0.46,0-0.72,0.32-1.18,0.32c-1.9,0-2.16,1.04-2.16,2.59
		c0,0.65,0,9.85-0.13,11.02c-0.13,1.95-1.24,4.34-3.34,4.34c-1.9,0-2.81-2.59-2.81-5.38c0.01-2.29,0.28-4.57,0.79-6.8
		c0.2-0.65,1.05-3.63,1.05-4.02c0-0.71-0.07-0.91-0.85-0.91c-3.01,0.06-3.6,0.32-4.06,1.94c-0.63,2.63-0.96,5.33-0.98,8.04v0.84
		c-0.72,2.2-1.5,4.67-3.53,4.8c-1.38,0.07-1.83-3.37-1.83-6.93c0-7.06,2.03-13.93,2.29-21c0.07-0.65-0.39-1.1-1.18-1.1
		c-0.61,0.08-1.22,0.1-1.83,0.07c-0.79,0-1.11,0.32-1.18,1.1c-0.65,7.07-2.09,15.68-2.09,22.55v0.13c-0.72,2.27-1.5,5.18-3.66,5.32
		c-1.37,0.07-1.83-3.37-1.83-6.93c0-7.07,2.03-13.93,2.29-21c0.07-0.65-0.39-1.1-1.18-1.1c-1.05,0-1.37-0.07-1.9-0.07
		c-0.79,0-1.11,0.32-1.18,1.1c-0.65,7.07-2.09,15.68-2.09,22.55v0.13c-0.72,2.27-1.5,5.18-3.66,5.32c-1.38,0.07-1.83-3.37-1.83-6.93
		c0-7.07,2.03-13.93,2.29-21c0.07-0.65-0.39-1.1-1.18-1.1c-1.11,0-1.44-0.07-1.96-0.07c-0.79,0-1.11,0.32-1.18,1.1
		c-0.65,7.07-2.09,15.68-2.09,22.55v1.04c-0.65,2.27-1.64,4.73-2.88,4.73c-0.59-0.07-1.05-0.91-1.05-2.85
		c0-3.56,0.33-8.49,0.65-12.25c0.07-0.45-0.13-0.91-0.65-0.91c-0.46-0.06-1.9-0.19-2.42-0.19c-0.79,0-1.11,0.45-1.11,1.3v1.3
		c0.07,4.34-0.39,7.78-0.39,11.86c0,2.92,1.57,4.93,3.53,4.93c2.09,0,3.73-1.75,4.84-3.82c0.59,2.2,1.7,4.15,3.93,4.15
		c2.09,0,4.12-2.27,5.5-4.8c0.52,2.46,1.64,4.8,4.06,4.8c2.09,0,4.12-2.27,5.5-4.8c0.52,2.46,1.64,4.8,4.06,4.8
		c2.03,0,4.06-2.2,5.43-4.6c0.72,2.92,2.36,5.12,5.43,5.12c2.55,0,3.27-1.04,4.91-3.37c0.52,1.3,0.72,3.76,2.22,3.76
		c2.09,0,3.86-2.4,5.04-5.12c1.48,2.18,3.91,3.53,6.54,3.63c3.53,0,6.54-2.53,6.28-6.35C484.72,950.36,477,944.79,476.41,941.87z
		 M477.33,959.3c-1.05,0-2.68-0.65-2.75-2.01c-0.07-0.78,1.77-1.17,2.42-1.56c0.52-0.32,0.65-0.58,0.65-0.78
		c-0.07-0.45-0.72-0.78-1.44-0.78c-0.87,0.04-1.71,0.33-2.42,0.84c0.2-0.91,1.57-5.57,1.9-7.84c2.81,2.37,4.66,5.69,5.17,9.33
		C481.06,959.04,478.18,959.3,477.33,959.3L477.33,959.3z"/>
	<path class="st1" d="M535.96,937.59c1.25,0.09,2.33-0.86,2.42-2.11c0.01-0.08,0.01-0.15,0-0.23c0.08-1.14-0.78-2.13-1.93-2.21
		c-0.12-0.01-0.24-0.01-0.36,0.01c-1.21-0.12-2.29,0.76-2.41,1.97c-0.01,0.06-0.01,0.11-0.01,0.17v0.06
		c-0.03,1.26,0.97,2.3,2.22,2.33C535.91,937.59,535.93,937.59,535.96,937.59z"/>
	<path class="st1" d="M573.78,963.13c-1.18-0.78-2.03-2.01-1.83-7.07c0.13-3.24,0.78-7.71,0.78-10.89c0-1.43-0.65-3.05-2.49-3.05
		c-2.29,0-5.63,4.67-6.67,6.74c0.13-1.23,0.52-4.86,0.59-6.09s0.07-1.3-2.09-1.3c-1.44,0-1.57,0.26-1.57,0.78
		c0,2.98-0.26,6.42-0.52,9.85c-0.79,1.68-1.83,3.37-3.34,3.37c-0.45-0.01-0.9-0.12-1.31-0.32c0.7-1.34,1.08-2.83,1.11-4.34
		c0.07-1.72-1.27-3.17-2.99-3.24c-0.05,0-0.1,0-0.15,0c-2.05-0.09-3.78,1.49-3.87,3.54c-0.01,0.16,0,0.32,0.01,0.48
		c0,1.82,1.9,3.89,3.34,4.86c-0.86,1.7-2.61,2.75-4.52,2.72c-2.81,0-3.8-5.12-3.8-7c0-3.63,1.31-7.71,5.63-7.71
		c2.95,0,2.95,1.94,4.19,1.94c0.13,0,0.52-0.19,0.52-0.39c0-2.14-3.4-3.89-5.17-3.89c-6.02,0-10.21,4.73-10.21,10.63
		c0,1.21,0.2,2.42,0.59,3.57c-0.59,1.49-1.31,2.66-2.22,2.66c-0.59,0-1.05-0.84-1.05-2.79c0-3.57,0.33-8.49,0.65-12.25
		c0.07-0.45-0.13-0.91-0.65-0.91c-0.46-0.07-1.9-0.19-2.42-0.19c-0.78,0-1.11,0.45-1.11,1.3v1.3c0,2.27-0.13,4.21-0.2,6.16
		c-0.08,0.1-0.15,0.21-0.2,0.32c-0.72,1.95-1.64,7.32-3.8,7.32c-0.66,0-2.03-0.91-2.03-3.43c0-4.08,1.37-12.25,1.57-13.67
		c2.09-0.45,3.93-0.32,6.41-1.04c1.11-0.32,0.46-1.62-0.78-1.49c-1.81,0.14-3.62,0.14-5.43,0c0.07-2.14,0.59-3.5,0.59-5.7v-0.2
		c0-0.58-0.26-1.04-0.85-1.04c-1.18,0-3.01,0.39-3.01,2.01c0,1.69-0.33,3.18-0.26,4.86c-1.18,0.07-2.22-0.26-3.4-0.26
		c-0.85,0-1.05,1.56-1.05,2.14c0,0.65,0.07,1.1,0.46,1.1c1.25-0.03,2.49-0.14,3.73-0.32c-0.33,4.28-0.85,6.67-1.18,9.66
		c0,0.19-0.07,0.45-0.07,0.71c-0.72,2.27-2.09,5.77-3.21,5.77c-0.58-0.15-1.02-0.63-1.1-1.23c-0.03-3.47,0.37-6.93,1.18-10.3
		c0.32-0.81,0.54-1.66,0.65-2.53c0-0.84-1.37-1.3-2.09-1.3c-1.18,0-1.11,0.65-1.57,1.68c-0.85-0.65-1.05-1.81-3.34-1.81
		c-4.19,0-6.74,6.74-6.74,10.95c0,0.71-0.07,1.1-0.07,1.49c0,2.4-1.37,5.38-2.81,5.38c-1.24,0-1.64-3.37-1.64-4.8
		c0.18-2.87,0.75-5.71,1.7-8.43c0.45-0.69,0.77-1.46,0.92-2.27c0-0.91-1.05-2.4-2.09-2.4c-1.18,0-1.9,0.65-3.14,0.65
		c-1.96,0-3.27-1.23-4.38-1.23c-0.56-0.05-1.06,0.37-1.11,0.93c0,0.06-0.01,0.11,0,0.17c0,1.75,1.9,1.43,1.44,3.63
		c-0.46,2.07-1.83,7.71-2.62,9.85c-0.06,0.1-0.08,0.21-0.07,0.32c0.01,0.22,0.05,0.44,0.13,0.65c-0.46,0.78-0.98,1.3-1.64,1.3
		s-2.03-0.91-2.03-3.43c0-4.08,1.37-12.25,1.57-13.68c2.09-0.45,3.92-0.32,6.41-1.04c1.11-0.32,0.46-1.62-0.79-1.49
		c-1.81,0.14-3.62,0.14-5.43,0c0.07-2.14,0.59-3.5,0.59-5.7c0-0.58-0.26-1.04-0.85-1.04c-1.18,0-3.01,0.39-3.01,2.01
		c0,1.69-0.33,3.18-0.26,4.86c-1.18,0.07-2.22-0.26-3.4-0.26c-0.85,0-1.05,1.56-1.05,2.14c0,0.65,0.07,1.1,0.46,1.1
		c1.25-0.03,2.49-0.14,3.73-0.32c-0.33,4.28-0.85,6.67-1.18,9.66c-0.25,1.85-0.4,3.71-0.46,5.57c0,2.79,2.42,5.06,4.45,5.06
		c3.6,0,6.54-7.26,6.54-10.24v-0.39c0.39-1.75,0.65-3.5,0.98-4.99c0.07-0.19,0.26-0.78,0.79-0.78c1.18,0,1.31,0.84,1.31,1.75
		c0,2.4-0.85,6.68-0.85,9.2c0,2.46,0.65,5.51,3.53,5.51c2.37-0.09,4.49-1.49,5.5-3.63c0.79,1.88,2.09,3.37,3.93,3.37
		c1.77,0,3.27-1.3,4.32-2.53c0.26,0.65,0.65,2.4,2.55,2.4c1.77,0,3.14-1.49,4.19-3.37c0.48,2.03,2.18,3.53,4.25,3.76
		c2.03,0,3.93-2.4,5.1-4.99c0.13,2.72,1.64,4.54,3.53,4.54c1.96,0,3.6-1.56,4.71-3.5c1.18,2.08,3.37,3.36,5.76,3.37
		c3.6,0,5.76-2.33,7.66-5.12c0.6,0.17,1.21,0.27,1.83,0.32c1.39-0.14,2.65-0.87,3.47-2.01c-0.13,2.07-0.26,4.08-0.26,5.9
		c0,0.65,0.13,0.91,0.59,1.04c0.6,0.12,1.22,0.14,1.83,0.07c0.65,0,0.78,0.07,0.92-0.78c0.07-0.58,0.46-7.52,0.46-8.04
		c0-1.43,3.47-7.45,5.17-7.45c0.33,0,0.59,0.58,0.59,0.97c0,3.11-0.98,8.17-0.98,11.41c0,3.43,1.7,4.6,2.42,4.99
		c0.87,0.45,1.83,0.69,2.81,0.71C573.78,963.78,574.23,963.39,573.78,963.13z M516.33,956.52c-0.07,0.91-1.7,3.24-2.95,3.24
		c-1.37,0-1.96-3.89-1.9-6.48c0.07-3.05,1.57-8.49,3.01-8.49c1.9,0,2.16,4.54,2.16,5.96C516.65,952.37,516.46,954.9,516.33,956.52
		L516.33,956.52z M553.89,954.38c-0.88-0.8-1.38-1.93-1.37-3.11c0-0.58,0.2-1.88,1.05-1.88c0.78,0,1.05,1.43,1.05,2.01
		C554.5,952.42,554.26,953.42,553.89,954.38z"/>
	<path class="st1" d="M588.83,955.48c-0.33-5.12-8.11-10.69-8.64-13.61c-0.13-0.78,1.18-0.91,1.05-1.55
		c-0.13-0.91-0.92-0.91-1.44-0.84c-2.94,0.32-3.53,1.3-3.79,3.18c0.01,1.11,0.49,2.17,1.31,2.92c0.07,2.27-1.18,8.55-2.62,11.02
		c-0.37,0.44-0.65,0.95-0.85,1.49c-0.13,0.78,0.46,1.17,0.98,0.65c0.46-0.39,0.39-0.65,0.85-0.97c1.05,2.4,4.32,4.08,6.81,4.08
		C586.08,961.83,589.02,959.3,588.83,955.48z M581.11,959.3c-1.05,0-2.68-0.65-2.75-2.01c-0.07-0.78,1.77-1.17,2.42-1.56
		c0.52-0.32,0.66-0.58,0.66-0.78c-0.07-0.45-0.72-0.78-1.44-0.78c-0.87,0.04-1.71,0.33-2.42,0.84c0.2-0.91,1.57-5.57,1.9-7.84
		c2.82,2.37,4.66,5.69,5.17,9.33C584.84,959.04,581.96,959.3,581.11,959.3L581.11,959.3z"/>
	<path class="st1" d="M63.2,959.2c0,2.5-1.2,3.7-2.6,3.7c-0.95,0.12-1.85-0.48-2.1-1.4c-0.44,0.54-1.11,0.83-1.8,0.8
		c-1.55-0.12-2.71-1.47-2.59-3.01c0.1-1.38,1.2-2.48,2.59-2.59c0.61,0,1.19,0.25,1.6,0.7v-0.5h1.6v3.9c0,0.8,0.3,1.4,1,1.4
		c0.9,0,1.7-0.9,1.7-3c0.04-2.89-2.27-5.26-5.16-5.3c-0.08,0-0.16,0-0.24,0c-3.07-0.03-5.57,2.44-5.6,5.5c0,0.07,0,0.13,0,0.2
		c-0.05,3.11,2.43,5.66,5.54,5.71c0.12,0,0.24,0,0.36-0.01c0.98-0.01,1.95-0.15,2.9-0.4v0.6c-0.93,0.31-1.92,0.44-2.9,0.4
		c-3.42,0.08-6.27-2.63-6.35-6.05c-0.08-3.42,2.63-6.27,6.05-6.35c3.08-0.23,5.76,2.09,5.99,5.17
		C63.2,958.85,63.2,959.02,63.2,959.2z M58.3,959.5c0.03-0.74-0.55-1.37-1.29-1.4c0,0-0.01,0-0.01,0c-0.68-0.04-1.27,0.48-1.31,1.16
		c0,0.08,0,0.16,0.01,0.24c-0.02,0.7,0.52,1.28,1.22,1.3c0.03,0,0.05,0,0.08,0C57.8,960.9,58.3,960.3,58.3,959.5z"/>
	<path class="st1" d="M69.4,955.1v2c-1.22-0.2-2.38,0.63-2.58,1.85c-0.03,0.18-0.04,0.37-0.02,0.55v4.3h-1.9v-8.6h1.9v1.4
		C67.27,955.61,68.31,955.01,69.4,955.1z"/>
	<path class="st1" d="M74.6,962.3c0.87,0.02,1.69-0.39,2.2-1.1l1.5,0.9c-0.85,1.25-2.29,1.97-3.8,1.9
		c-2.43,0.16-4.53-1.68-4.69-4.12c-0.01-0.13-0.01-0.25-0.01-0.38c-0.08-2.41,1.81-4.42,4.22-4.5c0.09,0,0.19,0,0.28,0
		c2.38,0,4.31,1.94,4.3,4.32c0,0.06,0,0.12,0,0.18c0.02,0.27-0.02,0.54-0.1,0.8h-6.8C72.08,961.56,73.29,962.39,74.6,962.3z
		 M76.9,958.8c-0.14-1.25-1.24-2.17-2.5-2.1c-1.28-0.06-2.39,0.84-2.6,2.1H76.9z"/>
	<path class="st1" d="M88.9,955.2v8.6H87v-1.2c-0.7,0.95-1.82,1.51-3,1.5c-2.42-0.08-4.33-2.08-4.3-4.5c-0.1-2.38,1.75-4.4,4.13-4.5
		c0.06,0,0.11,0,0.17,0c1.17-0.05,2.29,0.48,3,1.4v-1.2h1.9V955.2z M87.1,959.5c0-1.49-1.21-2.7-2.7-2.7c-1.49,0-2.7,1.21-2.7,2.7
		c0,1.49,1.21,2.7,2.7,2.7c1.42,0.07,2.63-1.02,2.7-2.44C87.1,959.68,87.1,959.59,87.1,959.5z"/>
	<path class="st1" d="M91.1,951.3H93v12.5h-1.9V951.3z"/>
	<path class="st1" d="M102.9,955.2l-3.3,8.6h-2.1l-3.3-8.6h2l2.4,6.5l2.4-6.5H102.9z"/>
	<path class="st1" d="M104.2,955.2h1.9v8.9c0,2.4-1.2,3.5-3.5,3.3v-1.8c1.1,0.1,1.7-0.3,1.7-1.5v-8.9H104.2z M104,952.8
		c0-0.66,0.54-1.2,1.2-1.2c0.66,0,1.2,0.54,1.2,1.2s-0.54,1.2-1.2,1.2C104.54,954,104,953.46,104,952.8z"/>
	<path class="st1" d="M116,955.2l-3.3,8.8c-0.8,2.2-2.2,3.3-4.2,3.2v-1.7c1.1,0.14,2.11-0.61,2.3-1.7l0.1-0.2l-3.6-8.4h2l2.6,6.2
		l2.2-6.2L116,955.2z"/>
	<path class="st1" d="M58.9,938.7c0.09,2-1.46,3.7-3.46,3.8c-0.05,0-0.09,0-0.14,0h-3v-7.6h3c2.01,0.02,3.62,1.66,3.6,3.66
		C58.9,938.61,58.9,938.65,58.9,938.7z M57.9,938.7c0.1-1.5-1.04-2.8-2.54-2.9c-0.02,0-0.04,0-0.06,0h-2v5.7h2
		c1.42,0.02,2.59-1.12,2.61-2.54C57.91,938.87,57.91,938.79,57.9,938.7z"/>
	<path class="st1" d="M67,941.6v1h-4.6V935h4.5v1h-3.5v2.3h3.2v0.9h-3.2v2.4L67,941.6z"/>
	<path class="st1" d="M70,940.8l0.9-0.5c0.27,0.87,1.09,1.45,2,1.4c1.1,0,1.6-0.5,1.6-1.2c0-0.8-0.7-1-1.8-1.4
		c-1.2-0.4-2.4-0.8-2.4-2.2c0-1.22,0.99-2.21,2.21-2.21c0.06,0,0.13,0,0.19,0.01c1.14-0.05,2.19,0.63,2.6,1.7l-0.8,0.5
		c-0.24-0.73-0.93-1.22-1.7-1.2c-0.8,0-1.4,0.4-1.4,1.1s0.5,1,1.6,1.3c1.3,0.4,2.6,0.8,2.6,2.3c-0.06,1.29-1.16,2.28-2.45,2.21
		c-0.05,0-0.1-0.01-0.15-0.01C71.71,942.76,70.47,942.02,70,940.8z"/>
	<path class="st1" d="M80,934.9v7.6h-1v-7.6H80z"/>
	<path class="st1" d="M91.3,939.2c0.02,1.92-1.52,3.49-3.43,3.51c-0.09,0-0.18,0-0.27-0.01c-2.15,0.06-3.94-1.63-4-3.77
		c0-0.08,0-0.15,0-0.23c-0.01-2.19,1.75-3.99,3.95-4c1.35-0.01,2.61,0.67,3.35,1.8L90,937c-0.49-0.86-1.41-1.4-2.4-1.4
		c-1.66,0-3,1.34-3,3s1.34,3,3,3c1.28,0.13,2.45-0.74,2.7-2h-2.8v-0.9h3.8V939.2z"/>
	<path class="st1" d="M100.6,934.9v7.6h-0.8l-3.9-5.7v5.7h-1v-7.6h0.8l3.9,5.7v-5.7H100.6z"/>
	<path class="st1" d="M109.1,941.6v1h-4.6V935h4.5v1h-3.5v2.3h3.2v0.9h-3.2v2.4L109.1,941.6z"/>
	<path class="st1" d="M119.2,938.7c0.09,2-1.46,3.7-3.46,3.8c-0.05,0-0.09,0-0.14,0h-3v-7.6h3
		C117.64,934.95,119.25,936.65,119.2,938.7C119.2,938.7,119.2,938.7,119.2,938.7z M118.2,938.7c0.1-1.5-1.04-2.8-2.54-2.9
		c-0.02,0-0.04,0-0.06,0h-2v5.7h2c1.42,0.02,2.59-1.12,2.61-2.54C118.21,938.87,118.21,938.79,118.2,938.7z"/>
	<path class="st1" d="M133.2,940.4c-0.01,1.21-0.99,2.19-2.2,2.2h-3.3V935h3c1.13-0.03,2.07,0.87,2.1,2c0,0.03,0,0.07,0,0.1
		c0.01,0.63-0.29,1.23-0.8,1.6C132.75,938.91,133.25,939.62,133.2,940.4z M128.7,935.8v2.3h2c0.63-0.02,1.12-0.54,1.1-1.17
		c0-0.01,0-0.02,0-0.03c0-0.63-0.48-1.15-1.1-1.2h-2V935.8z M132.2,940.3c0.03-0.64-0.47-1.17-1.11-1.2c-0.03,0-0.06,0-0.09,0h-2.3
		v2.5h2.3c0.68-0.02,1.22-0.59,1.2-1.28C132.2,940.31,132.2,940.31,132.2,940.3L132.2,940.3z"/>
	<path class="st1" d="M139.4,939.4v3.1h-1v-3.1l-2.7-4.5h1.1l2.1,3.6l2.1-3.6h1.1L139.4,939.4z"/>
	<path class="st1" d="M210.96,934.97v7.7h-0.82l-3.96-5.75v5.75h-1.02v-7.7h0.83l3.96,5.74v-5.74H210.96z"/>
	<path class="st1" d="M219.4,941.71v0.97h-4.6v-7.7h4.54v0.97h-3.52v2.37h3.24v0.96h-3.24v2.44L219.4,941.71z"/>
	<path class="st1" d="M222.29,934.97h1.08l1.76,6.34l1.87-6.34h1.03l1.87,6.34l1.76-6.34h1.08l-2.21,7.7h-1.19l-1.83-6.15
		l-1.83,6.15h-1.19L222.29,934.97z"/>
	<path class="st1" d="M243.22,934.97v7.7h-1.01v-6.6l-1.64,0.48l-0.25-0.88l2.02-0.7L243.22,934.97z"/>
	<path class="st1" d="M249.34,934.97v7.7h-1.01v-6.6l-1.64,0.48l-0.25-0.88l2.02-0.7L249.34,934.97z"/>
	<path class="st1" d="M255.45,934.97v7.7h-1.01v-6.6l-1.64,0.48l-0.25-0.88l2.02-0.7L255.45,934.97z"/>
	<path class="st1" d="M205.07,957.41c-0.09-3.48,2.65-6.37,6.13-6.47c0.11,0,0.22,0,0.33,0c2.17-0.03,4.2,1.08,5.35,2.93l-2.11,1.23
		c-0.67-1.14-1.91-1.83-3.23-1.78c-2.25,0.04-4.05,1.89-4.01,4.14c0.03,2.2,1.81,3.98,4.01,4.01c1.32,0.05,2.56-0.62,3.23-1.76
		l2.11,1.22c-1.14,1.85-3.17,2.97-5.35,2.93c-3.49,0.09-6.38-2.67-6.47-6.16C205.07,957.61,205.07,957.51,205.07,957.41z"/>
	<path class="st1" d="M217.88,959.18c-0.01-2.6,2.09-4.7,4.69-4.71s4.7,2.09,4.71,4.69c0.01,2.6-2.09,4.7-4.69,4.71
		c-0.01,0-0.01,0-0.02,0c-2.56,0.03-4.66-2.03-4.69-4.59C217.87,959.25,217.87,959.22,217.88,959.18z M224.98,959.18
		c-0.02-1.33-1.12-2.39-2.45-2.36c-1.33,0.02-2.39,1.12-2.36,2.45c0.02,1.31,1.09,2.36,2.4,2.36c1.3,0.03,2.39-1,2.42-2.3
		C224.98,959.28,224.98,959.23,224.98,959.18L224.98,959.18z"/>
	<path class="st1" d="M237.9,951.19v12.43h-2.29v-1.05c-0.69,0.87-1.76,1.36-2.88,1.3c-2.59-0.18-4.55-2.42-4.37-5.01
		c0.16-2.34,2.03-4.21,4.37-4.37c1.11-0.06,2.18,0.43,2.88,1.3v-4.6L237.9,951.19z M235.61,959.18c-0.02-1.36-1.14-2.44-2.5-2.42
		c-1.36,0.02-2.44,1.14-2.42,2.5c0.02,1.35,1.12,2.42,2.47,2.42c1.32,0.04,2.41-1,2.45-2.31
		C235.62,959.31,235.62,959.25,235.61,959.18L235.61,959.18z"/>
	<path class="st1" d="M239.73,952.27c-0.01-0.78,0.62-1.42,1.4-1.43s1.42,0.62,1.43,1.4c0.01,0.78-0.62,1.42-1.4,1.43
		c-0.01,0-0.02,0-0.03,0C240.36,953.66,239.74,953.04,239.73,952.27z M240,954.74h2.29v8.88H240L240,954.74z"/>
	<path class="st1" d="M252.68,958.17v5.45h-2.29v-5.17c0.1-0.91-0.56-1.72-1.46-1.82c-0.1-0.01-0.2-0.01-0.29-0.01
		c-1.12,0-1.95,0.66-1.95,2.2v4.8h-2.29v-8.88h2.29v1c0.61-0.84,1.61-1.31,2.65-1.24C251.2,954.5,252.68,955.81,252.68,958.17z"/>
	<path class="st1" d="M263.67,954.74v8.46c0,2.91-2.29,4.23-4.64,4.23c-1.7,0.13-3.33-0.71-4.21-2.17l1.95-1.12
		c0.44,0.86,1.37,1.36,2.33,1.24c1.13,0.15,2.17-0.65,2.31-1.79c0.02-0.13,0.02-0.27,0.01-0.4v-0.96c-0.67,0.89-1.73,1.39-2.84,1.35
		c-2.51-0.07-4.49-2.17-4.41-4.68c0.07-2.41,2.01-4.34,4.41-4.41c1.11-0.04,2.17,0.46,2.84,1.35v-1.1L263.67,954.74z M261.43,959.04
		c0.03-1.37-1.06-2.51-2.43-2.54s-2.51,1.06-2.54,2.43c-0.03,1.37,1.06,2.51,2.43,2.54c0.02,0,0.04,0,0.06,0
		c1.31,0.06,2.42-0.94,2.49-2.25C261.43,959.16,261.43,959.1,261.43,959.04L261.43,959.04z"/>
	<path class="st1" d="M848.13,938.45c0.09,2.01-1.47,3.72-3.48,3.81c-0.05,0-0.09,0-0.14,0h-2.97v-7.63h2.97
		c2.01,0.02,3.64,1.66,3.62,3.68C848.14,938.36,848.14,938.4,848.13,938.45z M847.16,938.45c0.1-1.47-1.01-2.75-2.48-2.85
		c-0.06,0-0.11-0.01-0.17-0.01h-1.96v5.7h1.96c1.47-0.01,2.66-1.21,2.65-2.68C847.17,938.56,847.17,938.51,847.16,938.45z"/>
	<path class="st1" d="M851.25,938.45c0-2.18,1.77-3.95,3.96-3.94c2.18,0,3.95,1.77,3.94,3.96c0,2.18-1.77,3.95-3.96,3.94
		c-2.16,0.01-3.93-1.73-3.94-3.89C851.25,938.49,851.25,938.47,851.25,938.45z M858.14,938.45c-0.01-1.63-1.34-2.93-2.96-2.92
		c-1.63,0.01-2.93,1.34-2.92,2.96c0.01,1.62,1.33,2.92,2.94,2.92c1.61,0.02,2.93-1.27,2.94-2.88
		C858.14,938.51,858.14,938.48,858.14,938.45L858.14,938.45z"/>
	<path class="st1" d="M861.78,934.64h1.07l1.74,6.28l1.85-6.28h1.02l1.85,6.28l1.74-6.28h1.07l-2.19,7.63h-1.17l-1.81-6.09
		l-1.81,6.09h-1.18L861.78,934.64z"/>
	<path class="st1" d="M881.27,934.64v7.63h-0.82l-3.92-5.7v5.7h-1.01v-7.63h0.82l3.92,5.69v-5.69H881.27z"/>
	<path class="st1" d="M889.5,941.3v0.96h-4.3v-7.63h1.01v6.67H889.5z"/>
	<path class="st1" d="M891.88,938.45c0-2.18,1.77-3.95,3.96-3.94c2.18,0,3.95,1.77,3.94,3.96c0,2.18-1.77,3.95-3.96,3.94
		c-2.16,0.01-3.93-1.73-3.94-3.89C891.88,938.49,891.88,938.47,891.88,938.45z M898.76,938.45c-0.01-1.63-1.34-2.93-2.96-2.92
		c-1.63,0.01-2.93,1.34-2.92,2.96c0.01,1.62,1.33,2.92,2.94,2.92c1.61,0.02,2.93-1.27,2.94-2.88
		C898.76,938.51,898.76,938.48,898.76,938.45L898.76,938.45z"/>
	<path class="st1" d="M907.42,940.55h-3.43l-0.62,1.71h-1.08l2.84-7.63h1.14l2.84,7.63h-1.08L907.42,940.55z M907.07,939.6
		l-1.37-3.76l-1.36,3.76H907.07z"/>
	<path class="st1" d="M918.91,938.45c0.09,2.01-1.47,3.72-3.48,3.81c-0.05,0-0.09,0-0.14,0h-2.97v-7.63h2.97
		c2.01,0.01,3.64,1.66,3.62,3.67C918.91,938.36,918.91,938.4,918.91,938.45z M917.94,938.45c0.1-1.47-1.01-2.75-2.48-2.85
		c-0.06,0-0.11-0.01-0.17-0.01h-1.96v5.7h1.96c1.47-0.01,2.66-1.21,2.65-2.68C917.94,938.56,917.94,938.5,917.94,938.45
		L917.94,938.45z"/>
	<path class="st1" d="M928.46,935.6v2.47h3.24v0.96h-3.24v3.23h-1.01v-7.63h4.39v0.96H928.46z"/>
	<path class="st1" d="M938.17,939.34h-1.8v2.92h-1.01v-7.63h3.05c1.3-0.01,2.36,1.03,2.38,2.33c0.01,1.01-0.62,1.92-1.58,2.25
		l1.8,3.05h-1.12L938.17,939.34z M936.37,938.43h2.04c0.79-0.04,1.39-0.7,1.36-1.49c-0.03-0.73-0.62-1.32-1.36-1.36h-2.04V938.43z"
		/>
	<path class="st1" d="M943.87,938.45c0-2.18,1.77-3.95,3.96-3.94c2.18,0,3.95,1.77,3.94,3.96c0,2.18-1.77,3.95-3.96,3.94
		c0,0,0,0,0,0c-2.16,0.01-3.93-1.73-3.94-3.89C943.87,938.49,943.87,938.47,943.87,938.45z M950.76,938.45
		c-0.01-1.63-1.34-2.93-2.96-2.92c-1.63,0.01-2.93,1.34-2.92,2.96c0.01,1.62,1.33,2.92,2.94,2.92c1.61,0.02,2.93-1.27,2.94-2.88
		C950.76,938.51,950.76,938.48,950.76,938.45L950.76,938.45z"/>
	<path class="st1" d="M962.42,942.26h-1v-5.96l-2.5,4.15h-0.13l-2.49-4.14v5.95h-1.01v-7.63h1.15l2.43,4.03l2.42-4.03h1.15
		L962.42,942.26z"/>
	<path class="st1" d="M841.32,952.65c0-0.67,0.55-1.22,1.22-1.22s1.22,0.55,1.22,1.22c0,0.67-0.55,1.22-1.22,1.22
		C841.86,953.87,841.32,953.32,841.32,952.65z M841.58,955.2h1.92v8.85h-1.91L841.58,955.2z"/>
	<path class="st1" d="M845.71,951.13h1.91v12.92h-1.91V951.13z"/>
	<path class="st1" d="M849.83,951.13h1.91v12.92h-1.91V951.13z"/>
	<path class="st1" d="M853.96,951.13h1.91v12.92h-1.91V951.13z"/>
	<path class="st1" d="M865.96,955.2v8.85h-1.91v-1.13c-0.6,0.91-1.65,1.43-2.74,1.36c-1.82,0.06-3.35-1.37-3.42-3.19
		c-0.01-0.15,0-0.31,0.02-0.46v-5.43h1.91v5.24c-0.12,1.01,0.61,1.93,1.62,2.05c0.12,0.01,0.24,0.02,0.36,0.01
		c1.26,0,2.25-0.74,2.25-2.55v-4.74H865.96z"/>
	<path class="st1" d="M874.62,961.55c0,1.77-1.54,2.73-3.45,2.73c-1.52,0.12-2.95-0.7-3.61-2.07l1.65-0.96
		c0.3,0.82,1.1,1.34,1.97,1.27c0.85,0,1.5-0.28,1.5-0.99c0-1.58-4.76-0.69-4.76-3.86c0-1.66,1.43-2.71,3.24-2.71
		c1.35-0.06,2.62,0.66,3.28,1.84l-1.61,0.9c-0.29-0.65-0.95-1.05-1.66-1.01c-0.69,0-1.29,0.3-1.29,0.94
		C869.86,959.25,874.62,958.28,874.62,961.55z"/>
	<path class="st1" d="M878.7,957.04v4.25c0,1.13,0.74,1.11,2.2,1.04v1.72c-2.94,0.35-4.11-0.46-4.11-2.76v-4.25h-1.63v-1.84h1.63
		v-1.91l1.91-0.57v2.48h2.2v1.84L878.7,957.04z"/>
	<path class="st1" d="M887.35,955.04v2.07c-1.27-0.22-2.48,0.64-2.7,1.91c-0.03,0.19-0.04,0.38-0.03,0.57v4.46h-1.91v-8.85h1.91
		v1.49C885.1,955.62,886.19,954.96,887.35,955.04z"/>
	<path class="st1" d="M897.29,955.2v8.85h-1.91v-1.27c-0.72,0.99-1.88,1.55-3.1,1.5c-2.57-0.14-4.55-2.33-4.41-4.9
		c0.13-2.38,2.03-4.28,4.41-4.41c1.22-0.05,2.38,0.51,3.1,1.49v-1.25H897.29z M895.38,959.63c-0.02-1.55-1.29-2.79-2.83-2.77
		c-1.55,0.02-2.79,1.29-2.77,2.83c0.02,1.53,1.27,2.77,2.8,2.77c1.51,0.04,2.76-1.16,2.8-2.67
		C895.38,959.74,895.38,959.68,895.38,959.63L895.38,959.63z"/>
	<path class="st1" d="M902.26,957.04v4.25c0,1.13,0.74,1.11,2.2,1.04v1.72c-2.94,0.35-4.1-0.46-4.1-2.76v-4.25h-1.63v-1.84h1.63
		v-1.91l1.91-0.57v2.48h2.2v1.84L902.26,957.04z"/>
	<path class="st1" d="M905.93,952.65c0-0.67,0.55-1.22,1.22-1.22s1.22,0.55,1.22,1.22l0,0c0,0.67-0.55,1.22-1.22,1.22
		S905.93,953.32,905.93,952.65z M906.2,955.2h1.91v8.85h-1.91L906.2,955.2z"/>
	<path class="st1" d="M909.83,959.63c-0.01-2.58,2.07-4.68,4.65-4.69c2.58-0.01,4.68,2.07,4.69,4.65c0.01,2.58-2.07,4.68-4.66,4.69
		c-0.01,0-0.01,0-0.02,0c-2.55,0.03-4.64-2.02-4.67-4.57C909.83,959.68,909.83,959.65,909.83,959.63z M917.26,959.63
		c-0.02-1.53-1.27-2.74-2.8-2.72s-2.74,1.27-2.72,2.8c0.02,1.51,1.25,2.72,2.76,2.72c1.5,0.02,2.74-1.17,2.76-2.67
		C917.26,959.71,917.26,959.67,917.26,959.63z"/>
	<path class="st1" d="M928.97,958.62v5.43h-1.91v-5.24c0.12-1.01-0.61-1.93-1.62-2.05c-0.12-0.01-0.24-0.02-0.36-0.01
		c-1.26,0-2.25,0.74-2.25,2.55v4.74h-1.91v-8.85h1.91v1.13c0.6-0.91,1.65-1.43,2.74-1.36c1.82-0.06,3.35,1.36,3.42,3.18
		C928.99,958.31,928.98,958.46,928.97,958.62z"/>
	<path class="st1" d="M937.5,961.55c0,1.77-1.54,2.73-3.45,2.73c-1.52,0.12-2.95-0.7-3.61-2.07l1.65-0.96
		c0.3,0.82,1.1,1.34,1.97,1.27c0.85,0,1.5-0.28,1.5-0.99c0-1.58-4.76-0.69-4.76-3.86c0-1.66,1.43-2.71,3.24-2.71
		c1.35-0.06,2.62,0.65,3.28,1.84l-1.61,0.9c-0.29-0.65-0.95-1.05-1.66-1.01c-0.69,0-1.29,0.3-1.29,0.94
		C932.74,959.25,937.5,958.28,937.5,961.55z"/>
	<path class="st1" d="M938.83,962.93c0-0.73,0.59-1.33,1.33-1.33s1.33,0.59,1.33,1.33l0,0c0,0.73-0.59,1.33-1.33,1.33
		S938.83,963.67,938.83,962.93z"/>
	<path class="st1" d="M942.32,959.63c-0.05-2.52,1.95-4.61,4.48-4.66c0.07,0,0.13,0,0.2,0c1.64-0.04,3.16,0.84,3.95,2.28l-1.65,0.96
		c-0.44-0.87-1.34-1.41-2.32-1.36c-1.53,0-2.78,1.25-2.77,2.79c0,1.53,1.24,2.77,2.77,2.77c0.98,0.02,1.89-0.5,2.35-1.36l1.65,0.94
		c-0.8,1.45-2.33,2.33-3.98,2.3c-2.53,0.05-4.62-1.95-4.67-4.48C942.32,959.74,942.32,959.68,942.32,959.63z"/>
	<path class="st1" d="M951.72,959.63c-0.01-2.58,2.07-4.68,4.65-4.69c2.58-0.01,4.68,2.07,4.69,4.65c0.01,2.58-2.07,4.68-4.66,4.69
		c-0.01,0-0.01,0-0.02,0c-2.55,0.03-4.64-2.02-4.67-4.57C951.72,959.68,951.72,959.65,951.72,959.63z M959.16,959.63
		c-0.02-1.53-1.27-2.74-2.8-2.72s-2.74,1.27-2.72,2.8c0.02,1.51,1.25,2.72,2.76,2.72c1.5,0.02,2.74-1.17,2.76-2.67
		C959.16,959.71,959.16,959.67,959.16,959.63z"/>
	
		<linearGradient id="SVGID_1_" gradientUnits="userSpaceOnUse" x1="505.007" y1="805.275" x2="505.007" y2="280.795" gradientTransform="matrix(1 0 0 -1 0 1000)">
		<stop  offset="0" style="stop-color:#FFFFFF"/>
		<stop  offset="0.093" style="stop-color:#FFFFFF;stop-opacity:0.864"/>
		<stop  offset="0.284" style="stop-color:#FFFFFF;stop-opacity:0.605"/>
		<stop  offset="0.466" style="stop-color:#FFFFFF;stop-opacity:0.389"/>
		<stop  offset="0.633" style="stop-color:#FFFFFF;stop-opacity:0.221"/>
		<stop  offset="0.784" style="stop-color:#FFFFFF;stop-opacity:0.1"/>
		<stop  offset="0.911" style="stop-color:#FFFFFF;stop-opacity:0.026"/>
		<stop  offset="1" style="stop-color:#FFFFFF;stop-opacity:0"/>
	</linearGradient>
	<polygon class="st2" points="813.97,701.56 196.04,701.56 427.01,201.68 583,201.68 	"/>
	<path class="st3" d="M744.12,546.4"/>
	<path class="st3" d="M758.34,513.45"/>
	<polyline class="st4" points="182.56,561.77 190.39,524.45 231.56,515.11 	"/>
	<path class="st5" d="M310.7,435.85h337.78c9.45,0,17.11,7.66,17.11,17.11v222.89l0,0h-372l0,0V452.96
		C293.59,443.52,301.25,435.86,310.7,435.85z"/>
	<path class="st6" d="M310.7,435.85h337.78c9.45,0,17.11,7.66,17.11,17.11v222.89l0,0h-372l0,0V452.96
		C293.59,443.52,301.25,435.86,310.7,435.85z"/>
	<rect x="321.59" y="464.14" class="st7" width="316" height="184"/>
	<line class="st8" x1="505.01" y1="618.78" x2="557.01" y2="618.78"/>
	<g class="st9">
		<path class="st10" d="M631.78,561.59c2.06-0.13,3.94,1.17,4.55,3.14v-11.46c-1.1-0.32-2.24-0.49-3.38-0.49h-1.17
			c-2.52,0-3.77,1.26-3.77,3.77v1.35C628.01,560.33,629.26,561.59,631.78,561.59z"/>
		<path class="st10" d="M636.33,616.49c-0.62,1.96-2.49,3.25-4.55,3.12c-2.52,0-3.77,1.26-3.77,3.77v1.35
			c0,2.51,1.26,3.77,3.77,3.77h1.17c1.14-0.01,2.28-0.17,3.38-0.49V616.49z"/>
	</g>
	<rect x="321.59" y="464.14" class="st6" width="316" height="184"/>
	<path class="st1" d="M252.54,676h454.1c2.21,0,4,1.79,4,4v4.79c0,11.05-8.95,20-20,20h-422.1c-11.05,0-20-8.95-20-20V680
		C248.54,677.79,250.33,676,252.54,676z"/>
	<path class="st11" d="M690.64,695.79h-422.1c-9.91-0.01-18.32-7.28-19.76-17.09c-0.15,0.42-0.23,0.86-0.24,1.3v4.79
		c0,11.05,8.95,20,20,20h422.1c11.05,0,20-8.95,20-20V680c0-0.44-0.08-0.88-0.23-1.3C708.97,688.51,700.56,695.78,690.64,695.79z"/>
	<path class="st6" d="M252.54,676h454.1c2.21,0,4,1.79,4,4v4.79c0,11.05-8.95,20-20,20h-422.1c-11.05,0-20-8.95-20-20V680
		C248.54,677.79,250.33,676,252.54,676z"/>
	<path class="st12" d="M437.59,675.85h84l0,0l0,0c0,4.42-3.58,8-8,8h-68C441.17,683.85,437.59,680.27,437.59,675.85L437.59,675.85
		L437.59,675.85z"/>
	<path class="st13" d="M437.59,675.85h84l0,0l0,0c0,4.42-3.58,8-8,8h-68C441.17,683.85,437.59,680.27,437.59,675.85L437.59,675.85
		L437.59,675.85z"/>
	<circle class="st12" cx="478.8" cy="449.62" r="8"/>
	<circle class="st13" cx="478.8" cy="449.62" r="8"/>
	<path class="st14" d="M153.46,704.79h49.1c3.52,0,6.5-2.62,6.94-6.11l13.12-102.9H133.4l13.12,102.9
		C146.96,702.17,149.93,704.78,153.46,704.79z"/>
	<path class="st15" d="M147.05,595.77l10.41,95.03c0.44,4.05,3.86,7.11,7.93,7.11h44.21l-0.1,0.75c-0.45,3.5-3.42,6.12-6.94,6.11
		h-49.1c-3.52,0-6.5-2.62-6.94-6.11l-13.12-102.9H147.05z"/>
	<path class="st6" d="M153.46,704.79h49.1c3.52,0,6.5-2.62,6.94-6.11l13.12-102.9H133.4l13.12,102.9
		C146.96,702.17,149.93,704.78,153.46,704.79z"/>
	<polygon class="st16" points="219.25,675.16 225.59,625.4 130.42,625.4 136.76,675.16 	"/>
	<polygon class="st17" points="219.25,675.16 225.59,625.4 130.42,625.4 136.76,675.16 	"/>
	<path class="st17" d="M218.86,669.41l5.32-44.02h-79.81l4.9,40.52c0.24,1.99,1.93,3.49,3.94,3.49L218.86,669.41z"/>
	<polygon class="st6" points="219.25,675.16 225.59,625.4 130.42,625.4 136.76,675.16 	"/>
	<path class="st16" d="M228.35,595.77H127.67c-6.08,0-11-4.92-11-11l0,0c0-6.08,4.92-11,11-11h100.68c6.08,0,11,4.92,11,11l0,0
		C239.35,590.85,234.42,595.77,228.35,595.77z"/>
	<path class="st17" d="M228.35,595.77H127.67c-6.08,0-11-4.92-11-11l0,0c0-6.08,4.92-11,11-11h100.68c6.08,0,11,4.92,11,11l0,0
		C239.35,590.85,234.42,595.77,228.35,595.77z"/>
	<path class="st17" d="M230.72,591.02h-91.68c-4.76,0-8.63-3.86-8.63-8.63l0,0c0-4.76,3.86-8.63,8.63-8.63h91.68
		c4.76,0,8.63,3.86,8.63,8.63l0,0C239.35,587.16,235.48,591.02,230.72,591.02z"/>
	<path class="st6" d="M228.35,595.77H127.67c-6.08,0-11-4.92-11-11l0,0c0-6.08,4.92-11,11-11h100.68c6.08,0,11,4.92,11,11l0,0
		C239.35,590.85,234.42,595.77,228.35,595.77z"/>
	<polygon class="st17" points="138.01,573.77 218.01,573.77 216.42,561.77 139.59,561.77 	"/>
	<polygon class="st17" points="139.59,561.77 163.06,561.77 157.51,573.77 138.01,573.77 	"/>
	<polygon class="st6" points="138.01,573.77 218.01,573.77 216.42,561.77 139.59,561.77 	"/>
	<path class="st3" d="M252.93,700.96"/>
	<path class="st1" d="M721.13,704.89c0.09-16.01,13.15-28.91,29.16-28.82c15.88,0.09,28.73,12.94,28.82,28.82H721.13z"/>
	<path class="st11" d="M750.12,695.73c8.39,0.08,16.4-3.47,21.98-9.74c-10.42-12.14-28.71-13.53-40.85-3.11
		c-1.11,0.96-2.15,1.99-3.11,3.11C733.72,692.26,741.74,695.81,750.12,695.73z"/>
	<path class="st6" d="M721.13,704.89c0.09-16.01,13.15-28.91,29.16-28.82c15.88,0.09,28.73,12.94,28.82,28.82H721.13z"/>
	<path class="st18" d="M375.01,499.78H527c4.42,0,8.01,3.59,8.01,8.01v117.98c0,4.42-3.59,8.01-8.01,8.01H375.01
		c-4.42,0-8.01-3.59-8.01-8.01V507.79C367.01,503.37,370.59,499.78,375.01,499.78z"/>
	<path class="st19" d="M367.18,492.78h151.98c4.42,0,8.01,3.59,8.01,8.01v117.98c0,4.42-3.59,8.01-8.01,8.01H367.18
		c-4.42,0-8.01-3.59-8.01-8.01V500.79C359.17,496.37,362.76,492.78,367.18,492.78z"/>
	<path class="st13" d="M367.18,492.78h151.98c4.42,0,8.01,3.59,8.01,8.01v117.98c0,4.42-3.59,8.01-8.01,8.01H367.18
		c-4.42,0-8.01-3.59-8.01-8.01V500.79C359.17,496.37,362.76,492.78,367.18,492.78z"/>
	<path class="st20" d="M367.18,492.78h151.99c4.42,0,8.01,3.59,8.01,8.01v11.99l0,0h-168l0,0v-11.99
		C359.17,496.37,362.76,492.78,367.18,492.78z"/>
	<path class="st13" d="M367.18,492.78h151.99c4.42,0,8.01,3.59,8.01,8.01v11.99l0,0h-168l0,0v-11.99
		C359.17,496.37,362.76,492.78,367.18,492.78z"/>
	<circle class="st21" cx="373.51" cy="502.78" r="3.13"/>
	<circle class="st21" cx="383.34" cy="502.78" r="3.13"/>
	<circle class="st21" cx="392.67" cy="502.78" r="3.13"/>
	<line class="st22" x1="367.01" y1="519.78" x2="378.01" y2="519.78"/>
	<line class="st22" x1="382.01" y1="519.78" x2="412.01" y2="519.78"/>
	<line class="st23" x1="367.01" y1="527.78" x2="412.01" y2="527.78"/>
	<line class="st24" x1="376.01" y1="535.78" x2="398.01" y2="535.78"/>
	<line class="st25" x1="402.01" y1="535.78" x2="426.01" y2="535.78"/>
	<line class="st25" x1="388.01" y1="543.78" x2="434.01" y2="543.78"/>
	<line class="st26" x1="388.01" y1="551.78" x2="422.01" y2="551.78"/>
	<line class="st25" x1="376.01" y1="559.78" x2="426.01" y2="559.78"/>
	<line class="st23" x1="367.01" y1="566.78" x2="394.01" y2="566.78"/>
	<g class="st9">
		<path class="st10" d="M599.64,605.52c0-3.95-1.53-6.74-4.58-8.44c-2.16-1.17-3.05-2.07-3.05-4.13v-3.5c0-2.42,1.08-2.96,2.96-4.22
			c3.14-1.35,4.67-4.22,4.67-8.53v-7.64c0-6.11,2.24-10.6,5.48-12.49c2.42-1.73,5.29-2.69,8.26-2.78h1.17
			c2.51,0,3.77,1.26,3.77,3.77v1.34c0,2.42-1.26,3.68-3.77,3.68c-3.5,0-5.21,2.52-5.21,7.64v9.43c0.18,4.68-2.38,9.03-6.56,11.14
			l-0.81,0.27v0.18c0.92,0.27,1.78,0.73,2.52,1.35c2.25,1.35,4.85,4.49,4.85,9.97v10.51c0,5.03,1.71,7.55,5.21,7.55
			c2.51,0,3.77,1.26,3.77,3.77v1.35c0,2.51-1.26,3.77-3.77,3.77h-1.17c-2.97-0.09-5.85-1.06-8.26-2.78
			c-3.23-1.89-5.48-6.47-5.48-12.49V605.52z"/>
	</g>
	<path class="st27" d="M161.66,650.08"/>
	<path class="st28" d="M148.92,653.68l2-1.95c15.64,12.68,38.02,12.68,53.66,0l2.5,2.44"/>
	<path class="st28" d="M171.62,643.6c0-2.36-1.92-4.28-4.28-4.28h0l0,0c-2.36,0-4.28,1.92-4.28,4.28l0,0v3.92"/>
	<path class="st28" d="M184.39,643.6c0-2.36,1.92-4.28,4.28-4.28h0l0,0c2.36,0,4.28,1.92,4.28,4.28l0,0v3.92"/>
	<path class="st1" d="M802.84,574.89h77.8c5.03,0,9.1,4.07,9.1,9.1v111.8c0,5.03-4.07,9.1-9.1,9.1h-77.8c-5.03,0-9.1-4.07-9.1-9.1
		v-111.8C793.74,578.96,797.82,574.89,802.84,574.89z"/>
	<path class="st11" d="M880.64,574.89h-1.15c0.17,0.69,0.25,1.39,0.25,2.1v111.8c0,5.03-4.07,9.1-9.1,9.1H794
		c0.97,4.1,4.63,7,8.85,7h77.8c5.03,0,9.1-4.07,9.1-9.1v-111.8C889.75,578.96,885.67,574.89,880.64,574.89
		C880.64,574.89,880.64,574.89,880.64,574.89z"/>
	<path class="st6" d="M802.84,574.89h77.8c5.03,0,9.1,4.07,9.1,9.1v111.8c0,5.03-4.07,9.1-9.1,9.1h-77.8c-5.03,0-9.1-4.07-9.1-9.1
		v-111.8C793.74,578.96,797.82,574.89,802.84,574.89z"/>
	<path class="st29" d="M857.74,567.34h-8v-3c0-4.42-3.58-8-8-8s-8,3.58-8,8v3h-8c-4.42,0-8,3.58-8,8s3.58,8,8,8h32
		c4.42,0,8-3.58,8-8S862.16,567.34,857.74,567.34z"/>
	<path class="st30" d="M861.46,568.26c1.16,4.25-1.34,8.63-5.58,9.8c-0.69,0.19-1.41,0.29-2.13,0.28h-32c-1.3,0-2.57-0.31-3.72-0.92
		c0.94,3.49,4.1,5.92,7.72,5.92h32c4.42,0,8-3.59,7.99-8.01C865.73,572.37,864.08,569.64,861.46,568.26z"/>
	<path class="st30" d="M845.74,559.34v3h3.74c-0.56-2.18-2.02-4.03-4.02-5.08C845.64,557.94,845.74,558.64,845.74,559.34z"/>
	<path class="st6" d="M857.74,567.34h-8v-3c0-4.42-3.58-8-8-8s-8,3.58-8,8v3h-8c-4.42,0-8,3.58-8,8s3.58,8,8,8h32c4.42,0,8-3.58,8-8
		S862.16,567.34,857.74,567.34z"/>
	<circle class="st31" cx="841.74" cy="604.01" r="8.33"/>
	<circle class="st6" cx="841.74" cy="604.01" r="8.33"/>
	<line class="st6" x1="809.96" y1="629.68" x2="829.96" y2="629.68"/>
	<line class="st6" x1="809.96" y1="656.84" x2="829.96" y2="656.84"/>
	<line class="st6" x1="809.96" y1="684.01" x2="829.96" y2="684.01"/>
	<polyline class="st32" points="843.18,628.61 848.39,635.54 864,623.81 	"/>
	<polyline class="st32" points="843.18,655.77 848.39,662.71 864,650.98 	"/>
	
		<rect x="894.1" y="630.92" transform="matrix(0.9905 -0.1378 0.1378 0.9905 -82.7858 130.2451)" class="st0" width="10" height="64"/>
	
		<rect x="894.1" y="630.92" transform="matrix(0.9905 -0.1378 0.1378 0.9905 -82.7858 130.2451)" class="st13" width="10" height="64"/>
	<polygon class="st1" points="908.47,693.92 898.56,695.3 904.89,704.51 	"/>
	<polygon class="st13" points="908.47,693.92 898.56,695.3 904.89,704.51 	"/>
	
		<rect x="890.71" y="620.83" transform="matrix(0.9904 -0.1381 0.1381 0.9904 -77.8429 129.3771)" class="st1" width="6" height="10"/>
	
		<rect x="890.71" y="620.83" transform="matrix(0.9904 -0.1381 0.1381 0.9904 -77.8429 129.3771)" class="st13" width="6" height="10"/>
	<path class="st13" d="M908.6,655.54c-1.12-1.85-1.91-3.87-2.35-5.98c-1.1-5.43,1.62-8.54,0.15-11.63
		c-0.59-1.23-0.87-2.92-5.29-3.55"/>
	<line class="st6" x1="920.75" y1="704.89" x2="946.5" y2="704.89"/>
	<line class="st6" x1="234.33" y1="704.89" x2="909.5" y2="704.89"/>
	<line class="st6" x1="114.75" y1="704.89" x2="222.62" y2="704.89"/>
	<line class="st6" x1="80.33" y1="704.89" x2="103.5" y2="704.89"/>
	
		<ellipse transform="matrix(0.1602 -0.9871 0.9871 0.1602 223.1606 669.4578)" class="st10" cx="505.01" cy="203.58" rx="24" ry="24"/>
	<path class="st29" d="M436.11,209c-4.77-0.02-8.62-3.89-8.6-8.66c0-0.34,0.02-0.69,0.07-1.03c4.67-39.61,37.55-70.31,77.43-70.31
		s72.77,30.7,77.43,70.31c0.59,4.73-2.77,9.04-7.5,9.63c-0.34,0.04-0.69,0.06-1.04,0.07H436.11z"/>
	<path class="st33" d="M517.01,129.94L517.01,129.94c-0.26-0.04-0.52-0.07-0.78-0.11c-0.91-0.13-1.82-0.26-2.74-0.36
		c-0.42-0.05-0.84-0.09-1.26-0.13c-0.76-0.07-1.52-0.14-2.29-0.18c-0.44-0.03-0.89-0.06-1.33-0.08c-1.2-0.06-2.4-0.09-3.6-0.09
		s-2.4,0.04-3.59,0.09c-0.55,0.03-1.09,0.07-1.64,0.11c-0.59,0.04-1.18,0.08-1.77,0.14c-0.72,0.07-1.44,0.14-2.15,0.23
		c-0.35,0.04-0.7,0.09-1.04,0.14c-36.02,4.82-64.33,34.84-67.51,72.25c-0.32,3.56,2.32,6.71,5.88,7.02
		c0.19,0.02,0.37,0.02,0.56,0.03h142.52c3.56,0.01,6.46-2.87,6.47-6.43c0-0.17-0.01-0.34-0.02-0.51
		C579.63,165.22,552.2,135.52,517.01,129.94z M454.03,186.93c6.9-25.09,25.68-45.2,50.24-53.8c24.58,8.59,43.38,28.7,50.29,53.8
		c1.55,5.74-1.84,11.65-7.58,13.2c-0.93,0.25-1.88,0.38-2.84,0.37h-79.68c-5.94,0.02-10.78-4.78-10.8-10.72
		C453.65,188.81,453.78,187.86,454.03,186.93z"/>
	<path class="st6" d="M436.18,209c-4.8-0.01-8.68-3.91-8.67-8.71c0-0.35,0.02-0.7,0.07-1.05c4.7-39.58,37.57-70.24,77.43-70.24
		s72.73,30.66,77.43,70.24c0.59,4.76-2.79,9.1-7.55,9.69c-0.35,0.04-0.7,0.07-1.05,0.07H436.18z"/>
	<line class="st34" x1="505.01" y1="0" x2="505.01" y2="129"/>
</g>
<polyline class="st35" points="1000,795 1000,1000 0,1000 0,855.06 "/>
<path class="st35" d="M21.29,795C347,795,674,795,1000,795"/>
<line class="st35" x1="0" y1="855.06" x2="0" y2="795"/>
</svg>
