<?xml version="1.0" encoding="utf-8"?>
<!-- Generator: Adobe Illustrator 23.0.3, SVG Export Plug-In . SVG Version: 6.00 Build 0)  -->
<svg version="1.1" id="Layer_1" xmlns="http://www.w3.org/2000/svg" xmlns:xlink="http://www.w3.org/1999/xlink" x="0px" y="0px"
	 viewBox="0 0 768 630" style="enable-background:new 0 0 768 630;" xml:space="preserve">
<style type="text/css">
	.st0{fill:#2AA1FF;}
	
		.st1{opacity:0.28;fill:#1F3969;stroke:#1F3969;stroke-width:4;stroke-linecap:round;stroke-linejoin:round;stroke-miterlimit:10;enable-background:new    ;}
	.st2{fill:none;stroke:#1F3969;stroke-width:4;stroke-linecap:round;stroke-linejoin:round;stroke-miterlimit:10;}
	.st3{fill:#FFFFFF;}
	.st4{fill:#F6F9FD;}
	.st5{fill:none;stroke:#000000;stroke-width:4;stroke-linecap:round;stroke-linejoin:round;stroke-miterlimit:10;}
	.st6{fill:#4F4F51;stroke:#1E223B;stroke-miterlimit:10;}
	.st7{opacity:0.39;}
	.st8{opacity:0.39;fill:#FFFFFF;enable-background:new    ;}
	.st9{fill:none;stroke:#1E223B;stroke-width:2;stroke-linecap:round;stroke-linejoin:round;}
	.st10{fill:#028B9E;stroke:#1E223B;stroke-width:2;stroke-linecap:round;stroke-linejoin:round;}
	
		.st11{opacity:0.4;fill:#028B9E;stroke:#1E223B;stroke-width:2;stroke-linecap:round;stroke-linejoin:round;enable-background:new    ;}
	.st12{opacity:0.11;fill:#161616;stroke:#1E223B;stroke-miterlimit:10;enable-background:new    ;}
	.st13{fill:#2F4584;}
	.st14{opacity:0.15;fill:#1E223B;stroke:#1E223B;stroke-width:2;stroke-miterlimit:11;enable-background:new    ;}
	.st15{fill:#F58F7C;stroke:#1E223B;stroke-miterlimit:10;}
	.st16{opacity:0.1;}
	.st17{fill:#1E223B;}
	.st18{fill:#263C72;}
	.st19{fill:#EFEFEF;}
	.st20{fill:#363D56;}
	.st21{fill:#424960;}
	.st22{fill:#F73E39;}
	.st23{fill:#383838;}
	.st24{fill:#C6C6C6;}
	.st25{opacity:0.28;fill:#8289A3;enable-background:new    ;}
	.st26{opacity:0.32;}
	.st27{fill:none;stroke:#1E223B;stroke-linecap:round;stroke-linejoin:round;}
	.st28{opacity:0.5;fill:#FFFFFF;enable-background:new    ;}
	.st29{fill:#DD4814;}
	.st30{fill:#777BB4;}
	.st31{opacity:0.88;fill:#FF5855;stroke:#1E223B;stroke-miterlimit:10;enable-background:new    ;}
	.st32{fill:#0270BB;}
	.st33{opacity:0.59;fill:#FFFFFF;enable-background:new    ;}
	.st34{opacity:0.32;fill:#FFFFFF;enable-background:new    ;}
	.st35{opacity:0.12;fill:#0270BB;enable-background:new    ;}
	.st36{opacity:0.47;fill:#0270BB;enable-background:new    ;}
	.st37{fill:#FFFFFF;stroke:#1E223B;stroke-width:2;stroke-linecap:round;stroke-linejoin:round;}
	.st38{fill:#F35045;}
	
		.st39{opacity:0.32;fill:none;stroke:#1E223B;stroke-width:2;stroke-linecap:round;stroke-linejoin:round;enable-background:new    ;}
	
		.st40{opacity:0.15;fill:none;stroke:#1E223B;stroke-width:2;stroke-linecap:round;stroke-linejoin:round;enable-background:new    ;}
	
		.st41{opacity:0.26;fill:none;stroke:#1E223B;stroke-width:2;stroke-linecap:round;stroke-linejoin:round;enable-background:new    ;}
	.st42{fill:#4AD3A5;stroke:#1E223B;stroke-miterlimit:10;}
	.st43{fill:#F2A197;}
	.st44{opacity:0.2;fill:#1E223B;enable-background:new    ;}
	.st45{fill:#FDB3A6;}
	.st46{fill:none;stroke:#1E223B;stroke-width:3;stroke-linecap:round;stroke-linejoin:round;}
	.st47{fill:none;stroke:#1E223B;stroke-width:2;stroke-linecap:round;stroke-linejoin:round;stroke-dasharray:5.9537,7.9382;}
	.st48{fill:none;stroke:#1E223B;stroke-width:2;stroke-linecap:round;stroke-linejoin:round;stroke-dasharray:6,8;}
	.st49{fill:#E44D26;stroke:#1E223B;stroke-width:2;stroke-miterlimit:10;}
</style>
<path id="XMLID_69_" class="st0" d="M447.6,495.4l-5.1-54.5h-84.1l-5.1,54.5c-1.2,12.6-9.2,24.7-21.8,34.4v0.2h137.9v-0.2
	C456.8,520.1,448.8,508,447.6,495.4z"/>
<polygon id="XMLID_33_" class="st1" points="358.4,445.1 355.3,477.8 445.5,477.8 442.5,445.1 "/>
<path id="XMLID_10_" class="st2" d="M447.6,495.4l-5.1-54.5h-84.1l-5.1,54.5c-1.2,12.6-9.2,24.7-21.8,34.4v0.2h137.9v-0.2
	C456.8,520.1,448.8,508,447.6,495.4z"/>
<path id="XMLID_13_" class="st3" d="M657.6,438.8H119.4c-11.2,0-20.4-8.7-20.4-19.4v-333c0-10.7,9.2-19.4,20.4-19.4h538.1
	c11.2,0,20.4,8.7,20.4,19.4v333C678,430.3,668.8,438.8,657.6,438.8z"/>
<path id="XMLID_63_" class="st0" d="M657.6,438.8H119.4c-11.2,0-20.4-8.7-20.4-19.4v-333c0-10.7,9.2-19.4,20.4-19.4h538.1
	c11.2,0,20.4,8.7,20.4,19.4v333C678,430.3,668.8,438.8,657.6,438.8z"/>
<path id="XMLID_4_" class="st2" d="M657.6,438.8H119.4c-11.2,0-20.4-8.7-20.4-19.4v-333c0-10.7,9.2-19.4,20.4-19.4h538.1
	c11.2,0,20.4,8.7,20.4,19.4v333C678,430.3,668.8,438.8,657.6,438.8z"/>
<rect id="XMLID_68_" x="127.9" y="111.8" class="st4" width="521.1" height="282.3"/>
<rect id="XMLID_11_" x="127.9" y="111.8" class="st5" width="521.1" height="282.3"/>
<line id="XMLID_9_" class="st5" x1="377.5" y1="467.9" x2="423.3" y2="467.9"/>
<g>
	<rect x="126.9" y="111.8" class="st6" width="521.1" height="281.7"/>
	<g class="st7">
		<ellipse class="st3" cx="219.5" cy="241.4" rx="10.6" ry="5.7"/>
		<ellipse class="st3" cx="219.5" cy="241.4" rx="4.6" ry="2.5"/>
		<path class="st3" d="M236,233.2l-6.6,2.1l0,0c-0.5-0.2-1-0.4-1.5-0.6l0,0l2-4c0.3-0.7-0.4-1.3-1.6-1.5l-5.1-0.7
			c-1.2-0.2-2.5,0.2-2.8,0.9l-2,4h0c-0.6,0-1.3,0.1-1.9,0.1l0,0l-3.8-3.6c-0.6-0.6-2-0.8-3.1-0.5c0,0,0,0,0,0l-4.6,1.4
			c-1.1,0.3-1.5,1.1-0.8,1.7c0,0,0,0,0,0l3.8,3.6l0,0c-0.4,0.3-0.8,0.5-1.2,0.8l0,0l-7.3-1.1c-1.2-0.2-2.5,0.2-2.8,0.9l-1.4,2.8
			c-0.3,0.7,0.4,1.3,1.6,1.5l7.3,1.1l0,0c0,0.3,0.1,0.7,0.2,1l0,0L198,245c-1.1,0.3-1.5,1.1-0.8,1.7l2.7,2.5c0.6,0.6,2,0.8,3.1,0.5
			c0,0,0,0,0,0l6.6-2.1l0,0c0.5,0.2,1,0.4,1.5,0.6l0,0l-2,4c-0.3,0.7,0.4,1.3,1.6,1.5l5.1,0.7c1.2,0.2,2.5-0.2,2.8-0.9l2-4l0,0
			c0.6,0,1.3-0.1,1.9-0.1l0,0l3.8,3.6c0.6,0.6,2,0.8,3.1,0.5c0,0,0,0,0,0l4.6-1.4c1.1-0.3,1.5-1.1,0.8-1.7l-3.8-3.6l0,0
			c0.4-0.3,0.8-0.5,1.2-0.8l0,0l7.3,1.1c1.2,0.2,2.5-0.2,2.8-0.9c0,0,0,0,0,0l1.4-2.8c0.3-0.7-0.4-1.3-1.6-1.5c0,0,0,0,0,0l-7.3-1.1
			l0,0c0-0.3-0.1-0.7-0.3-1l0,0l6.6-2.1c1.1-0.3,1.5-1.1,0.8-1.7l-2.7-2.5C238.5,233,237.1,232.8,236,233.2z"/>
	</g>
	<ellipse class="st8" cx="284.4" cy="174.4" rx="26.9" ry="14.5"/>
	<polygon class="st9" points="284,174.6 298.5,170 298.5,178.5 284,183.1 	"/>
	<polygon class="st9" points="270.3,170.3 284.8,165.7 298.5,170 284,174.6 	"/>
	<polygon class="st10" points="270.3,170.3 284.8,165.7 298.5,170 284,174.6 	"/>
	<polygon class="st11" points="284,174.6 284,183.1 270.3,178.8 270.3,170.3 	"/>
	<polygon class="st9" points="284,174.6 284,183.1 270.3,178.8 270.3,170.3 	"/>
	<ellipse class="st9" cx="284.4" cy="174.4" rx="26.9" ry="14.5"/>
	<path class="st12" d="M324.4,287.3h147c5.2,0,9.4,2.3,9.4,5.1v56.9c0,2.8-4.2,5.1-9.4,5.1h-147c-5.2,0-9.4-2.3-9.4-5.1v-56.9
		C315,289.6,319.2,287.3,324.4,287.3z"/>
	<path class="st12" d="M318.7,283.4h158.4c2,0,3.6,0.9,3.6,2l0,0c0,1.1-1.6,2-3.6,2H318.7c-2,0-3.6-0.9-3.6-2l0,0
		C315,284.3,316.7,283.4,318.7,283.4z"/>
	<path class="st13" d="M319.2,285.1h147c5.2,0,9.4,2.3,9.4,5.1V347c0,2.8-4.2,5.1-9.4,5.1h-147c-5.2,0-9.4-2.3-9.4-5.1v-56.9
		C309.8,287.3,314,285.1,319.2,285.1z"/>
	<path class="st3" d="M319.2,285.1h147c5.2,0,9.4,2.3,9.4,5.1v55.2c0,2.8-4.2,5.1-9.4,5.1h-147c-5.2,0-9.4-2.3-9.4-5.1v-55.2
		C309.8,287.3,314,285.1,319.2,285.1z"/>
	<path class="st12" d="M417.4,346.4h-0.8c-1.7,0-3.1,0.8-3.1,1.7v2c0,0.5-0.7,0.8-1.6,0.8s-1.6-0.4-1.6-0.8v-2
		c0-0.9-1.4-1.7-3.1-1.7h-0.8c-1.7,0-3.1,0.8-3.1,1.7v2c0,0.5-0.7,0.8-1.6,0.8c-0.9,0-1.6-0.4-1.6-0.8v-2c0-0.9-1.4-1.7-3.1-1.7
		h-0.8c-1.7,0-3.1,0.8-3.1,1.7v2c0,0.5-0.7,0.8-1.6,0.8c-0.9,0-1.6-0.4-1.6-0.8v-12.7c0-0.9-1.4-1.7-3.1-1.7h-0.8
		c-1.7,0-3.1,0.8-3.1,1.7v22.1l-6-5.6c-0.9-0.8-2.8-1.1-4.3-0.6c0,0,0,0,0,0l-0.7,0.2c-1.5,0.5-2,1.5-1.1,2.3c0,0,0,0,0,0l12.5,11.7
		c0.9,1.3,3.2,2.1,5.8,2.1h1v6.9h-2.1v7h-1c-1.9,0-3.4,0.8-3.4,1.8l0,0v8.5h35.8v-8.5c0-1-1.5-1.8-3.4-1.8h0h-1v-7h-2.1v-6.9h1
		c3.5,0,6.3-1.5,6.3-3.4v-18.2C420.5,347.2,419.1,346.4,417.4,346.4z"/>
	<path class="st12" d="M357.5,345.4c3.2,0,5.9-1.3,6.2-3.1l11.5-10.8c0.9-0.8,0.4-1.8-1.1-2.3c0,0,0,0,0,0l-0.7-0.2
		c-1.5-0.5-3.4-0.2-4.3,0.6c0,0,0,0,0,0l-5.4,5.1v-21.5c0-0.9-1.4-1.7-3.1-1.7h-0.8c-1.7,0-3.1,0.8-3.1,1.7v12.7
		c0,0.5-0.7,0.8-1.6,0.8c-0.9,0-1.6-0.4-1.6-0.8v-15.1c0-0.9-1.4-1.7-3.1-1.7h-0.8c-1.7,0-3.1,0.8-3.1,1.7v15.1
		c0,0.5-0.7,0.8-1.6,0.8c-0.9,0-1.6-0.4-1.6-0.8v-12.7c0-0.9-1.4-1.7-3.1-1.7h-0.8c-1.7,0-3.1,0.8-3.1,1.7v12.7
		c0,0.5-0.7,0.8-1.6,0.8s-1.6-0.4-1.6-0.8v-8.7c0-0.9-1.4-1.7-3.1-1.7h-0.8c-1.7,0-3.1,0.8-3.1,1.7V342c0,1.9,2.8,3.4,6.3,3.4h1.3
		v6.9h-2.4v7h-1c-1.9,0-3.4,0.8-3.4,1.8V394h35.8v-32.9c0-1-1.5-1.8-3.4-1.8h-1v-7h-1.8v-6.9H357.5z"/>
	<path class="st14" d="M319.5,290h146.4c1.2,0,2.1,0.5,2.1,1.1V323c0,0.6-0.9,1.1-2.1,1.1H319.5c-1.2,0-2.1-0.5-2.1-1.1v-31.8
		C317.4,290.5,318.3,290,319.5,290z"/>
	<path class="st9" d="M319.2,285.1h147c5.2,0,9.4,2.3,9.4,5.1v55.2c0,2.8-4.2,5.1-9.4,5.1h-147c-5.2,0-9.4-2.3-9.4-5.1v-55.2
		C309.8,287.3,314,285.1,319.2,285.1z"/>
	<path class="st9" d="M319.2,285.1h147c5.2,0,9.4,2.3,9.4,5.1V347c0,2.8-4.2,5.1-9.4,5.1h-147c-5.2,0-9.4-2.3-9.4-5.1v-56.9
		C309.8,287.3,314,285.1,319.2,285.1z"/>
	<path class="st13" d="M319.2,219.7h147c5.2,0,9.4,2.3,9.4,5.1V280c0,2.8-4.2,5.1-9.4,5.1h-147c-5.2,0-9.4-2.3-9.4-5.1v-55.2
		C309.8,222,314,219.7,319.2,219.7z"/>
	<path class="st9" d="M319.2,219.7h147c5.2,0,9.4,2.3,9.4,5.1V280c0,2.8-4.2,5.1-9.4,5.1h-147c-5.2,0-9.4-2.3-9.4-5.1v-55.2
		C309.8,222,314,219.7,319.2,219.7z"/>
	<path class="st3" d="M472.4,224.8V280c0,1.9-2.8,3.4-6.3,3.4h-147c-3.5,0-6.3-1.5-6.3-3.4v-55.2c0-1.9,2.8-3.4,6.3-3.4h147
		C469.6,221.4,472.4,222.9,472.4,224.8z"/>
	<rect x="325.4" y="228.2" class="st15" width="134.4" height="48.4"/>
	<path class="st9" d="M472.4,224.8V280c0,1.9-2.8,3.4-6.3,3.4h-147c-3.5,0-6.3-1.5-6.3-3.4v-55.2c0-1.9,2.8-3.4,6.3-3.4h147
		C469.6,221.4,472.4,222.9,472.4,224.8z"/>
	<rect x="325.4" y="228.2" class="st9" width="134.4" height="48.4"/>
	<g class="st16">
		<path class="st17" d="M372.5,326.8h40.4c1.2,0,2.2,0.5,2.2,1.2v14.5c0,0.7-1,1.2-2.2,1.2h-40.4c-1.2,0-2.2-0.5-2.2-1.2V328
			C370.3,327.3,371.3,326.8,372.5,326.8z"/>
	</g>
	<path class="st9" d="M372.5,326.8h40.4c1.2,0,2.2,0.5,2.2,1.2v14.5c0,0.7-1,1.2-2.2,1.2h-40.4c-1.2,0-2.2-0.5-2.2-1.2V328
		C370.3,327.3,371.3,326.8,372.5,326.8z"/>
	<rect x="373.1" y="349.9" class="st18" width="39.6" height="2.3"/>
	<rect x="373.1" y="349.9" class="st9" width="39.6" height="2.3"/>
	<path class="st12" d="M347.3,213h98c1.7,0,3.1,0.8,3.1,1.7v59.7c0,0.9-1.4,1.7-3.1,1.7h-98c-1.7,0-3.1-0.8-3.1-1.7v-59.7
		C344.2,213.7,345.6,213,347.3,213z"/>
	<path class="st3" d="M344.5,211.8h98c1.7,0,3.1,0.8,3.1,1.7v59.7c0,0.9-1.4,1.7-3.1,1.7h-98c-1.7,0-3.1-0.8-3.1-1.7v-59.7
		C341.3,212.6,342.7,211.8,344.5,211.8z"/>
	<path class="st19" d="M341.3,265.4h104.2l0,0v7.9c0,0.9-1.4,1.7-3.1,1.7h-98c-1.7,0-3.1-0.8-3.1-1.7V265.4L341.3,265.4z"/>
	<path class="st9" d="M344.5,211.8h98c1.7,0,3.1,0.8,3.1,1.7v59.7c0,0.9-1.4,1.7-3.1,1.7h-98c-1.7,0-3.1-0.8-3.1-1.7v-59.7
		C341.3,212.6,342.7,211.8,344.5,211.8z"/>
	<path class="st20" d="M344.2,211.8h98.6c1.6,0,2.8,0.7,2.8,1.5c0,0,0,0,0,0v3.5l0,0H341.3l0,0v-3.5
		C341.3,212.5,342.6,211.8,344.2,211.8C344.2,211.8,344.2,211.8,344.2,211.8z"/>
	<path class="st9" d="M344.2,211.8h98.6c1.6,0,2.8,0.7,2.8,1.5c0,0,0,0,0,0v3.5l0,0H341.3l0,0v-3.5
		C341.3,212.5,342.6,211.8,344.2,211.8C344.2,211.8,344.2,211.8,344.2,211.8z"/>
	<rect x="341.3" y="216.9" class="st21" width="104.2" height="2.3"/>
	<rect x="341.3" y="216.9" class="st9" width="104.2" height="2.3"/>
	<ellipse class="st22" cx="347.2" cy="214.4" rx="1.6" ry="0.8"/>
	<ellipse class="st9" cx="347.2" cy="214.4" rx="1.6" ry="0.8"/>
	<ellipse class="st23" cx="353.6" cy="214.4" rx="1.6" ry="0.8"/>
	<ellipse class="st9" cx="353.6" cy="214.4" rx="1.6" ry="0.8"/>
	<ellipse class="st24" cx="359.4" cy="214.4" rx="1.6" ry="0.8"/>
	<ellipse class="st9" cx="359.4" cy="214.4" rx="1.6" ry="0.8"/>
	<path class="st25" d="M368.2,213.5h32.3c0.9,0,1.6,0.4,1.6,0.8l0,0c0,0.5-0.7,0.8-1.6,0.8h-32.3c-0.9,0-1.6-0.4-1.6-0.8l0,0
		C366.6,213.9,367.3,213.5,368.2,213.5z"/>
	<ellipse class="st9" cx="219.5" cy="241.4" rx="10.6" ry="5.7"/>
	<ellipse class="st9" cx="219.5" cy="241.4" rx="4.6" ry="2.5"/>
	<path class="st9" d="M236,233.2l-6.6,2.1l0,0c-0.5-0.2-1-0.4-1.5-0.6l0,0l2-4c0.3-0.7-0.4-1.3-1.6-1.5l-5.1-0.7
		c-1.2-0.2-2.5,0.2-2.8,0.9l-2,4h0c-0.6,0-1.3,0.1-1.9,0.1l0,0l-3.8-3.6c-0.6-0.6-2-0.8-3.1-0.5c0,0,0,0,0,0l-4.6,1.4
		c-1.1,0.3-1.5,1.1-0.8,1.7c0,0,0,0,0,0l3.8,3.6l0,0c-0.4,0.3-0.8,0.5-1.2,0.8l0,0l-7.3-1.1c-1.2-0.2-2.5,0.2-2.8,0.9l-1.4,2.8
		c-0.3,0.7,0.4,1.3,1.6,1.5l7.3,1.1l0,0c0,0.3,0.1,0.7,0.2,1l0,0L198,245c-1.1,0.3-1.5,1.1-0.8,1.7l2.7,2.5c0.6,0.6,2,0.8,3.1,0.5
		c0,0,0,0,0,0l6.6-2.1l0,0c0.5,0.2,1,0.4,1.5,0.6l0,0l-2,4c-0.3,0.7,0.4,1.3,1.6,1.5l5.1,0.7c1.2,0.2,2.5-0.2,2.8-0.9l2-4l0,0
		c0.6,0,1.3-0.1,1.9-0.1l0,0l3.8,3.6c0.6,0.6,2,0.8,3.1,0.5c0,0,0,0,0,0l4.6-1.4c1.1-0.3,1.5-1.1,0.8-1.7l-3.8-3.6l0,0
		c0.4-0.3,0.8-0.5,1.2-0.8l0,0l7.3,1.1c1.2,0.2,2.5-0.2,2.8-0.9c0,0,0,0,0,0l1.4-2.8c0.3-0.7-0.4-1.3-1.6-1.5c0,0,0,0,0,0l-7.3-1.1
		l0,0c0-0.3-0.1-0.7-0.3-1l0,0l6.6-2.1c1.1-0.3,1.5-1.1,0.8-1.7l-2.7-2.5C238.5,233,237.1,232.8,236,233.2z"/>
	<g class="st26">
		<ellipse class="st27" cx="362.2" cy="228.6" rx="4" ry="2.2"/>
		<ellipse class="st27" cx="362.2" cy="228.6" rx="1.7" ry="0.9"/>
		<path class="st27" d="M370.7,228.8l-2.8-0.4v0c0-0.1,0-0.3-0.1-0.4l0,0l2.5-0.8c0.4-0.1,0.6-0.4,0.3-0.6l-1-0.9
			c-0.2-0.2-0.8-0.3-1.2-0.2c0,0,0,0,0,0l-2.5,0.8v0c-0.2-0.1-0.4-0.2-0.6-0.2h0l0.7-1.5c0.1-0.2-0.1-0.5-0.6-0.6l-1.9-0.3
			c-0.5-0.1-0.9,0.1-1.1,0.3l-0.7,1.5h0c-0.2,0-0.5,0-0.7,0.1h0l-1.4-1.3c-0.2-0.2-0.8-0.3-1.2-0.2l-1.7,0.5
			c-0.4,0.1-0.6,0.4-0.3,0.6l1.4,1.3l0,0c-0.2,0.1-0.3,0.2-0.4,0.3v0l-2.8-0.4c-0.5-0.1-0.9,0.1-1.1,0.3c0,0,0,0,0,0l-0.5,1.1
			c-0.1,0.2,0.1,0.5,0.6,0.6l2.8,0.4l0,0c0,0.1,0,0.3,0.1,0.4l0,0L354,230c-0.4,0.1-0.6,0.4-0.3,0.6c0,0,0,0,0,0l1,0.9
			c0.2,0.2,0.8,0.3,1.2,0.2c0,0,0,0,0,0l2.5-0.8l0,0c0.2,0.1,0.4,0.2,0.6,0.2l0,0l-0.7,1.5c-0.1,0.2,0.1,0.5,0.6,0.6c0,0,0,0,0,0
			l1.9,0.3c0.5,0.1,0.9-0.1,1.1-0.3l0.7-1.5l0,0c0.2,0,0.5,0,0.7-0.1l0,0l1.4,1.3c0.2,0.2,0.8,0.3,1.2,0.2l1.7-0.5
			c0.4-0.1,0.6-0.4,0.3-0.6l-1.4-1.3l0,0c0.2-0.1,0.3-0.2,0.4-0.3v0l2.8,0.4c0.5,0.1,0.9-0.1,1.1-0.3l0.5-1.1
			C371.4,229.1,371.1,228.9,370.7,228.8z"/>
	</g>
	<path class="st3" d="M432.8,183h-13.7l-14.2,5.1V183h-10.1c-2.6,0-4.7-1.1-4.7-2.6l0,0v-14.1c0-1.4,2.1-2.6,4.7-2.6l0,0h38
		c2.6,0,4.7,1.1,4.7,2.6c0,0,0,0,0,0v14.1C437.5,181.8,435.4,183,432.8,183C432.8,183,432.8,183,432.8,183z"/>
	<path class="st9" d="M432.8,183h-13.7l-14.2,5.1V183h-10.1c-2.6,0-4.7-1.1-4.7-2.6l0,0v-14.1c0-1.4,2.1-2.6,4.7-2.6l0,0h38
		c2.6,0,4.7,1.1,4.7,2.6c0,0,0,0,0,0v14.1C437.5,181.8,435.4,183,432.8,183C432.8,183,432.8,183,432.8,183z"/>
	<path class="st28" d="M433.3,161.1h8.8l9.2,3.3v-3.3h6.5c1.7,0,3.1-0.7,3.1-1.7v0v-9.1c0-0.9-1.4-1.7-3.1-1.7l0,0h-24.6
		c-1.7,0-3.1,0.7-3.1,1.7l0,0v9.1C430.2,160.4,431.6,161.1,433.3,161.1C433.3,161.1,433.3,161.1,433.3,161.1z"/>
	<path class="st9" d="M433.3,161.1h8.8l9.2,3.3v-3.3h6.5c1.7,0,3.1-0.7,3.1-1.7v0v-9.1c0-0.9-1.4-1.7-3.1-1.7l0,0h-24.6
		c-1.7,0-3.1,0.7-3.1,1.7l0,0v9.1C430.2,160.4,431.6,161.1,433.3,161.1C433.3,161.1,433.3,161.1,433.3,161.1z"/>
	<path class="st29" d="M465.3,340.3c0,2.1-3.1,3.7-6.9,3.7c-3.8,0-6.9-1.7-6.9-3.7c0-2.1,3.1-3.7,6.9-3.7
		C462.3,336.6,465.3,338.3,465.3,340.3C465.3,340.3,465.3,340.3,465.3,340.3z"/>
	<path class="st3" d="M453.8,339.8c-0.5,0-0.9,0.2-0.9,0.5c0,0.3,0.4,0.5,0.9,0.5c0.5,0,0.9-0.2,0.9-0.5
		C454.7,340.1,454.3,339.8,453.8,339.8C453.8,339.8,453.8,339.8,453.8,339.8z M460.3,342.1c-0.4,0.1-0.6,0.4-0.3,0.7
		c0.3,0.2,0.8,0.3,1.3,0.2s0.6-0.4,0.3-0.7c0,0,0,0,0,0C461.3,342.1,460.8,342,460.3,342.1L460.3,342.1z M455.8,340.3
		c0-0.5,0.4-0.9,1.1-1.2l-0.7-0.6c-0.8,0.3-1.4,0.7-1.7,1.3c0.6,0.2,0.6,0.7,0.2,1c-0.1,0-0.1,0.1-0.2,0.1c0.2,0.5,0.8,1,1.7,1.3
		l0.7-0.6C456.2,341.3,455.8,340.8,455.8,340.3L455.8,340.3z M458.4,338.9c1.4,0,2.6,0.6,2.7,1.3l1.3,0c-0.1-0.5-0.5-1-1.2-1.4
		c-0.7,0.1-1.4,0-1.7-0.4c0,0-0.1-0.1-0.1-0.1c-0.9-0.1-2-0.1-2.8,0.1l0.6,0.6C457.7,338.9,458.1,338.9,458.4,338.9L458.4,338.9z
		 M458.4,341.8c-0.4,0-0.8,0-1.1-0.1l-0.6,0.6c0.9,0.2,1.9,0.3,2.8,0.1c0.1-0.4,0.8-0.6,1.5-0.6c0.1,0,0.2,0,0.2,0
		c0.7-0.4,1.1-0.9,1.2-1.4l-1.3,0C461,341.2,459.8,341.8,458.4,341.8L458.4,341.8z M460.3,338.6c0.4,0.1,1,0.1,1.3-0.2
		c0.3-0.2,0.1-0.5-0.3-0.7c-0.4-0.1-1-0.1-1.3,0.2C459.7,338.1,459.9,338.4,460.3,338.6C460.3,338.6,460.3,338.6,460.3,338.6
		L460.3,338.6z"/>
	<polygon class="st30" points="227.3,306.8 241.9,302.2 241.9,310.8 227.2,315.4 	"/>
	<polygon class="st9" points="227.3,306.8 241.9,302.2 241.9,310.8 227.2,315.4 	"/>
	<polygon class="st31" points="213.5,302.5 228.1,297.9 241.9,302.2 227.3,306.8 	"/>
	<polygon class="st32" points="227.3,306.8 227.2,315.4 213.4,311 213.5,302.5 	"/>
	<polygon class="st9" points="213.5,302.5 228.1,297.9 241.9,302.2 227.3,306.8 	"/>
	<polygon class="st9" points="227.3,306.8 227.2,315.4 213.4,311 213.5,302.5 	"/>
	<ellipse class="st33" cx="216.6" cy="293" rx="3.1" ry="1.7"/>
	<ellipse class="st9" cx="216.6" cy="293" rx="3.1" ry="1.7"/>
	<ellipse class="st33" cx="227.2" cy="293" rx="3.1" ry="1.7"/>
	<ellipse class="st9" cx="227.2" cy="293" rx="3.1" ry="1.7"/>
	<ellipse class="st33" cx="237.9" cy="293" rx="3.1" ry="1.7"/>
	<ellipse class="st34" cx="594.2" cy="258.4" rx="20.6" ry="11.1"/>
	<ellipse class="st9" cx="237.9" cy="293" rx="3.1" ry="1.7"/>
	<polygon class="st35" points="594.5,258.5 583.4,255 583.4,261.6 594.5,265 	"/>
	<polygon class="st9" points="594.5,258.5 583.4,255 583.4,261.6 594.5,265 	"/>
	<polygon class="st36" points="605,255.2 593.9,251.7 583.4,255 594.5,258.5 	"/>
	<polygon class="st9" points="605,255.2 593.9,251.7 583.4,255 594.5,258.5 	"/>
	<polygon class="st37" points="594.5,258.5 594.5,265 605,261.8 605,255.2 	"/>
	<polygon class="st9" points="594.5,258.5 594.5,265 605,261.8 605,255.2 	"/>
	<ellipse class="st9" cx="594.2" cy="258.4" rx="20.6" ry="11.1"/>
	<path class="st32" d="M546.5,265.3h36.5c2.6,0,4.7,1.1,4.7,2.5v7.6c0,1.4-2.1,2.5-4.7,2.5h-36.5c-2.6,0-4.7-1.1-4.7-2.5v-7.6
		C541.8,266.4,543.9,265.3,546.5,265.3z"/>
	<path class="st9" d="M546.5,265.3h36.5c2.6,0,4.7,1.1,4.7,2.5v7.6c0,1.4-2.1,2.5-4.7,2.5h-36.5c-2.6,0-4.7-1.1-4.7-2.5v-7.6
		C541.8,266.4,543.9,265.3,546.5,265.3z"/>
	<path class="st3" d="M548.8,271.6c0-1.8,2.5-3,5.7-3c1.8,0,3.5,0.5,4.4,1.3l-1.6,0.5c-0.6-0.5-1.6-0.9-2.7-0.9
		c-2.2,0-3.8,0.9-3.8,2.1c0,1.2,1.6,2.1,3.8,2.1c1.1,0,2.2-0.3,2.7-0.9l1.6,0.4c-0.9,0.8-2.6,1.3-4.4,1.3
		C551.3,274.6,548.8,273.4,548.8,271.6z"/>
	<path class="st3" d="M561,273.7l1.1-0.8c0.9,0.5,2.1,0.8,3.4,0.8c1.6,0,2.2-0.4,2.2-0.8c0-1.2-6.3-0.5-6.3-2.6c0-1,1.6-1.7,4-1.7
		c1.5,0,3,0.3,4.1,0.8l-1.1,0.8c-0.8-0.4-2-0.7-3.2-0.7c-1.1,0-1.8,0.3-1.8,0.7c0,1.1,6.3,0.4,6.3,2.6c0,1-1.3,1.8-4.2,1.8
		C563.8,274.7,562.2,274.3,561,273.7z"/>
	<path class="st3" d="M571.9,273.7l1.1-0.8c0.9,0.5,2.1,0.8,3.4,0.8c1.6,0,2.2-0.4,2.2-0.8c0-1.2-6.3-0.5-6.3-2.6c0-1,1.6-1.7,4-1.7
		c1.5,0,3,0.3,4.1,0.8l-1.1,0.8c-0.8-0.4-2-0.7-3.2-0.7c-1.1,0-1.8,0.3-1.8,0.7c0,1.1,6.3,0.4,6.3,2.6c0,1-1.3,1.8-4.2,1.8
		C574.7,274.7,573.1,274.3,571.9,273.7z"/>
	<path class="st38" d="M428.4,268c0.1,0.1,0.2,0.1,0.3,0.1c0.1,0,6-1.1,6.2-1.1c0.2,0,0.1-0.1,0.1-0.1c-0.1,0-2-1.5-2.1-1.6
		s-0.1-0.1-0.3,0l-6.2,0.9C426.3,266.1,428.3,267.8,428.4,268L428.4,268z"/>
	<path class="st38" d="M435.4,266.5v-1.7l-1.9,0.3C434,265.5,434.8,266.1,435.4,266.5L435.4,266.5z"/>
	<path class="st38" d="M433.5,263c-0.1,0-2.2,0.2-2.3,0.2c-0.1,0-0.1,0,0,0.1l1.9,1.4c0,0,2.3-0.3,2.4-0.3l0,0v-0.2
		c-0.4-0.3-1.5-1.1-1.6-1.1C433.6,263,433.6,263,433.5,263L433.5,263z"/>
	<path class="st38" d="M420.1,260.9c0.5,0,0.5,0,0.7,0.2l5.1,4.6l6.4-0.8c-0.4-0.3-2-1.5-2.1-1.6c-0.2-0.1,0-0.2,0.3-0.2
		s2.7-0.2,2.9-0.3c0.2,0,0.4-0.1,0.7,0.2c0.2,0.1,0.8,0.5,1.3,0.9v-2.1c0-1-1.6-1.9-3.5-1.9h-11.7c-0.9,0-1.8,0.2-2.5,0.6
		c-0.4,0.2-0.7,0.4-0.8,0.7C418,260.9,419.8,260.9,420.1,260.9L420.1,260.9z"/>
	<path class="st38" d="M429,268.6c-0.5,0.1-0.8,0.1-1.1-0.1c-0.3-0.2-1.7-1.6-2.4-2.3c-1.3,0.2-3.7,0.5-4.4,0.6
		c-0.4,0.1-0.9,0-1.1-0.3c-0.1-0.1-2.1-2.4-3.3-3.9v5.3c0,1,1.6,1.9,3.5,1.9h11.7c1.9,0,3.5-0.9,3.5-1.9v-0.6
		C434,267.6,429.3,268.5,429,268.6L429,268.6z"/>
	<path class="st38" d="M421.1,266.3c0.2,0,3.8-0.5,3.8-0.5c0.1,0,0.1,0,0-0.1l-4.8-4.4c0,0,0-0.1-0.1-0.1c-0.1,0-2.8,0.1-3.4,0.2
		c0,0.1,0,0.1,0,0.2c0.6,0.7,4.2,4.7,4.2,4.7C420.9,266.3,420.9,266.3,421.1,266.3L421.1,266.3z"/>
	<line class="st39" x1="373.9" y1="227.6" x2="422.9" y2="227.6"/>
	<line class="st39" x1="373.9" y1="229.9" x2="405.2" y2="229.9"/>
	<line class="st40" x1="359.3" y1="240.9" x2="408.3" y2="240.9"/>
	<line class="st39" x1="359.3" y1="243.3" x2="390.6" y2="243.3"/>
	<line class="st39" x1="384.3" y1="245.7" x2="402.6" y2="245.7"/>
	<line class="st41" x1="359.3" y1="245.7" x2="381.2" y2="245.7"/>
	<line class="st40" x1="359.3" y1="248.2" x2="378.1" y2="248.2"/>
	<path class="st42" d="M361.4,252.8c-1.2,0-2.1,0.5-2.1,1.1c0,0.6,0.9,1.1,2.1,1.1h42v-2.3H361.4z"/>
	<path class="st27" d="M361.4,252.8h65.7c1.2,0,2.1,0.5,2.1,1.1l0,0c0,0.6-0.9,1.1-2.1,1.1h-65.7c-1.2,0-2.1-0.5-2.1-1.1l0,0
		C359.3,253.3,360.3,252.8,361.4,252.8z"/>
	<path class="st18" d="M321.4,282.3h142.5c0.6,0,1.2,0.3,1.2,0.6v2.4c0,0.4-0.5,0.6-1.2,0.6H321.4c-0.6,0-1.2-0.3-1.2-0.6v-2.4
		C320.2,282.5,320.8,282.3,321.4,282.3z"/>
	<rect x="320.2" y="282.3" class="st9" width="144.9" height="3.7"/>
	<path class="st20" d="M455.2,291.3h8.3c0.9,0,1.6,0.4,1.6,0.8v1.7c0,0.5-0.7,0.8-1.6,0.8h-8.3c-0.9,0-1.6-0.4-1.6-0.8v-1.7
		C453.6,291.7,454.3,291.3,455.2,291.3z"/>
	<path class="st20" d="M438.5,291.3h8.3c0.9,0,1.6,0.4,1.6,0.8v1.7c0,0.5-0.7,0.8-1.6,0.8h-8.3c-0.9,0-1.6-0.4-1.6-0.8v-1.7
		C437,291.7,437.7,291.3,438.5,291.3z"/>
	<path class="st20" d="M421.9,291.3h8.3c0.9,0,1.6,0.4,1.6,0.8v1.7c0,0.5-0.7,0.8-1.6,0.8h-8.3c-0.9,0-1.6-0.4-1.6-0.8v-1.7
		C420.3,291.7,421,291.3,421.9,291.3z"/>
	<path class="st20" d="M405.2,291.3h8.3c0.9,0,1.6,0.4,1.6,0.8v1.7c0,0.5-0.7,0.8-1.6,0.8h-8.3c-0.9,0-1.6-0.4-1.6-0.8v-1.7
		C403.6,291.7,404.3,291.3,405.2,291.3z"/>
	<path class="st20" d="M388.5,291.3h8.3c0.9,0,1.6,0.4,1.6,0.8v1.7c0,0.5-0.7,0.8-1.6,0.8h-8.3c-0.9,0-1.6-0.4-1.6-0.8v-1.7
		C386.9,291.7,387.6,291.3,388.5,291.3z"/>
	<path class="st20" d="M371.8,291.3h8.3c0.9,0,1.6,0.4,1.6,0.8v1.7c0,0.5-0.7,0.8-1.6,0.8h-8.3c-0.9,0-1.6-0.4-1.6-0.8v-1.7
		C370.3,291.7,371,291.3,371.8,291.3z"/>
	<path class="st20" d="M355.1,291.3h8.3c0.9,0,1.6,0.4,1.6,0.8v1.7c0,0.5-0.7,0.8-1.6,0.8h-8.3c-0.9,0-1.6-0.4-1.6-0.8v-1.7
		C353.6,291.7,354.3,291.3,355.1,291.3z"/>
	<path class="st20" d="M338.5,291.3h8.3c0.9,0,1.6,0.4,1.6,0.8v1.7c0,0.5-0.7,0.8-1.6,0.8h-8.3c-0.9,0-1.6-0.4-1.6-0.8v-1.7
		C336.9,291.7,337.6,291.3,338.5,291.3z"/>
	<path class="st20" d="M321.8,291.3h8.3c0.9,0,1.6,0.4,1.6,0.8v1.7c0,0.5-0.7,0.8-1.6,0.8h-8.3c-0.9,0-1.6-0.4-1.6-0.8v-1.7
		C320.2,291.7,320.9,291.3,321.8,291.3z"/>
	<path class="st20" d="M421.9,298.4h8.3c0.9,0,1.6,0.4,1.6,0.8v4.5c0,0.5-0.7,0.8-1.6,0.8h-8.3c-0.9,0-1.6-0.4-1.6-0.8v-4.5
		C420.3,298.8,421,298.4,421.9,298.4z"/>
	<path class="st20" d="M405.2,298.4h8.3c0.9,0,1.6,0.4,1.6,0.8v4.5c0,0.5-0.7,0.8-1.6,0.8h-8.3c-0.9,0-1.6-0.4-1.6-0.8v-4.5
		C403.6,298.8,404.3,298.4,405.2,298.4z"/>
	<path class="st20" d="M388.5,298.4h8.3c0.9,0,1.6,0.4,1.6,0.8v4.5c0,0.5-0.7,0.8-1.6,0.8h-8.3c-0.9,0-1.6-0.4-1.6-0.8v-4.5
		C386.9,298.8,387.6,298.4,388.5,298.4z"/>
	<path class="st20" d="M371.8,298.4h8.3c0.9,0,1.6,0.4,1.6,0.8v4.5c0,0.5-0.7,0.8-1.6,0.8h-8.3c-0.9,0-1.6-0.4-1.6-0.8v-4.5
		C370.3,298.8,371,298.4,371.8,298.4z"/>
	<path class="st20" d="M355.1,298.4h8.3c0.9,0,1.6,0.4,1.6,0.8v4.5c0,0.5-0.7,0.8-1.6,0.8h-8.3c-0.9,0-1.6-0.4-1.6-0.8v-4.5
		C353.6,298.8,354.3,298.4,355.1,298.4z"/>
	<path class="st20" d="M338.5,298.4h8.3c0.9,0,1.6,0.4,1.6,0.8v4.5c0,0.5-0.7,0.8-1.6,0.8h-8.3c-0.9,0-1.6-0.4-1.6-0.8v-4.5
		C336.9,298.8,337.6,298.4,338.5,298.4z"/>
	<path class="st20" d="M321.8,298.4h8.3c0.9,0,1.6,0.4,1.6,0.8v4.5c0,0.5-0.7,0.8-1.6,0.8h-8.3c-0.9,0-1.6-0.4-1.6-0.8v-4.5
		C320.2,298.8,320.9,298.4,321.8,298.4z"/>
	<path class="st20" d="M455.2,298.4h8.3c0.9,0,1.6,0.4,1.6,0.8v13.4c0,0.5-0.7,0.8-1.6,0.8h-8.3c-0.9,0-1.6-0.4-1.6-0.8v-13.4
		C453.6,298.8,454.3,298.4,455.2,298.4z"/>
	<path class="st20" d="M446.9,298.4h-8.3c-0.9,0-1.6,0.4-1.6,0.8v7.2c0,0.5-0.7,0.8-1.6,0.8h-13.5c-0.9,0-1.6,0.4-1.6,0.8v4.5
		c0,0.5,0.7,0.8,1.6,0.8h25c0.9,0,1.6-0.4,1.6-0.8v-13.4C448.4,298.8,447.7,298.4,446.9,298.4z"/>
	<path class="st20" d="M405.2,307.3h8.3c0.9,0,1.6,0.4,1.6,0.8v4.5c0,0.5-0.7,0.8-1.6,0.8h-8.3c-0.9,0-1.6-0.4-1.6-0.8v-4.5
		C403.6,307.7,404.3,307.3,405.2,307.3z"/>
	<path class="st20" d="M388.5,307.3h8.3c0.9,0,1.6,0.4,1.6,0.8v4.5c0,0.5-0.7,0.8-1.6,0.8h-8.3c-0.9,0-1.6-0.4-1.6-0.8v-4.5
		C386.9,307.7,387.6,307.3,388.5,307.3z"/>
	<path class="st20" d="M371.8,307.3h8.3c0.9,0,1.6,0.4,1.6,0.8v4.5c0,0.5-0.7,0.8-1.6,0.8h-8.3c-0.9,0-1.6-0.4-1.6-0.8v-4.5
		C370.3,307.7,371,307.3,371.8,307.3z"/>
	<path class="st20" d="M355.1,307.3h8.3c0.9,0,1.6,0.4,1.6,0.8v4.5c0,0.5-0.7,0.8-1.6,0.8h-8.3c-0.9,0-1.6-0.4-1.6-0.8v-4.5
		C353.6,307.7,354.3,307.3,355.1,307.3z"/>
	<path class="st20" d="M321.8,307.3h25c0.9,0,1.6,0.4,1.6,0.8v4.5c0,0.5-0.7,0.8-1.6,0.8h-25c-0.9,0-1.6-0.4-1.6-0.8v-4.5
		C320.2,307.7,320.9,307.3,321.8,307.3z"/>
	<path class="st20" d="M455.2,316.2h8.3c0.9,0,1.6,0.4,1.6,0.8v4.5c0,0.5-0.7,0.8-1.6,0.8h-8.3c-0.9,0-1.6-0.4-1.6-0.8V317
		C453.6,316.6,454.3,316.2,455.2,316.2z"/>
	<path class="st20" d="M438.5,316.2h8.3c0.9,0,1.6,0.4,1.6,0.8v4.5c0,0.5-0.7,0.8-1.6,0.8h-8.3c-0.9,0-1.6-0.4-1.6-0.8V317
		C437,316.6,437.7,316.2,438.5,316.2z"/>
	<path class="st20" d="M421.9,316.2h8.3c0.9,0,1.6,0.4,1.6,0.8v4.5c0,0.5-0.7,0.8-1.6,0.8h-8.3c-0.9,0-1.6-0.4-1.6-0.8V317
		C420.3,316.6,421,316.2,421.9,316.2z"/>
	<path class="st20" d="M371.8,316.2h41.7c0.9,0,1.6,0.4,1.6,0.8v4.5c0,0.5-0.7,0.8-1.6,0.8h-41.7c-0.9,0-1.6-0.4-1.6-0.8V317
		C370.3,316.6,371,316.2,371.8,316.2z"/>
	<path class="st20" d="M355.1,316.2h8.3c0.9,0,1.6,0.4,1.6,0.8v4.5c0,0.5-0.7,0.8-1.6,0.8h-8.3c-0.9,0-1.6-0.4-1.6-0.8V317
		C353.6,316.6,354.3,316.2,355.1,316.2z"/>
	<path class="st20" d="M338.5,316.2h8.3c0.9,0,1.6,0.4,1.6,0.8v4.5c0,0.5-0.7,0.8-1.6,0.8h-8.3c-0.9,0-1.6-0.4-1.6-0.8V317
		C336.9,316.6,337.6,316.2,338.5,316.2z"/>
	<path class="st20" d="M321.8,316.2h8.3c0.9,0,1.6,0.4,1.6,0.8v4.5c0,0.5-0.7,0.8-1.6,0.8h-8.3c-0.9,0-1.6-0.4-1.6-0.8V317
		C320.2,316.6,320.9,316.2,321.8,316.2z"/>
	<path class="st9" d="M455.2,291.3h8.3c0.9,0,1.6,0.4,1.6,0.8v1.7c0,0.5-0.7,0.8-1.6,0.8h-8.3c-0.9,0-1.6-0.4-1.6-0.8v-1.7
		C453.6,291.7,454.3,291.3,455.2,291.3z"/>
	<path class="st9" d="M438.5,291.3h8.3c0.9,0,1.6,0.4,1.6,0.8v1.7c0,0.5-0.7,0.8-1.6,0.8h-8.3c-0.9,0-1.6-0.4-1.6-0.8v-1.7
		C437,291.7,437.7,291.3,438.5,291.3z"/>
	<path class="st9" d="M421.9,291.3h8.3c0.9,0,1.6,0.4,1.6,0.8v1.7c0,0.5-0.7,0.8-1.6,0.8h-8.3c-0.9,0-1.6-0.4-1.6-0.8v-1.7
		C420.3,291.7,421,291.3,421.9,291.3z"/>
	<path class="st9" d="M405.2,291.3h8.3c0.9,0,1.6,0.4,1.6,0.8v1.7c0,0.5-0.7,0.8-1.6,0.8h-8.3c-0.9,0-1.6-0.4-1.6-0.8v-1.7
		C403.6,291.7,404.3,291.3,405.2,291.3z"/>
	<path class="st9" d="M388.5,291.3h8.3c0.9,0,1.6,0.4,1.6,0.8v1.7c0,0.5-0.7,0.8-1.6,0.8h-8.3c-0.9,0-1.6-0.4-1.6-0.8v-1.7
		C386.9,291.7,387.6,291.3,388.5,291.3z"/>
	<path class="st9" d="M371.8,291.3h8.3c0.9,0,1.6,0.4,1.6,0.8v1.7c0,0.5-0.7,0.8-1.6,0.8h-8.3c-0.9,0-1.6-0.4-1.6-0.8v-1.7
		C370.3,291.7,371,291.3,371.8,291.3z"/>
	<path class="st9" d="M355.1,291.3h8.3c0.9,0,1.6,0.4,1.6,0.8v1.7c0,0.5-0.7,0.8-1.6,0.8h-8.3c-0.9,0-1.6-0.4-1.6-0.8v-1.7
		C353.6,291.7,354.3,291.3,355.1,291.3z"/>
	<path class="st9" d="M338.5,291.3h8.3c0.9,0,1.6,0.4,1.6,0.8v1.7c0,0.5-0.7,0.8-1.6,0.8h-8.3c-0.9,0-1.6-0.4-1.6-0.8v-1.7
		C336.9,291.7,337.6,291.3,338.5,291.3z"/>
	<path class="st9" d="M321.8,291.3h8.3c0.9,0,1.6,0.4,1.6,0.8v1.7c0,0.5-0.7,0.8-1.6,0.8h-8.3c-0.9,0-1.6-0.4-1.6-0.8v-1.7
		C320.2,291.7,320.9,291.3,321.8,291.3z"/>
	<path class="st9" d="M421.9,298.4h8.3c0.9,0,1.6,0.4,1.6,0.8v4.5c0,0.5-0.7,0.8-1.6,0.8h-8.3c-0.9,0-1.6-0.4-1.6-0.8v-4.5
		C420.3,298.8,421,298.4,421.9,298.4z"/>
	<path class="st9" d="M405.2,298.4h8.3c0.9,0,1.6,0.4,1.6,0.8v4.5c0,0.5-0.7,0.8-1.6,0.8h-8.3c-0.9,0-1.6-0.4-1.6-0.8v-4.5
		C403.6,298.8,404.3,298.4,405.2,298.4z"/>
	<path class="st9" d="M388.5,298.4h8.3c0.9,0,1.6,0.4,1.6,0.8v4.5c0,0.5-0.7,0.8-1.6,0.8h-8.3c-0.9,0-1.6-0.4-1.6-0.8v-4.5
		C386.9,298.8,387.6,298.4,388.5,298.4z"/>
	<path class="st9" d="M371.8,298.4h8.3c0.9,0,1.6,0.4,1.6,0.8v4.5c0,0.5-0.7,0.8-1.6,0.8h-8.3c-0.9,0-1.6-0.4-1.6-0.8v-4.5
		C370.3,298.8,371,298.4,371.8,298.4z"/>
	<path class="st9" d="M355.1,298.4h8.3c0.9,0,1.6,0.4,1.6,0.8v4.5c0,0.5-0.7,0.8-1.6,0.8h-8.3c-0.9,0-1.6-0.4-1.6-0.8v-4.5
		C353.6,298.8,354.3,298.4,355.1,298.4z"/>
	<path class="st9" d="M338.5,298.4h8.3c0.9,0,1.6,0.4,1.6,0.8v4.5c0,0.5-0.7,0.8-1.6,0.8h-8.3c-0.9,0-1.6-0.4-1.6-0.8v-4.5
		C336.9,298.8,337.6,298.4,338.5,298.4z"/>
	<path class="st9" d="M321.8,298.4h8.3c0.9,0,1.6,0.4,1.6,0.8v4.5c0,0.5-0.7,0.8-1.6,0.8h-8.3c-0.9,0-1.6-0.4-1.6-0.8v-4.5
		C320.2,298.8,320.9,298.4,321.8,298.4z"/>
	<path class="st9" d="M455.2,298.4h8.3c0.9,0,1.6,0.4,1.6,0.8v13.4c0,0.5-0.7,0.8-1.6,0.8h-8.3c-0.9,0-1.6-0.4-1.6-0.8v-13.4
		C453.6,298.8,454.3,298.4,455.2,298.4z"/>
	<path class="st9" d="M446.9,298.4h-8.3c-0.9,0-1.6,0.4-1.6,0.8v7.2c0,0.5-0.7,0.8-1.6,0.8h-13.5c-0.9,0-1.6,0.4-1.6,0.8v4.5
		c0,0.5,0.7,0.8,1.6,0.8h25c0.9,0,1.6-0.4,1.6-0.8v-13.4C448.4,298.8,447.7,298.4,446.9,298.4z"/>
	<path class="st9" d="M405.2,307.3h8.3c0.9,0,1.6,0.4,1.6,0.8v4.5c0,0.5-0.7,0.8-1.6,0.8h-8.3c-0.9,0-1.6-0.4-1.6-0.8v-4.5
		C403.6,307.7,404.3,307.3,405.2,307.3z"/>
	<path class="st9" d="M388.5,307.3h8.3c0.9,0,1.6,0.4,1.6,0.8v4.5c0,0.5-0.7,0.8-1.6,0.8h-8.3c-0.9,0-1.6-0.4-1.6-0.8v-4.5
		C386.9,307.7,387.6,307.3,388.5,307.3z"/>
	<path class="st9" d="M371.8,307.3h8.3c0.9,0,1.6,0.4,1.6,0.8v4.5c0,0.5-0.7,0.8-1.6,0.8h-8.3c-0.9,0-1.6-0.4-1.6-0.8v-4.5
		C370.3,307.7,371,307.3,371.8,307.3z"/>
	<path class="st9" d="M355.1,307.3h8.3c0.9,0,1.6,0.4,1.6,0.8v4.5c0,0.5-0.7,0.8-1.6,0.8h-8.3c-0.9,0-1.6-0.4-1.6-0.8v-4.5
		C353.6,307.7,354.3,307.3,355.1,307.3z"/>
	<path class="st9" d="M321.8,307.3h25c0.9,0,1.6,0.4,1.6,0.8v4.5c0,0.5-0.7,0.8-1.6,0.8h-25c-0.9,0-1.6-0.4-1.6-0.8v-4.5
		C320.2,307.7,320.9,307.3,321.8,307.3z"/>
	<path class="st9" d="M455.2,316.2h8.3c0.9,0,1.6,0.4,1.6,0.8v4.5c0,0.5-0.7,0.8-1.6,0.8h-8.3c-0.9,0-1.6-0.4-1.6-0.8V317
		C453.6,316.6,454.3,316.2,455.2,316.2z"/>
	<path class="st9" d="M438.5,316.2h8.3c0.9,0,1.6,0.4,1.6,0.8v4.5c0,0.5-0.7,0.8-1.6,0.8h-8.3c-0.9,0-1.6-0.4-1.6-0.8V317
		C437,316.6,437.7,316.2,438.5,316.2z"/>
	<path class="st9" d="M421.9,316.2h8.3c0.9,0,1.6,0.4,1.6,0.8v4.5c0,0.5-0.7,0.8-1.6,0.8h-8.3c-0.9,0-1.6-0.4-1.6-0.8V317
		C420.3,316.6,421,316.2,421.9,316.2z"/>
	<path class="st9" d="M371.8,316.2h41.7c0.9,0,1.6,0.4,1.6,0.8v4.5c0,0.5-0.7,0.8-1.6,0.8h-41.7c-0.9,0-1.6-0.4-1.6-0.8V317
		C370.3,316.6,371,316.2,371.8,316.2z"/>
	<path class="st9" d="M355.1,316.2h8.3c0.9,0,1.6,0.4,1.6,0.8v4.5c0,0.5-0.7,0.8-1.6,0.8h-8.3c-0.9,0-1.6-0.4-1.6-0.8V317
		C353.6,316.6,354.3,316.2,355.1,316.2z"/>
	<path class="st9" d="M338.5,316.2h8.3c0.9,0,1.6,0.4,1.6,0.8v4.5c0,0.5-0.7,0.8-1.6,0.8h-8.3c-0.9,0-1.6-0.4-1.6-0.8V317
		C336.9,316.6,337.6,316.2,338.5,316.2z"/>
	<path class="st9" d="M321.8,316.2h8.3c0.9,0,1.6,0.4,1.6,0.8v4.5c0,0.5-0.7,0.8-1.6,0.8h-8.3c-0.9,0-1.6-0.4-1.6-0.8V317
		C320.2,316.6,320.9,316.2,321.8,316.2z"/>
	<rect x="331.3" y="342.5" class="st43" width="22.9" height="11.3"/>
	<rect x="331.3" y="342.5" class="st9" width="22.9" height="11.3"/>
	<rect x="328.9" y="351.2" class="st3" width="27" height="7.2"/>
	<rect x="328.9" y="351.2" class="st9" width="27" height="7.2"/>
	<path class="st17" d="M327.9,358.2H357c1.9,0,3.4,0.8,3.4,1.8v32.9l0,0h-35.8l0,0v-32.9C324.5,359,326,358.2,327.9,358.2z"/>
	<path class="st9" d="M327.9,358.2H357c1.9,0,3.4,0.8,3.4,1.8v32.9l0,0h-35.8l0,0v-32.9C324.5,359,326,358.2,327.9,358.2z"/>
	<ellipse class="st44" cx="351.1" cy="354.8" rx="2.6" ry="1.4"/>
	<ellipse class="st9" cx="351.1" cy="354.8" rx="2.6" ry="1.4"/>
	<path class="st43" d="M370.9,327.9l0.7,0.2c1.5,0.5,2,1.5,1.1,2.3l-13.3,12.4l0,0l-6.1-1.9l0,0l13.3-12.4
		C367.4,327.7,369.4,327.4,370.9,327.9z"/>
	<path class="st9" d="M370.9,327.9l0.7,0.2c1.5,0.5,2,1.5,1.1,2.3l-13.3,12.4l0,0l-6.1-1.9l0,0l13.3-12.4
		C367.4,327.7,369.4,327.4,370.9,327.9z"/>
	<path class="st45" d="M358,310.3h-0.8c-1.7,0-3.1,0.8-3.1,1.7v12.7c0,0.5-0.7,0.8-1.6,0.8l0,0c-0.9,0-1.6-0.4-1.6-0.8v-15.1
		c0-0.9-1.4-1.7-3.1-1.7h-0.8c-1.7,0-3.1,0.8-3.1,1.7v15.1c0,0.5-0.7,0.8-1.6,0.8l0,0c-0.9,0-1.6-0.4-1.6-0.8V312
		c0-0.9-1.4-1.7-3.1-1.7h-0.8c-1.7,0-3.1,0.8-3.1,1.7v12.7c0,0.5-0.7,0.8-1.6,0.8l0,0c-0.9,0-1.6-0.4-1.6-0.8V316
		c0-0.9-1.4-1.7-3.1-1.7h-0.8c-1.7,0-3.1,0.8-3.1,1.7v24.9c0,1.9,2.8,3.4,6.3,3.4h25c3.5,0,6.3-1.5,6.3-3.4V312
		C361.2,311.1,359.8,310.3,358,310.3C358,310.3,358,310.3,358,310.3z"/>
	<path class="st9" d="M358,310.3h-0.8c-1.7,0-3.1,0.8-3.1,1.7v12.7c0,0.5-0.7,0.8-1.6,0.8l0,0c-0.9,0-1.6-0.4-1.6-0.8v-15.1
		c0-0.9-1.4-1.7-3.1-1.7h-0.8c-1.7,0-3.1,0.8-3.1,1.7v15.1c0,0.5-0.7,0.8-1.6,0.8l0,0c-0.9,0-1.6-0.4-1.6-0.8V312
		c0-0.9-1.4-1.7-3.1-1.7h-0.8c-1.7,0-3.1,0.8-3.1,1.7v12.7c0,0.5-0.7,0.8-1.6,0.8l0,0c-0.9,0-1.6-0.4-1.6-0.8V316
		c0-0.9-1.4-1.7-3.1-1.7h-0.8c-1.7,0-3.1,0.8-3.1,1.7v24.9c0,1.9,2.8,3.4,6.3,3.4h25c3.5,0,6.3-1.5,6.3-3.4V312
		C361.2,311.1,359.8,310.3,358,310.3C358,310.3,358,310.3,358,310.3z"/>
	<rect x="387.7" y="367.4" class="st43" width="22.9" height="11.3"/>
	<rect x="387.7" y="367.4" class="st9" width="22.9" height="11.3"/>
	<path class="st43" d="M387.7,365.8l-6.1,1.9l0,0l-13.3-12.4c-0.9-0.8-0.4-1.8,1.1-2.3l0,0l0.7-0.2c1.5-0.5,3.4-0.2,4.3,0.6l0,0
		L387.7,365.8L387.7,365.8z"/>
	<path class="st9" d="M387.7,365.8l-6.1,1.9l0,0l-13.3-12.4c-0.9-0.8-0.4-1.8,1.1-2.3l0,0l0.7-0.2c1.5-0.5,3.4-0.2,4.3,0.6l0,0
		L387.7,365.8L387.7,365.8z"/>
	<path class="st45" d="M383.5,335.2h0.8c1.7,0,3.1,0.8,3.1,1.7v12.7c0,0.5,0.7,0.8,1.6,0.8l0,0c0.9,0,1.6-0.4,1.6-0.8v-2
		c0-0.9,1.4-1.7,3.1-1.7h0.8c1.7,0,3.1,0.8,3.1,1.7v2c0,0.5,0.7,0.8,1.6,0.8l0,0c0.9,0,1.6-0.4,1.6-0.8v-2c0-0.9,1.4-1.7,3.1-1.7
		h0.8c1.7,0,3.1,0.8,3.1,1.7v2c0,0.5,0.7,0.8,1.6,0.8l0,0c0.9,0,1.6-0.4,1.6-0.8v-2c0-0.9,1.4-1.7,3.1-1.7h0.8
		c1.7,0,3.1,0.8,3.1,1.7v18.2c0,1.9-2.8,3.4-6.3,3.4l0,0h-25c-3.5,0-6.3-1.5-6.3-3.4l0,0v-28.9C380.4,336,381.8,335.2,383.5,335.2
		C383.5,335.2,383.5,335.2,383.5,335.2z"/>
	<path class="st9" d="M383.5,335.2h0.8c1.7,0,3.1,0.8,3.1,1.7v12.7c0,0.5,0.7,0.8,1.6,0.8l0,0c0.9,0,1.6-0.4,1.6-0.8v-2
		c0-0.9,1.4-1.7,3.1-1.7h0.8c1.7,0,3.1,0.8,3.1,1.7v2c0,0.5,0.7,0.8,1.6,0.8l0,0c0.9,0,1.6-0.4,1.6-0.8v-2c0-0.9,1.4-1.7,3.1-1.7
		h0.8c1.7,0,3.1,0.8,3.1,1.7v2c0,0.5,0.7,0.8,1.6,0.8l0,0c0.9,0,1.6-0.4,1.6-0.8v-2c0-0.9,1.4-1.7,3.1-1.7h0.8
		c1.7,0,3.1,0.8,3.1,1.7v18.2c0,1.9-2.8,3.4-6.3,3.4l0,0h-25c-3.5,0-6.3-1.5-6.3-3.4l0,0v-28.9C380.4,336,381.8,335.2,383.5,335.2
		C383.5,335.2,383.5,335.2,383.5,335.2z"/>
	<rect x="385.7" y="376.1" class="st3" width="27" height="7.2"/>
	<rect x="385.7" y="376.1" class="st9" width="27" height="7.2"/>
	<path class="st17" d="M384.6,383.1h29.1c1.9,0,3.4,0.8,3.4,1.8v8.5l0,0h-35.8l0,0v-8.5C381.3,383.9,382.8,383.1,384.6,383.1z"/>
	<path class="st9" d="M384.6,383.1h29.1c1.9,0,3.4,0.8,3.4,1.8v8.5l0,0h-35.8l0,0v-8.5C381.3,383.9,382.8,383.1,384.6,383.1z"/>
	<ellipse class="st9" cx="391.4" cy="379.7" rx="2.6" ry="1.4"/>
	<ellipse class="st44" cx="391.4" cy="379.7" rx="2.6" ry="1.4"/>
	<line class="st46" x1="400.2" y1="169.4" x2="428.4" y2="169.4"/>
	<line class="st46" x1="400.2" y1="173.2" x2="422.1" y2="173.2"/>
	<line class="st46" x1="400.2" y1="177" x2="412.7" y2="177"/>
	<line class="st46" x1="437.9" y1="153.5" x2="451.9" y2="153.5"/>
	<line class="st46" x1="437.9" y1="155.4" x2="446.7" y2="155.4"/>
	<path class="st46" d="M390,178.4"/>
	<path class="st46" d="M395,211.8"/>
	<line class="st9" x1="437.5" y1="173.5" x2="439.1" y2="173.5"/>
	<path class="st47" d="M443.2,173.5h11.6c11.4,0,20.7,5,20.7,11.2c0,0,0,0,0,0l0,0c0,6.2-9.3,11.2-20.7,11.2h-34.2
		c-12.9,0-23.3,5.6-23.3,12.6c0,0,0,0,0,0v1.4"/>
	<line class="st9" x1="397.4" y1="211" x2="397.4" y2="211.8"/>
	<line class="st48" x1="243.6" y1="243.4" x2="309" y2="243.4"/>
	<path class="st9" d="M241.9,307.3h13.7c13,0,23.5-5.7,23.5-12.7v0v-5.3c0-7,10.5-12.6,23.4-12.6h7.4"/>
	<path class="st48" d="M311.3,174.4h7.1c10.3,0,18.6,4.5,18.6,10l0,0c0,5.5,8.3,10,18.6,10c0,0,0,0,0,0h10.3
		c10.3,0,18.6,4.5,18.6,10v7.3"/>
	<path class="st9" d="M475.5,241.4"/>
	<line class="st48" x1="475.5" y1="258.5" x2="573.6" y2="258.5"/>
	<path class="st48" d="M475.5,323.5"/>
	<ellipse class="st8" cx="479.4" cy="151.9" rx="3.9" ry="2.1"/>
	<ellipse class="st9" cx="479.4" cy="151.9" rx="3.9" ry="2.1"/>
	<path class="st49" d="M212,180.1h55.6c3.1,0,5.6,1.4,5.6,3v8.6c0,1.7-2.5,3-5.6,3H212c-3.1,0-5.6-1.4-5.6-3v-8.6
		C206.3,181.4,208.9,180.1,212,180.1z"/>
	<path class="st9" d="M212,180.1h55.6c3.1,0,5.6,1.4,5.6,3v8.6c0,1.7-2.5,3-5.6,3H212c-3.1,0-5.6-1.4-5.6-3v-8.6
		C206.3,181.4,208.9,180.1,212,180.1z"/>
	<path class="st3" d="M222.8,190.7v-2.9h-6.4v2.9h-2.2v-6.7h2.2v2.7h6.4v-2.7h2.2v6.7H222.8z"/>
	<path class="st3" d="M231.9,190.7v-5.6h-3.7v-1h9.6v1h-3.7v5.6H231.9z"/>
	<path class="st3" d="M251.7,190.7v-5.1l-3.8,5.1H247l-3.8-5.1v5.1H241v-6.7h3l3.4,4.6l3.3-4.6h3v6.7H251.7z"/>
	<path class="st3" d="M257.7,190.7v-6.7h2.2v5.6h5.4v1H257.7z"/>
</g>
</svg>
