<?xml version="1.0" encoding="utf-8"?>
<!-- Generator: Adobe Illustrator 23.0.3, SVG Export Plug-In . SVG Version: 6.00 Build 0)  -->
<svg version="1.1" id="Layer_1" xmlns="http://www.w3.org/2000/svg" xmlns:xlink="http://www.w3.org/1999/xlink" x="0px" y="0px"
	 viewBox="0 0 1001 1003" style="enable-background:new 0 0 1001 1003;" xml:space="preserve">
<style type="text/css">
	.st0{fill:#2AA1FF;stroke:#1E223B;stroke-miterlimit:10;}
	.st1{opacity:0.39;}
	.st2{fill:#FFFFFF;}
	.st3{opacity:0.39;fill:#FFFFFF;enable-background:new    ;}
	.st4{fill:none;stroke:#1E223B;stroke-width:2;stroke-linecap:round;stroke-linejoin:round;}
	.st5{fill:#028B9E;stroke:#1E223B;stroke-width:2;stroke-linecap:round;stroke-linejoin:round;}
	
		.st6{opacity:0.4;fill:#028B9E;stroke:#1E223B;stroke-width:2;stroke-linecap:round;stroke-linejoin:round;enable-background:new    ;}
	.st7{opacity:0.11;fill:#161616;stroke:#1E223B;stroke-miterlimit:10;enable-background:new    ;}
	.st8{fill:#2F4584;}
	.st9{opacity:0.15;fill:#1E223B;stroke:#1E223B;stroke-width:2;stroke-miterlimit:11;enable-background:new    ;}
	.st10{fill:#F58F7C;stroke:#1E223B;stroke-miterlimit:10;}
	.st11{opacity:0.1;}
	.st12{fill:#1E223B;}
	.st13{fill:#263C72;}
	.st14{fill:#EFEFEF;}
	.st15{fill:#363D56;}
	.st16{fill:#424960;}
	.st17{fill:#F73E39;}
	.st18{fill:#383838;}
	.st19{fill:#C6C6C6;}
	.st20{opacity:0.28;fill:#8289A3;enable-background:new    ;}
	.st21{opacity:0.32;}
	.st22{fill:none;stroke:#1E223B;stroke-linecap:round;stroke-linejoin:round;}
	.st23{opacity:0.5;fill:#FFFFFF;enable-background:new    ;}
	.st24{fill:#DD4814;}
	.st25{fill:#777BB4;}
	.st26{opacity:0.88;fill:#FF5855;stroke:#1E223B;stroke-miterlimit:10;enable-background:new    ;}
	.st27{fill:#0270BB;}
	.st28{opacity:0.59;fill:#FFFFFF;enable-background:new    ;}
	.st29{opacity:0.32;fill:#FFFFFF;enable-background:new    ;}
	.st30{opacity:0.12;fill:#0270BB;enable-background:new    ;}
	.st31{opacity:0.47;fill:#0270BB;enable-background:new    ;}
	.st32{fill:#FFFFFF;stroke:#1E223B;stroke-width:2;stroke-linecap:round;stroke-linejoin:round;}
	.st33{fill:#F35045;}
	
		.st34{opacity:0.32;fill:none;stroke:#1E223B;stroke-width:2;stroke-linecap:round;stroke-linejoin:round;enable-background:new    ;}
	
		.st35{opacity:0.15;fill:none;stroke:#1E223B;stroke-width:2;stroke-linecap:round;stroke-linejoin:round;enable-background:new    ;}
	
		.st36{opacity:0.26;fill:none;stroke:#1E223B;stroke-width:2;stroke-linecap:round;stroke-linejoin:round;enable-background:new    ;}
	.st37{fill:#4AD3A5;stroke:#1E223B;stroke-miterlimit:10;}
	.st38{fill:#F2A197;}
	.st39{opacity:0.2;fill:#1E223B;enable-background:new    ;}
	.st40{fill:#FDB3A6;}
	.st41{fill:none;stroke:#1E223B;stroke-width:3;stroke-linecap:round;stroke-linejoin:round;}
	.st42{fill:none;stroke:#1E223B;stroke-width:2;stroke-linecap:round;stroke-linejoin:round;stroke-dasharray:5.9537,7.9382;}
	.st43{fill:none;stroke:#1E223B;stroke-width:2;stroke-linecap:round;stroke-linejoin:round;stroke-dasharray:6,8;}
	.st44{fill:#E44D26;stroke:#1E223B;stroke-width:2;stroke-miterlimit:10;}
</style>
<title>112-installing</title>
<g>
	<rect x="0.5" y="0.5" class="st0" width="1000" height="1000"/>
	<g class="st1">
		<circle class="st2" cx="178.1" cy="460.7" r="20.4"/>
		<circle class="st2" cx="178.1" cy="460.7" r="8.7"/>
		<path class="st2" d="M209.9,431.5l-12.6,7.3l0,0c-0.9-0.8-1.9-1.5-2.9-2.2l0,0l3.8-14.1c0.6-2.3-0.8-4.7-3.1-5.4l-9.8-2.6
			c-2.3-0.6-4.7,0.8-5.4,3.1l-3.8,14.1h0c-1.2,0.1-2.4,0.2-3.6,0.5l0,0l-7.3-12.6c-1.2-2.1-3.9-2.8-6-1.6c0,0,0,0,0,0l-8.8,5.1
			c-2.1,1.2-2.8,3.9-1.6,6c0,0,0,0,0,0l7.3,12.6l0,0c-0.8,0.9-1.5,1.9-2.2,2.9l0,0l-14.1-3.8c-2.3-0.6-4.7,0.8-5.4,3.1l-2.6,9.8
			c-0.6,2.3,0.8,4.7,3.1,5.4l14.1,3.8l0,0c0.1,1.2,0.2,2.4,0.5,3.6l0,0l-12.6,7.3c-2.1,1.2-2.8,3.9-1.6,6l5.1,8.8
			c1.2,2.1,3.9,2.8,6,1.6c0,0,0,0,0,0l12.6-7.3l0,0c0.9,0.8,1.9,1.6,2.9,2.3l-0.1,0l-3.8,14.1c-0.6,2.3,0.8,4.7,3.1,5.4l9.8,2.6
			c2.3,0.6,4.7-0.8,5.4-3.1l3.8-14.1l-0.1,0c1.2-0.1,2.5-0.2,3.7-0.5l-0.1,0l7.3,12.6c1.2,2.1,3.9,2.8,6,1.6c0,0,0,0,0,0l8.8-5.1
			c2.1-1.2,2.8-3.9,1.6-6l-7.3-12.6l-0.1,0c0.8-0.9,1.6-1.9,2.3-3l0,0.1l14.1,3.8c2.3,0.6,4.7-0.8,5.4-3.1c0,0,0,0,0,0l2.6-9.8
			c0.6-2.3-0.8-4.7-3.1-5.4c0,0,0,0,0,0l-14.1-3.8l0,0.1c-0.1-1.2-0.2-2.5-0.5-3.7l0,0l12.6-7.3c2.1-1.2,2.8-3.9,1.6-6l-5.1-8.8
			C214.6,431,212,430.3,209.9,431.5z"/>
	</g>
	<circle class="st3" cx="302.7" cy="222.9" r="51.5"/>
	<polygon class="st4" points="302,223.4 329.9,207.2 329.8,237.5 302,253.7 	"/>
	<polygon class="st4" points="275.7,208.2 303.5,192 329.9,207.2 302,223.4 	"/>
	<polygon class="st5" points="275.7,208.2 303.5,192 329.9,207.2 302,223.4 	"/>
	<polygon class="st6" points="302,223.4 302,253.7 275.6,238.5 275.7,208.2 	"/>
	<polygon class="st4" points="302,223.4 302,253.7 275.6,238.5 275.7,208.2 	"/>
	<circle class="st4" cx="302.7" cy="222.9" r="51.5"/>
	<path class="st7" d="M379.5,623.7h282c9.9,0,18,8.1,18,18v202c0,9.9-8.1,18-18,18h-282c-9.9,0-18-8.1-18-18v-202
		C361.5,631.8,369.6,623.7,379.5,623.7z"/>
	<path class="st7" d="M368.5,609.7h304c3.9,0,7,3.1,7,7l0,0c0,3.9-3.1,7-7,7h-304c-3.9,0-7-3.1-7-7l0,0
		C361.5,612.9,364.6,609.7,368.5,609.7z"/>
	<path class="st8" d="M369.5,615.7h282c9.9,0,18,8.1,18,18v202c0,9.9-8.1,18-18,18h-282c-9.9,0-18-8.1-18-18v-202
		C351.5,623.8,359.6,615.7,369.5,615.7z"/>
	<path class="st2" d="M369.5,615.7h282c9.9,0,18,8.1,18,18v196c0,9.9-8.1,18-18,18h-282c-9.9,0-18-8.1-18-18v-196
		C351.5,623.8,359.6,615.7,369.5,615.7z"/>
	<path class="st7" d="M558,833.6h-1.5c-3.3,0-6,2.7-6,6v7.2c0,1.7-1.3,3-3,3s-3-1.3-3-3v-7.2c0-3.3-2.7-6-6-6H537c-3.3,0-6,2.7-6,6
		v7.2c0,1.7-1.3,3-3,3s-3-1.3-3-3v-7.2c0-3.3-2.7-6-6-6h-1.5c-3.3,0-6,2.7-6,6v7.2c0,1.7-1.3,3-3,3s-3-1.3-3-3v-45c0-3.3-2.7-6-6-6
		H498c-3.3,0-6,2.7-6,6v78.4l-11.5-19.9c-1.7-2.9-5.3-3.9-8.2-2.2c0,0,0,0,0,0l-1.3,0.8c-2.9,1.7-3.9,5.3-2.2,8.2c0,0,0,0,0,0
		l24,41.6c1.8,4.6,6.2,7.6,11.2,7.6h2v24.7H502v24.9h-1.9c-3.6,0-6.5,2.9-6.5,6.5l0,0v30.3h68.8v-30.3c0-3.6-2.9-6.5-6.5-6.5h0H554
		v-24.9h-4v-24.7h2c6.6,0,12-5.4,12-12v-64.7C564,836.3,561.3,833.6,558,833.6z"/>
	<path class="st7" d="M443.1,829.7c6.2,0,11.4-4.7,11.9-10.9l22.1-38.3c1.7-2.9,0.7-6.5-2.2-8.2c0,0,0,0,0,0l-1.3-0.8
		c-2.9-1.7-6.5-0.7-8.2,2.2c0,0,0,0,0,0l-10.4,18v-76.5c0-3.3-2.7-6-6-6h-1.5c-3.3,0-6,2.7-6,6v45c0,1.7-1.3,3-3,3s-3-1.3-3-3v-53.7
		c0-3.3-2.7-6-6-6h-1.5c-3.3,0-6,2.7-6,6v53.7c0,1.7-1.3,3-3,3s-3-1.3-3-3v-45c0-3.3-2.7-6-6-6h-1.5c-3.3,0-6,2.7-6,6v45
		c0,1.7-1.3,3-3,3s-3-1.3-3-3v-30.8c0-3.3-2.7-6-6-6h-1.5c-3.3,0-6,2.7-6,6v88.2c0,6.6,5.4,12,12,12h2.6v24.7h-4.5v24.9h-1.9
		c-3.6,0-6.5,2.9-6.5,6.5v116.8h68.8V885.7c0-3.6-2.9-6.5-6.5-6.5H445v-24.9h-3.4v-24.7H443.1z"/>
	<path class="st9" d="M370,633.2h281c2.2,0,4,1.8,4,4v113c0,2.2-1.8,4-4,4H370c-2.2,0-4-1.8-4-4v-113C366,635,367.8,633.2,370,633.2
		z"/>
	<path class="st4" d="M369.5,615.7h282c9.9,0,18,8.1,18,18v196c0,9.9-8.1,18-18,18h-282c-9.9,0-18-8.1-18-18v-196
		C351.5,623.8,359.6,615.7,369.5,615.7z"/>
	<path class="st4" d="M369.5,615.7h282c9.9,0,18,8.1,18,18v202c0,9.9-8.1,18-18,18h-282c-9.9,0-18-8.1-18-18v-202
		C351.5,623.8,359.6,615.7,369.5,615.7z"/>
	<path class="st8" d="M369.5,383.7h282c9.9,0,18,8.1,18,18v196c0,9.9-8.1,18-18,18h-282c-9.9,0-18-8.1-18-18v-196
		C351.5,391.8,359.6,383.7,369.5,383.7z"/>
	<path class="st4" d="M369.5,383.7h282c9.9,0,18,8.1,18,18v196c0,9.9-8.1,18-18,18h-282c-9.9,0-18-8.1-18-18v-196
		C351.5,391.8,359.6,383.7,369.5,383.7z"/>
	<path class="st2" d="M663.5,401.7v196c0,6.6-5.4,12-12,12h-282c-6.6,0-12-5.4-12-12v-196c0-6.6,5.4-12,12-12h282
		C658.1,389.7,663.5,395.1,663.5,401.7z"/>
	<rect x="381.5" y="413.7" class="st10" width="258" height="172"/>
	<path class="st4" d="M663.5,401.7v196c0,6.6-5.4,12-12,12h-282c-6.6,0-12-5.4-12-12v-196c0-6.6,5.4-12,12-12h282
		C658.1,389.7,663.5,395.1,663.5,401.7z"/>
	<rect x="381.5" y="413.7" class="st4" width="258" height="172"/>
	<g class="st11">
		<path class="st12" d="M471.8,763.7h77.5c2.3,0,4.3,1.9,4.3,4.3v51.5c0,2.3-1.9,4.3-4.3,4.3h-77.5c-2.3,0-4.3-1.9-4.3-4.3V768
			C467.5,765.6,469.4,763.7,471.8,763.7z"/>
	</g>
	<path class="st4" d="M471.8,763.7h77.5c2.3,0,4.3,1.9,4.3,4.3v51.5c0,2.3-1.9,4.3-4.3,4.3h-77.5c-2.3,0-4.3-1.9-4.3-4.3V768
		C467.5,765.6,469.4,763.7,471.8,763.7z"/>
	<rect x="473" y="845.7" class="st13" width="76" height="8"/>
	<rect x="473" y="845.7" class="st4" width="76" height="8"/>
	<path class="st7" d="M423.5,359.7h188c3.3,0,6,2.7,6,6v212c0,3.3-2.7,6-6,6h-188c-3.3,0-6-2.7-6-6v-212
		C417.5,362.4,420.2,359.7,423.5,359.7z"/>
	<path class="st2" d="M418,355.7h188c3.3,0,6,2.7,6,6v212c0,3.3-2.7,6-6,6H418c-3.3,0-6-2.7-6-6v-212
		C412,358.4,414.7,355.7,418,355.7z"/>
	<path class="st14" d="M412,545.7h200l0,0v28c0,3.3-2.7,6-6,6H418c-3.3,0-6-2.7-6-6V545.7L412,545.7z"/>
	<path class="st4" d="M418,355.7h188c3.3,0,6,2.7,6,6v212c0,3.3-2.7,6-6,6H418c-3.3,0-6-2.7-6-6v-212
		C412,358.4,414.7,355.7,418,355.7z"/>
	<path class="st15" d="M417.4,355.7h189.1c3,0,5.4,2.4,5.4,5.4c0,0,0,0,0,0v12.6l0,0H412l0,0v-12.6
		C412,358.2,414.4,355.7,417.4,355.7C417.4,355.7,417.4,355.7,417.4,355.7z"/>
	<path class="st4" d="M417.4,355.7h189.1c3,0,5.4,2.4,5.4,5.4c0,0,0,0,0,0v12.6l0,0H412l0,0v-12.6
		C412,358.2,414.4,355.7,417.4,355.7C417.4,355.7,417.4,355.7,417.4,355.7z"/>
	<rect x="412" y="373.7" class="st16" width="200" height="8"/>
	<rect x="412" y="373.7" class="st4" width="200" height="8"/>
	<circle class="st17" cx="423.2" cy="364.7" r="3"/>
	<circle class="st4" cx="423.2" cy="364.7" r="3"/>
	<circle class="st18" cx="435.4" cy="364.7" r="3"/>
	<circle class="st4" cx="435.4" cy="364.7" r="3"/>
	<circle class="st19" cx="446.7" cy="364.7" r="3"/>
	<circle class="st4" cx="446.7" cy="364.7" r="3"/>
	<path class="st20" d="M463.5,361.7h62c1.7,0,3,1.3,3,3l0,0c0,1.7-1.3,3-3,3h-62c-1.7,0-3-1.3-3-3l0,0
		C460.5,363.1,461.8,361.7,463.5,361.7z"/>
	<circle class="st4" cx="178.1" cy="460.7" r="20.4"/>
	<circle class="st4" cx="178.1" cy="460.7" r="8.7"/>
	<path class="st4" d="M209.9,431.5l-12.6,7.3l0,0c-0.9-0.8-1.9-1.5-2.9-2.2l0,0l3.8-14.1c0.6-2.3-0.8-4.7-3.1-5.4l-9.8-2.6
		c-2.3-0.6-4.7,0.8-5.4,3.1l-3.8,14.1h0c-1.2,0.1-2.4,0.2-3.6,0.5l0,0l-7.3-12.6c-1.2-2.1-3.9-2.8-6-1.6c0,0,0,0,0,0l-8.8,5.1
		c-2.1,1.2-2.8,3.9-1.6,6c0,0,0,0,0,0l7.3,12.6l0,0c-0.8,0.9-1.5,1.9-2.2,2.9l0,0l-14.1-3.8c-2.3-0.6-4.7,0.8-5.4,3.1l-2.6,9.8
		c-0.6,2.3,0.8,4.7,3.1,5.4l14.1,3.8l0,0c0.1,1.2,0.2,2.4,0.5,3.6l0,0l-12.6,7.3c-2.1,1.2-2.8,3.9-1.6,6l5.1,8.8
		c1.2,2.1,3.9,2.8,6,1.6c0,0,0,0,0,0l12.6-7.3l0,0c0.9,0.8,1.9,1.6,2.9,2.3l-0.1,0l-3.8,14.1c-0.6,2.3,0.8,4.7,3.1,5.4l9.8,2.6
		c2.3,0.6,4.7-0.8,5.4-3.1l3.8-14.1l-0.1,0c1.2-0.1,2.5-0.2,3.7-0.5l-0.1,0l7.3,12.6c1.2,2.1,3.9,2.8,6,1.6c0,0,0,0,0,0l8.8-5.1
		c2.1-1.2,2.8-3.9,1.6-6l-7.3-12.6l-0.1,0c0.8-0.9,1.6-1.9,2.3-3l0,0.1l14.1,3.8c2.3,0.6,4.7-0.8,5.4-3.1c0,0,0,0,0,0l2.6-9.8
		c0.6-2.3-0.8-4.7-3.1-5.4c0,0,0,0,0,0l-14.1-3.8l0,0.1c-0.1-1.2-0.2-2.5-0.5-3.7l0,0l12.6-7.3c2.1-1.2,2.8-3.9,1.6-6l-5.1-8.8
		C214.6,431,212,430.3,209.9,431.5z"/>
	<g class="st21">
		<circle class="st22" cx="451.9" cy="415.3" r="7.7"/>
		<circle class="st22" cx="451.9" cy="415.3" r="3.3"/>
		<path class="st22" d="M468.3,416l-5.3-1.4v0c0-0.5-0.1-0.9-0.2-1.4l0,0l4.8-2.8c0.8-0.5,1.1-1.5,0.6-2.3l-1.9-3.3
			c-0.5-0.8-1.5-1.1-2.3-0.6c0,0,0,0,0,0l-4.8,2.8v0c-0.3-0.3-0.7-0.6-1.1-0.8h0l1.4-5.3c0.2-0.9-0.3-1.8-1.2-2l-3.7-1
			c-0.9-0.2-1.8,0.3-2,1.2l-1.4,5.3h0c-0.5,0-0.9,0.1-1.4,0.2h0l-2.8-4.8c-0.5-0.8-1.5-1.1-2.3-0.6l-3.3,1.9
			c-0.8,0.5-1.1,1.5-0.6,2.3l2.8,4.8l0,0c-0.3,0.3-0.6,0.7-0.8,1.1v0l-5.3-1.4c-0.9-0.2-1.8,0.3-2,1.2c0,0,0,0,0,0l-1,3.7
			c-0.2,0.9,0.3,1.8,1.2,2l5.3,1.4l0,0c0,0.5,0.1,0.9,0.2,1.4l0,0l-4.8,2.8c-0.8,0.5-1.1,1.5-0.6,2.3c0,0,0,0,0,0l1.9,3.3
			c0.5,0.8,1.5,1.1,2.3,0.6c0,0,0,0,0,0l4.8-2.8l0,0c0.4,0.3,0.7,0.6,1.1,0.9l0,0l-1.4,5.3c-0.2,0.9,0.3,1.8,1.2,2c0,0,0,0,0,0
			l3.7,1c0.9,0.2,1.8-0.3,2-1.2l1.4-5.3l0,0c0.5,0,0.9-0.1,1.4-0.2l0,0l2.8,4.8c0.5,0.8,1.5,1.1,2.3,0.6l3.3-1.9
			c0.8-0.5,1.1-1.5,0.6-2.3l-2.8-4.8l0,0c0.3-0.4,0.6-0.7,0.9-1.1v0l5.3,1.4c0.9,0.2,1.8-0.3,2-1.2l1-3.7
			C469.7,417.1,469.2,416.2,468.3,416z"/>
	</g>
	<path class="st2" d="M587.5,253.3h-26.2l-27.3,18.2v-18.2h-19.4c-5,0-9.1-4.1-9.1-9.1v0v-50.1c0-5,4.1-9.1,9.1-9.1l0,0h72.9
		c5,0,9.1,4.1,9.1,9.1c0,0,0,0,0,0v50.1C596.6,249.2,592.5,253.3,587.5,253.3C587.5,253.3,587.5,253.3,587.5,253.3z"/>
	<path class="st4" d="M587.5,253.3h-26.2l-27.3,18.2v-18.2h-19.4c-5,0-9.1-4.1-9.1-9.1v0v-50.1c0-5,4.1-9.1,9.1-9.1l0,0h72.9
		c5,0,9.1,4.1,9.1,9.1c0,0,0,0,0,0v50.1C596.6,249.2,592.5,253.3,587.5,253.3C587.5,253.3,587.5,253.3,587.5,253.3z"/>
	<path class="st23" d="M588.4,175.7h17l17.7,11.8v-11.8h12.5c3.3,0,5.9-2.6,5.9-5.9v0v-32.5c0-3.3-2.6-5.9-5.9-5.9l0,0h-47.2
		c-3.3,0-5.9,2.6-5.9,5.9v0v32.5C582.5,173,585.1,175.7,588.4,175.7C588.4,175.7,588.4,175.7,588.4,175.7z"/>
	<path class="st4" d="M588.4,175.7h17l17.7,11.8v-11.8h12.5c3.3,0,5.9-2.6,5.9-5.9v0v-32.5c0-3.3-2.6-5.9-5.9-5.9l0,0h-47.2
		c-3.3,0-5.9,2.6-5.9,5.9v0v32.5C582.5,173,585.1,175.7,588.4,175.7C588.4,175.7,588.4,175.7,588.4,175.7z"/>
	<path class="st24" d="M650,812c0,7.3-5.9,13.2-13.2,13.2s-13.2-5.9-13.2-13.2c0-7.3,5.9-13.2,13.2-13.2
		C644,798.7,650,804.7,650,812C650,812,650,812,650,812z"/>
	<path class="st2" d="M627.7,810.2c-1,0-1.8,0.8-1.8,1.8s0.8,1.8,1.8,1.8c1,0,1.8-0.8,1.8-1.8C629.5,811,628.7,810.2,627.7,810.2
		C627.7,810.2,627.7,810.2,627.7,810.2z M640.3,818.2c-0.8,0.5-1.1,1.6-0.6,2.4s1.6,1.1,2.4,0.6s1.1-1.6,0.6-2.4c0,0,0,0,0,0
		C642.3,818,641.2,817.7,640.3,818.2L640.3,818.2z M631.6,812c0-1.7,0.8-3.3,2.2-4.2l-1.3-2.2c-1.6,1-2.7,2.6-3.2,4.5
		c1.1,0.9,1.2,2.4,0.4,3.5c-0.1,0.1-0.2,0.3-0.4,0.4c0.5,1.8,1.6,3.4,3.2,4.5l1.3-2.2C632.4,815.2,631.6,813.6,631.6,812L631.6,812z
		 M636.7,806.8c2.7,0,4.9,2,5.1,4.7l2.5,0c-0.1-1.9-0.9-3.7-2.3-5c-1.3,0.5-2.7-0.2-3.2-1.4c-0.1-0.2-0.1-0.3-0.1-0.5
		c-1.8-0.5-3.8-0.3-5.5,0.5l1.2,2.2C635.2,807,636,806.8,636.7,806.8L636.7,806.8z M636.7,817.1c-0.8,0-1.5-0.2-2.2-0.5l-1.2,2.2
		c1.7,0.8,3.6,1,5.5,0.5c0.2-1.4,1.5-2.3,2.8-2.1c0.2,0,0.3,0.1,0.5,0.1c1.3-1.3,2.2-3.1,2.3-5l-2.5,0
		C641.6,815.1,639.4,817.1,636.7,817.1L636.7,817.1z M640.3,805.7c0.8,0.5,1.9,0.2,2.4-0.6c0.5-0.8,0.2-1.9-0.6-2.4
		c-0.8-0.5-1.9-0.2-2.4,0.6C639.2,804.1,639.5,805.2,640.3,805.7C640.3,805.7,640.3,805.7,640.3,805.7L640.3,805.7z"/>
	<polygon class="st25" points="193.1,692.8 221.2,676.5 221.1,707 193,723.3 	"/>
	<polygon class="st4" points="193.1,692.8 221.2,676.5 221.1,707 193,723.3 	"/>
	<polygon class="st26" points="166.6,677.4 194.6,661.1 221.2,676.5 193.1,692.8 	"/>
	<polygon class="st27" points="193.1,692.8 193,723.3 166.5,707.9 166.6,677.4 	"/>
	<polygon class="st4" points="166.6,677.4 194.6,661.1 221.2,676.5 193.1,692.8 	"/>
	<polygon class="st4" points="193.1,692.8 193,723.3 166.5,707.9 166.6,677.4 	"/>
	<circle class="st28" cx="172.5" cy="643.7" r="6"/>
	<circle class="st4" cx="172.5" cy="643.7" r="6"/>
	<circle class="st28" cx="193" cy="643.7" r="6"/>
	<circle class="st4" cx="193" cy="643.7" r="6"/>
	<circle class="st28" cx="213.5" cy="643.7" r="6"/>
	<circle class="st29" cx="897.3" cy="521" r="39.5"/>
	<circle class="st4" cx="213.5" cy="643.7" r="6"/>
	<polygon class="st30" points="897.8,521.4 876.5,509 876.5,532.2 897.9,544.6 	"/>
	<polygon class="st4" points="897.8,521.4 876.5,509 876.5,532.2 897.9,544.6 	"/>
	<polygon class="st31" points="918,509.8 896.6,497.4 876.5,509 897.8,521.4 	"/>
	<polygon class="st4" points="918,509.8 896.6,497.4 876.5,509 897.8,521.4 	"/>
	<polygon class="st32" points="897.8,521.4 897.9,544.6 918,533 918,509.8 	"/>
	<polygon class="st4" points="897.8,521.4 897.9,544.6 918,533 918,509.8 	"/>
	<circle class="st4" cx="897.3" cy="521" r="39.5"/>
	<path class="st27" d="M805.6,545.5h70c5,0,9,4,9,9v27.1c0,5-4,9-9,9h-70c-5,0-9-4-9-9v-27.1C796.6,549.5,800.7,545.5,805.6,545.5z"
		/>
	<path class="st4" d="M805.6,545.5h70c5,0,9,4,9,9v27.1c0,5-4,9-9,9h-70c-5,0-9-4-9-9v-27.1C796.6,549.5,800.7,545.5,805.6,545.5z"
		/>
	<path class="st2" d="M810.2,567.8c0-6.5,4.8-10.8,11-10.8c3.4-0.1,6.7,1.7,8.4,4.7l-3.1,1.6c-1.1-1.9-3.1-3-5.3-3
		c-4.1,0-7.2,3.1-7.2,7.6c0,4.4,3.1,7.6,7.2,7.6c2.2,0,4.2-1.2,5.3-3l3.1,1.6c-1.7,3-5,4.8-8.4,4.7
		C815,578.6,810.2,574.3,810.2,567.8z"/>
	<path class="st2" d="M833.5,575.3l2.1-2.9c1.7,1.9,4.1,2.9,6.6,2.9c3,0,4.2-1.5,4.2-2.9c0-4.4-12.2-1.7-12.2-9.3
		c0-3.5,3-6.1,7.6-6.1c2.9-0.1,5.7,1,7.8,2.9l-2.1,2.7c-1.6-1.6-3.8-2.5-6.1-2.4c-2.1,0-3.5,1.1-3.5,2.6c0,3.9,12.2,1.5,12.2,9.3
		c0,3.5-2.5,6.5-8.1,6.5C838.8,578.8,835.7,577.6,833.5,575.3z"/>
	<path class="st2" d="M854.5,575.3l2.1-2.9c1.7,1.9,4.1,2.9,6.6,2.9c3,0,4.2-1.5,4.2-2.9c0-4.4-12.2-1.7-12.2-9.3
		c0-3.5,3-6.1,7.6-6.1c2.9-0.1,5.7,1,7.8,2.9l-2.1,2.7c-1.6-1.6-3.8-2.5-6.1-2.4c-2.1,0-3.5,1.1-3.5,2.6c0,3.9,12.2,1.5,12.2,9.3
		c0,3.5-2.5,6.5-8.1,6.5C859.8,578.8,856.7,577.6,854.5,575.3z"/>
	<path class="st33" d="M579.1,555c0.3,0.4,0.5,0.4,0.7,0.3s11.5-3.9,11.8-4s0.2-0.2,0.1-0.4s-3.9-5.3-4-5.6s-0.3-0.2-0.6-0.1
		l-11.9,3.1C575.1,548.2,578.8,554.6,579.1,555L579.1,555z"/>
	<path class="st33" d="M592.5,549.8v-6l-3.7,1C589.8,546.2,591.4,548.3,592.5,549.8L592.5,549.8z"/>
	<path class="st33" d="M588.8,537.5c-0.2,0-4.3,0.8-4.5,0.8s-0.2,0.2-0.1,0.3l3.6,4.9c0,0,4.4-1.1,4.6-1.1l0.1,0v-0.7
		c-0.8-1-3-3.8-3.2-4C589.1,537.4,589,537.4,588.8,537.5L588.8,537.5z"/>
	<path class="st33" d="M563.2,529.8c0.9,0,1,0.2,1.3,0.7l9.7,16.3l12.2-2.9c-0.7-1-3.8-5.3-4.1-5.7c-0.3-0.5,0-0.7,0.6-0.8
		s5.2-0.9,5.6-0.9s0.7-0.2,1.4,0.6c0.3,0.4,1.5,1.8,2.5,3.1v-7.6c0-3.7-3-6.7-6.8-6.8h-22.5c-1.8,0-3.5,0.7-4.8,2
		c-0.7,0.7-1.3,1.6-1.6,2.5C559.1,530.1,562.6,529.8,563.2,529.8L563.2,529.8z"/>
	<path class="st33" d="M580.2,557.2c-1,0.3-1.5,0.5-2.2-0.5c-0.5-0.7-3.2-5.6-4.6-8c-2.5,0.7-7.1,1.9-8.5,2.2
		c-0.8,0.3-1.7-0.1-2.1-0.9c-0.2-0.3-4-8.6-6.4-13.8V555c0,3.7,3,6.7,6.8,6.8h22.5c3.7,0,6.7-3,6.8-6.8v-2.2
		C589.7,553.8,580.9,557,580.2,557.2L580.2,557.2z"/>
	<path class="st33" d="M565,549c0.4-0.1,7.2-1.7,7.4-1.8s0.2-0.1,0.1-0.4l-9.1-15.8c-0.1-0.1-0.1-0.2-0.3-0.2
		c-0.2,0-5.3,0.5-6.5,0.6c0,0.2-0.1,0.5-0.1,0.8c1.2,2.4,8,16.6,8.1,16.7S564.6,549.1,565,549L565,549z"/>
	<line class="st34" x1="474.5" y1="411.7" x2="568.5" y2="411.7"/>
	<line class="st34" x1="474.5" y1="419.7" x2="534.5" y2="419.7"/>
	<line class="st35" x1="446.5" y1="458.7" x2="540.5" y2="458.7"/>
	<line class="st34" x1="446.5" y1="467.4" x2="506.5" y2="467.4"/>
	<line class="st34" x1="494.5" y1="476.1" x2="529.5" y2="476.1"/>
	<line class="st36" x1="446.5" y1="476.1" x2="488.5" y2="476.1"/>
	<line class="st35" x1="446.5" y1="484.7" x2="482.5" y2="484.7"/>
	<path class="st37" d="M450.5,501.1c-2.2,0-4,1.8-4,4s1.8,4,4,4h80.7v-8H450.5z"/>
	<path class="st22" d="M450.5,501.1h126c2.2,0,4,1.8,4,4l0,0c0,2.2-1.8,4-4,4h-126c-2.2,0-4-1.8-4-4l0,0
		C446.5,502.9,448.3,501.1,450.5,501.1z"/>
	<path class="st13" d="M373.8,605.7h273.5c1.2,0,2.3,1,2.3,2.3v8.5c0,1.2-1,2.3-2.3,2.3H373.8c-1.2,0-2.3-1-2.3-2.3V608
		C371.5,606.7,372.5,605.7,373.8,605.7z"/>
	<rect x="371.5" y="605.7" class="st4" width="278" height="13"/>
	<path class="st15" d="M630.5,637.7h16c1.7,0,3,1.3,3,3v6c0,1.7-1.3,3-3,3h-16c-1.7,0-3-1.3-3-3v-6
		C627.5,639.1,628.8,637.7,630.5,637.7z"/>
	<path class="st15" d="M598.5,637.7h16c1.7,0,3,1.3,3,3v6c0,1.7-1.3,3-3,3h-16c-1.7,0-3-1.3-3-3v-6
		C595.5,639.1,596.8,637.7,598.5,637.7z"/>
	<path class="st15" d="M566.5,637.7h16c1.7,0,3,1.3,3,3v6c0,1.7-1.3,3-3,3h-16c-1.7,0-3-1.3-3-3v-6
		C563.5,639.1,564.8,637.7,566.5,637.7z"/>
	<path class="st15" d="M534.5,637.7h16c1.7,0,3,1.3,3,3v6c0,1.7-1.3,3-3,3h-16c-1.7,0-3-1.3-3-3v-6
		C531.5,639.1,532.8,637.7,534.5,637.7z"/>
	<path class="st15" d="M502.5,637.7h16c1.7,0,3,1.3,3,3v6c0,1.7-1.3,3-3,3h-16c-1.7,0-3-1.3-3-3v-6
		C499.5,639.1,500.8,637.7,502.5,637.7z"/>
	<path class="st15" d="M470.5,637.7h16c1.7,0,3,1.3,3,3v6c0,1.7-1.3,3-3,3h-16c-1.7,0-3-1.3-3-3v-6
		C467.5,639.1,468.8,637.7,470.5,637.7z"/>
	<path class="st15" d="M438.5,637.7h16c1.7,0,3,1.3,3,3v6c0,1.7-1.3,3-3,3h-16c-1.7,0-3-1.3-3-3v-6
		C435.5,639.1,436.8,637.7,438.5,637.7z"/>
	<path class="st15" d="M406.5,637.7h16c1.7,0,3,1.3,3,3v6c0,1.7-1.3,3-3,3h-16c-1.7,0-3-1.3-3-3v-6
		C403.5,639.1,404.8,637.7,406.5,637.7z"/>
	<path class="st15" d="M374.5,637.7h16c1.7,0,3,1.3,3,3v6c0,1.7-1.3,3-3,3h-16c-1.7,0-3-1.3-3-3v-6
		C371.5,639.1,372.8,637.7,374.5,637.7z"/>
	<path class="st15" d="M566.5,663.2h16c1.7,0,3,1.3,3,3v16c0,1.7-1.3,3-3,3h-16c-1.7,0-3-1.3-3-3v-16
		C563.5,664.6,564.8,663.2,566.5,663.2z"/>
	<path class="st15" d="M534.5,663.2h16c1.7,0,3,1.3,3,3v16c0,1.7-1.3,3-3,3h-16c-1.7,0-3-1.3-3-3v-16
		C531.5,664.6,532.8,663.2,534.5,663.2z"/>
	<path class="st15" d="M502.5,663.2h16c1.7,0,3,1.3,3,3v16c0,1.7-1.3,3-3,3h-16c-1.7,0-3-1.3-3-3v-16
		C499.5,664.6,500.8,663.2,502.5,663.2z"/>
	<path class="st15" d="M470.5,663.2h16c1.7,0,3,1.3,3,3v16c0,1.7-1.3,3-3,3h-16c-1.7,0-3-1.3-3-3v-16
		C467.5,664.6,468.8,663.2,470.5,663.2z"/>
	<path class="st15" d="M438.5,663.2h16c1.7,0,3,1.3,3,3v16c0,1.7-1.3,3-3,3h-16c-1.7,0-3-1.3-3-3v-16
		C435.5,664.6,436.8,663.2,438.5,663.2z"/>
	<path class="st15" d="M406.5,663.2h16c1.7,0,3,1.3,3,3v16c0,1.7-1.3,3-3,3h-16c-1.7,0-3-1.3-3-3v-16
		C403.5,664.6,404.8,663.2,406.5,663.2z"/>
	<path class="st15" d="M374.5,663.2h16c1.7,0,3,1.3,3,3v16c0,1.7-1.3,3-3,3h-16c-1.7,0-3-1.3-3-3v-16
		C371.5,664.6,372.8,663.2,374.5,663.2z"/>
	<path class="st15" d="M630.5,663.2h16c1.7,0,3,1.3,3,3v47.5c0,1.7-1.3,3-3,3h-16c-1.7,0-3-1.3-3-3v-47.5
		C627.5,664.6,628.8,663.2,630.5,663.2z"/>
	<path class="st15" d="M614.5,663.2h-16c-1.7,0-3,1.3-3,3v25.5c0,1.7-1.3,3-3,3h-26c-1.7,0-3,1.3-3,3v16c0,1.7,1.3,3,3,3h48
		c1.7,0,3-1.3,3-3v-47.5C617.5,664.6,616.2,663.2,614.5,663.2z"/>
	<path class="st15" d="M534.5,694.7h16c1.7,0,3,1.3,3,3v16c0,1.7-1.3,3-3,3h-16c-1.7,0-3-1.3-3-3v-16
		C531.5,696.1,532.8,694.7,534.5,694.7z"/>
	<path class="st15" d="M502.5,694.7h16c1.7,0,3,1.3,3,3v16c0,1.7-1.3,3-3,3h-16c-1.7,0-3-1.3-3-3v-16
		C499.5,696.1,500.8,694.7,502.5,694.7z"/>
	<path class="st15" d="M470.5,694.7h16c1.7,0,3,1.3,3,3v16c0,1.7-1.3,3-3,3h-16c-1.7,0-3-1.3-3-3v-16
		C467.5,696.1,468.8,694.7,470.5,694.7z"/>
	<path class="st15" d="M438.5,694.7h16c1.7,0,3,1.3,3,3v16c0,1.7-1.3,3-3,3h-16c-1.7,0-3-1.3-3-3v-16
		C435.5,696.1,436.8,694.7,438.5,694.7z"/>
	<path class="st15" d="M374.5,694.7h48c1.7,0,3,1.3,3,3v16c0,1.7-1.3,3-3,3h-48c-1.7,0-3-1.3-3-3v-16
		C371.5,696.1,372.8,694.7,374.5,694.7z"/>
	<path class="st15" d="M630.5,726.2h16c1.7,0,3,1.3,3,3v16c0,1.7-1.3,3-3,3h-16c-1.7,0-3-1.3-3-3v-16
		C627.5,727.6,628.8,726.2,630.5,726.2z"/>
	<path class="st15" d="M598.5,726.2h16c1.7,0,3,1.3,3,3v16c0,1.7-1.3,3-3,3h-16c-1.7,0-3-1.3-3-3v-16
		C595.5,727.6,596.8,726.2,598.5,726.2z"/>
	<path class="st15" d="M566.5,726.2h16c1.7,0,3,1.3,3,3v16c0,1.7-1.3,3-3,3h-16c-1.7,0-3-1.3-3-3v-16
		C563.5,727.6,564.8,726.2,566.5,726.2z"/>
	<path class="st15" d="M470.5,726.2h80c1.7,0,3,1.3,3,3v16c0,1.7-1.3,3-3,3h-80c-1.7,0-3-1.3-3-3v-16
		C467.5,727.6,468.8,726.2,470.5,726.2z"/>
	<path class="st15" d="M438.5,726.2h16c1.7,0,3,1.3,3,3v16c0,1.7-1.3,3-3,3h-16c-1.7,0-3-1.3-3-3v-16
		C435.5,727.6,436.8,726.2,438.5,726.2z"/>
	<path class="st15" d="M406.5,726.2h16c1.7,0,3,1.3,3,3v16c0,1.7-1.3,3-3,3h-16c-1.7,0-3-1.3-3-3v-16
		C403.5,727.6,404.8,726.2,406.5,726.2z"/>
	<path class="st15" d="M374.5,726.2h16c1.7,0,3,1.3,3,3v16c0,1.7-1.3,3-3,3h-16c-1.7,0-3-1.3-3-3v-16
		C371.5,727.6,372.8,726.2,374.5,726.2z"/>
	<path class="st4" d="M630.5,637.7h16c1.7,0,3,1.3,3,3v6c0,1.7-1.3,3-3,3h-16c-1.7,0-3-1.3-3-3v-6
		C627.5,639.1,628.8,637.7,630.5,637.7z"/>
	<path class="st4" d="M598.5,637.7h16c1.7,0,3,1.3,3,3v6c0,1.7-1.3,3-3,3h-16c-1.7,0-3-1.3-3-3v-6
		C595.5,639.1,596.8,637.7,598.5,637.7z"/>
	<path class="st4" d="M566.5,637.7h16c1.7,0,3,1.3,3,3v6c0,1.7-1.3,3-3,3h-16c-1.7,0-3-1.3-3-3v-6
		C563.5,639.1,564.8,637.7,566.5,637.7z"/>
	<path class="st4" d="M534.5,637.7h16c1.7,0,3,1.3,3,3v6c0,1.7-1.3,3-3,3h-16c-1.7,0-3-1.3-3-3v-6
		C531.5,639.1,532.8,637.7,534.5,637.7z"/>
	<path class="st4" d="M502.5,637.7h16c1.7,0,3,1.3,3,3v6c0,1.7-1.3,3-3,3h-16c-1.7,0-3-1.3-3-3v-6
		C499.5,639.1,500.8,637.7,502.5,637.7z"/>
	<path class="st4" d="M470.5,637.7h16c1.7,0,3,1.3,3,3v6c0,1.7-1.3,3-3,3h-16c-1.7,0-3-1.3-3-3v-6
		C467.5,639.1,468.8,637.7,470.5,637.7z"/>
	<path class="st4" d="M438.5,637.7h16c1.7,0,3,1.3,3,3v6c0,1.7-1.3,3-3,3h-16c-1.7,0-3-1.3-3-3v-6
		C435.5,639.1,436.8,637.7,438.5,637.7z"/>
	<path class="st4" d="M406.5,637.7h16c1.7,0,3,1.3,3,3v6c0,1.7-1.3,3-3,3h-16c-1.7,0-3-1.3-3-3v-6
		C403.5,639.1,404.8,637.7,406.5,637.7z"/>
	<path class="st4" d="M374.5,637.7h16c1.7,0,3,1.3,3,3v6c0,1.7-1.3,3-3,3h-16c-1.7,0-3-1.3-3-3v-6
		C371.5,639.1,372.8,637.7,374.5,637.7z"/>
	<path class="st4" d="M566.5,663.2h16c1.7,0,3,1.3,3,3v16c0,1.7-1.3,3-3,3h-16c-1.7,0-3-1.3-3-3v-16
		C563.5,664.6,564.8,663.2,566.5,663.2z"/>
	<path class="st4" d="M534.5,663.2h16c1.7,0,3,1.3,3,3v16c0,1.7-1.3,3-3,3h-16c-1.7,0-3-1.3-3-3v-16
		C531.5,664.6,532.8,663.2,534.5,663.2z"/>
	<path class="st4" d="M502.5,663.2h16c1.7,0,3,1.3,3,3v16c0,1.7-1.3,3-3,3h-16c-1.7,0-3-1.3-3-3v-16
		C499.5,664.6,500.8,663.2,502.5,663.2z"/>
	<path class="st4" d="M470.5,663.2h16c1.7,0,3,1.3,3,3v16c0,1.7-1.3,3-3,3h-16c-1.7,0-3-1.3-3-3v-16
		C467.5,664.6,468.8,663.2,470.5,663.2z"/>
	<path class="st4" d="M438.5,663.2h16c1.7,0,3,1.3,3,3v16c0,1.7-1.3,3-3,3h-16c-1.7,0-3-1.3-3-3v-16
		C435.5,664.6,436.8,663.2,438.5,663.2z"/>
	<path class="st4" d="M406.5,663.2h16c1.7,0,3,1.3,3,3v16c0,1.7-1.3,3-3,3h-16c-1.7,0-3-1.3-3-3v-16
		C403.5,664.6,404.8,663.2,406.5,663.2z"/>
	<path class="st4" d="M374.5,663.2h16c1.7,0,3,1.3,3,3v16c0,1.7-1.3,3-3,3h-16c-1.7,0-3-1.3-3-3v-16
		C371.5,664.6,372.8,663.2,374.5,663.2z"/>
	<path class="st4" d="M630.5,663.2h16c1.7,0,3,1.3,3,3v47.5c0,1.7-1.3,3-3,3h-16c-1.7,0-3-1.3-3-3v-47.5
		C627.5,664.6,628.8,663.2,630.5,663.2z"/>
	<path class="st4" d="M614.5,663.2h-16c-1.7,0-3,1.3-3,3v25.5c0,1.7-1.3,3-3,3h-26c-1.7,0-3,1.3-3,3v16c0,1.7,1.3,3,3,3h48
		c1.7,0,3-1.3,3-3v-47.5C617.5,664.6,616.2,663.2,614.5,663.2z"/>
	<path class="st4" d="M534.5,694.7h16c1.7,0,3,1.3,3,3v16c0,1.7-1.3,3-3,3h-16c-1.7,0-3-1.3-3-3v-16
		C531.5,696.1,532.8,694.7,534.5,694.7z"/>
	<path class="st4" d="M502.5,694.7h16c1.7,0,3,1.3,3,3v16c0,1.7-1.3,3-3,3h-16c-1.7,0-3-1.3-3-3v-16
		C499.5,696.1,500.8,694.7,502.5,694.7z"/>
	<path class="st4" d="M470.5,694.7h16c1.7,0,3,1.3,3,3v16c0,1.7-1.3,3-3,3h-16c-1.7,0-3-1.3-3-3v-16
		C467.5,696.1,468.8,694.7,470.5,694.7z"/>
	<path class="st4" d="M438.5,694.7h16c1.7,0,3,1.3,3,3v16c0,1.7-1.3,3-3,3h-16c-1.7,0-3-1.3-3-3v-16
		C435.5,696.1,436.8,694.7,438.5,694.7z"/>
	<path class="st4" d="M374.5,694.7h48c1.7,0,3,1.3,3,3v16c0,1.7-1.3,3-3,3h-48c-1.7,0-3-1.3-3-3v-16
		C371.5,696.1,372.8,694.7,374.5,694.7z"/>
	<path class="st4" d="M630.5,726.2h16c1.7,0,3,1.3,3,3v16c0,1.7-1.3,3-3,3h-16c-1.7,0-3-1.3-3-3v-16
		C627.5,727.6,628.8,726.2,630.5,726.2z"/>
	<path class="st4" d="M598.5,726.2h16c1.7,0,3,1.3,3,3v16c0,1.7-1.3,3-3,3h-16c-1.7,0-3-1.3-3-3v-16
		C595.5,727.6,596.8,726.2,598.5,726.2z"/>
	<path class="st4" d="M566.5,726.2h16c1.7,0,3,1.3,3,3v16c0,1.7-1.3,3-3,3h-16c-1.7,0-3-1.3-3-3v-16
		C563.5,727.6,564.8,726.2,566.5,726.2z"/>
	<path class="st4" d="M470.5,726.2h80c1.7,0,3,1.3,3,3v16c0,1.7-1.3,3-3,3h-80c-1.7,0-3-1.3-3-3v-16
		C467.5,727.6,468.8,726.2,470.5,726.2z"/>
	<path class="st4" d="M438.5,726.2h16c1.7,0,3,1.3,3,3v16c0,1.7-1.3,3-3,3h-16c-1.7,0-3-1.3-3-3v-16
		C435.5,727.6,436.8,726.2,438.5,726.2z"/>
	<path class="st4" d="M406.5,726.2h16c1.7,0,3,1.3,3,3v16c0,1.7-1.3,3-3,3h-16c-1.7,0-3-1.3-3-3v-16
		C403.5,727.6,404.8,726.2,406.5,726.2z"/>
	<path class="st4" d="M374.5,726.2h16c1.7,0,3,1.3,3,3v16c0,1.7-1.3,3-3,3h-16c-1.7,0-3-1.3-3-3v-16
		C371.5,727.6,372.8,726.2,374.5,726.2z"/>
	<rect x="392.6" y="819.6" class="st38" width="44" height="40"/>
	<rect x="392.6" y="819.6" class="st4" width="44" height="40"/>
	<rect x="388.1" y="850.6" class="st2" width="51.9" height="25.5"/>
	<rect x="388.1" y="850.6" class="st4" width="51.9" height="25.5"/>
	<path class="st12" d="M386.2,875.5H442c3.6,0,6.5,2.9,6.5,6.5v116.8l0,0h-68.8l0,0V882C379.7,878.4,382.6,875.5,386.2,875.5z"/>
	<path class="st4" d="M386.2,875.5H442c3.6,0,6.5,2.9,6.5,6.5v116.8l0,0h-68.8l0,0V882C379.7,878.4,382.6,875.5,386.2,875.5z"/>
	<circle class="st39" cx="430.7" cy="863.4" r="5"/>
	<circle class="st4" cx="430.7" cy="863.4" r="5"/>
	<path class="st38" d="M468.6,767.8l1.3,0.8c2.9,1.7,3.9,5.3,2.2,8.2l-25.5,44.2l0,0l-11.7-6.8l0,0l25.5-44.2
		C462.1,767.1,465.8,766.1,468.6,767.8z"/>
	<path class="st4" d="M468.6,767.8l1.3,0.8c2.9,1.7,3.9,5.3,2.2,8.2l-25.5,44.2l0,0l-11.7-6.8l0,0l25.5-44.2
		C462.1,767.1,465.8,766.1,468.6,767.8z"/>
	<path class="st40" d="M444.1,705.5h-1.5c-3.3,0-6,2.7-6,6v45c0,1.7-1.3,3-3,3l0,0c-1.7,0-3-1.3-3-3v-53.7c0-3.3-2.7-6-6-6h-1.5
		c-3.3,0-6,2.7-6,6v53.7c0,1.7-1.3,3-3,3l0,0c-1.7,0-3-1.3-3-3v-45c0-3.3-2.7-6-6-6h-1.5c-3.3,0-6,2.7-6,6v45c0,1.7-1.3,3-3,3l0,0
		c-1.7,0-3-1.3-3-3v-30.8c0-3.3-2.7-6-6-6h-1.5c-3.3,0-6,2.7-6,6V814c0,6.6,5.4,12,12,12h48c6.6,0,12-5.4,12-12V711.5
		C450.1,708.1,447.4,705.5,444.1,705.5C444.1,705.5,444.1,705.5,444.1,705.5z"/>
	<path class="st4" d="M444.1,705.5h-1.5c-3.3,0-6,2.7-6,6v45c0,1.7-1.3,3-3,3l0,0c-1.7,0-3-1.3-3-3v-53.7c0-3.3-2.7-6-6-6h-1.5
		c-3.3,0-6,2.7-6,6v53.7c0,1.7-1.3,3-3,3l0,0c-1.7,0-3-1.3-3-3v-45c0-3.3-2.7-6-6-6h-1.5c-3.3,0-6,2.7-6,6v45c0,1.7-1.3,3-3,3l0,0
		c-1.7,0-3-1.3-3-3v-30.8c0-3.3-2.7-6-6-6h-1.5c-3.3,0-6,2.7-6,6V814c0,6.6,5.4,12,12,12h48c6.6,0,12-5.4,12-12V711.5
		C450.1,708.1,447.4,705.5,444.1,705.5C444.1,705.5,444.1,705.5,444.1,705.5z"/>
	<rect x="501" y="907.9" class="st38" width="44" height="40"/>
	<rect x="501" y="907.9" class="st4" width="44" height="40"/>
	<path class="st38" d="M501,902.4l-11.7,6.8l0,0L463.8,865c-1.7-2.9-0.7-6.5,2.2-8.2l0,0l1.3-0.8c2.9-1.7,6.5-0.7,8.2,2.2l0,0
		L501,902.4L501,902.4z"/>
	<path class="st4" d="M501,902.4l-11.7,6.8l0,0L463.8,865c-1.7-2.9-0.7-6.5,2.2-8.2l0,0l1.3-0.8c2.9-1.7,6.5-0.7,8.2,2.2l0,0
		L501,902.4L501,902.4z"/>
	<path class="st40" d="M493,793.7h1.5c3.3,0,6,2.7,6,6v45c0,1.7,1.3,3,3,3l0,0c1.7,0,3-1.3,3-3v-7.2c0-3.3,2.7-6,6-6h1.5
		c3.3,0,6,2.7,6,6v7.2c0,1.7,1.3,3,3,3l0,0c1.7,0,3-1.3,3-3v-7.2c0-3.3,2.7-6,6-6h1.5c3.3,0,6,2.7,6,6v7.2c0,1.7,1.3,3,3,3l0,0
		c1.7,0,3-1.3,3-3v-7.2c0-3.3,2.7-6,6-6h1.5c3.3,0,6,2.7,6,6v64.7c0,6.6-5.4,12-12,12l0,0h-48c-6.6,0-12-5.4-12-12l0,0V799.7
		C487,796.4,489.7,793.7,493,793.7C493,793.7,493,793.7,493,793.7z"/>
	<path class="st4" d="M493,793.7h1.5c3.3,0,6,2.7,6,6v45c0,1.7,1.3,3,3,3l0,0c1.7,0,3-1.3,3-3v-7.2c0-3.3,2.7-6,6-6h1.5
		c3.3,0,6,2.7,6,6v7.2c0,1.7,1.3,3,3,3l0,0c1.7,0,3-1.3,3-3v-7.2c0-3.3,2.7-6,6-6h1.5c3.3,0,6,2.7,6,6v7.2c0,1.7,1.3,3,3,3l0,0
		c1.7,0,3-1.3,3-3v-7.2c0-3.3,2.7-6,6-6h1.5c3.3,0,6,2.7,6,6v64.7c0,6.6-5.4,12-12,12l0,0h-48c-6.6,0-12-5.4-12-12l0,0V799.7
		C487,796.4,489.7,793.7,493,793.7C493,793.7,493,793.7,493,793.7z"/>
	<rect x="497.1" y="938.9" class="st2" width="51.9" height="25.5"/>
	<rect x="497.1" y="938.9" class="st4" width="51.9" height="25.5"/>
	<path class="st12" d="M495.1,963.8h55.8c3.6,0,6.5,2.9,6.5,6.5v30.3l0,0h-68.8l0,0v-30.3C488.6,966.7,491.5,963.8,495.1,963.8z"/>
	<path class="st4" d="M495.1,963.8h55.8c3.6,0,6.5,2.9,6.5,6.5v30.3l0,0h-68.8l0,0v-30.3C488.6,966.7,491.5,963.8,495.1,963.8z"/>
	<ellipse transform="matrix(0.9239 -0.3827 0.3827 0.9239 -325.5063 266.8535)" class="st4" cx="508" cy="951.6" rx="5" ry="5"/>
	<ellipse transform="matrix(0.9239 -0.3827 0.3827 0.9239 -325.5063 266.8535)" class="st39" cx="508" cy="951.6" rx="5" ry="5"/>
	<line class="st41" x1="525" y1="205" x2="579" y2="205"/>
	<line class="st41" x1="525" y1="218.5" x2="567" y2="218.5"/>
	<line class="st41" x1="525" y1="232" x2="549" y2="232"/>
	<line class="st41" x1="597.2" y1="148.5" x2="624.2" y2="148.5"/>
	<line class="st41" x1="597.2" y1="155.5" x2="614.2" y2="155.5"/>
	<path class="st41" d="M505.5,237.1"/>
	<path class="st41" d="M515,355.7"/>
	<line class="st4" x1="596.6" y1="219.6" x2="599.6" y2="219.6"/>
	<path class="st42" d="M607.5,219.6h22.2c22,0,39.8,17.8,39.8,39.8c0,0,0,0,0,0l0,0c0,22-17.8,39.8-39.8,39.8h-65.6
		c-24.7,0-44.7,20-44.7,44.7c0,0,0,0,0,0v4.9"/>
	<line class="st4" x1="519.5" y1="352.7" x2="519.5" y2="355.7"/>
	<line class="st43" x1="224.4" y1="467.8" x2="349.9" y2="467.8"/>
	<path class="st4" d="M221.1,694.7h26.3c24.9,0,45.1-20.2,45.1-45.1v0v-19c0-24.8,20.1-44.9,44.9-44.9h14.1"/>
	<path class="st43" d="M354.3,222.9h13.6c19.7,0,35.7,16,35.7,35.7l0,0c0,19.7,16,35.7,35.7,35.7c0,0,0,0,0,0h19.7
		c19.7,0,35.7,16,35.7,35.7v25.9"/>
	<path class="st4" d="M669.5,460.7"/>
	<line class="st43" x1="669.5" y1="521.4" x2="857.8" y2="521.4"/>
	<path class="st43" d="M669.5,752.1"/>
	<circle class="st3" cx="677" cy="143" r="7.5"/>
	<circle class="st4" cx="677" cy="143" r="7.5"/>
	<path class="st44" d="M163.7,242.9h106.7c6,0,10.8,4.8,10.8,10.8v30.6c0,6-4.8,10.8-10.8,10.8H163.7c-6,0-10.8-4.8-10.8-10.8v-30.6
		C152.9,247.7,157.7,242.9,163.7,242.9z"/>
	<path class="st4" d="M163.7,242.9h106.7c6,0,10.8,4.8,10.8,10.8v30.6c0,6-4.8,10.8-10.8,10.8H163.7c-6,0-10.8-4.8-10.8-10.8v-30.6
		C152.9,247.7,157.7,242.9,163.7,242.9z"/>
	<path class="st2" d="M184.5,280.8v-10.4h-12.3v10.4H168v-23.7h4.1v9.6h12.3v-9.6h4.1v23.7H184.5z"/>
	<path class="st2" d="M202,280.8v-20h-7.2v-3.7h18.5v3.7h-7.2v20H202z"/>
	<path class="st2" d="M239.9,280.8v-18.3l-7.2,18.3h-1.8l-7.3-18.3v18.3h-4.1v-23.7h5.9l6.5,16.2l6.4-16.2h5.9v23.7H239.9z"/>
	<path class="st2" d="M251.5,280.8v-23.7h4.1v20H266v3.7H251.5z"/>
</g>
</svg>
