<?xml version="1.0" encoding="utf-8"?>
<!-- Generator: Adobe Illustrator 23.0.3, SVG Export Plug-In . SVG Version: 6.00 Build 0)  -->
<svg version="1.1" id="Layer_1" xmlns="http://www.w3.org/2000/svg" xmlns:xlink="http://www.w3.org/1999/xlink" x="0px" y="0px"
	 viewBox="0 0 960 560" style="enable-background:new 0 0 960 560;" xml:space="preserve">
<style type="text/css">
	.st0{fill:none;}
	.st1{fill:#F5877C;stroke:#2C2B30;stroke-miterlimit:10;}
	.st2{font-family:'ImprintMT-Shadow';}
	.st3{font-size:100px;}
	.st4{fill:#CECECE;}
	.st5{fill:#FFFFFF;}
	.st6{fill:none;stroke:#1F3969;stroke-width:4;stroke-linecap:round;stroke-linejoin:round;stroke-miterlimit:10;}
	.st7{fill:#FF3E3E;}
	
		.st8{opacity:0.28;fill:#1F3969;stroke:#1F3969;stroke-width:4;stroke-linecap:round;stroke-linejoin:round;stroke-miterlimit:10;enable-background:new    ;}
	.st9{fill:#50B56F;}
	.st10{fill:#5F5AFF;}
	.st11{fill:#F6F9FD;}
	.st12{fill:#BFCFE2;}
	.st13{fill:#2D425E;}
	.st14{fill:#D0DDF0;}
	.st15{fill:#2AA1FF;}
	
		.st16{opacity:0.34;fill:none;stroke:#FFFFFF;stroke-width:2;stroke-linecap:round;stroke-linejoin:round;stroke-miterlimit:10;enable-background:new    ;}
	.st17{opacity:0.34;}
	.st18{fill:none;stroke:#FFFFFF;stroke-width:2;stroke-linecap:round;stroke-linejoin:round;stroke-miterlimit:10;}
	.st19{fill:#1F3969;}
	.st20{fill:none;stroke:#FFFFFF;stroke-width:4;stroke-linecap:round;stroke-linejoin:round;stroke-miterlimit:10;}
	.st21{fill:none;stroke:#7BFFA0;stroke-width:4;stroke-linecap:round;stroke-linejoin:round;stroke-miterlimit:10;}
	.st22{fill:none;stroke:#9169FF;stroke-width:4;stroke-linecap:round;stroke-linejoin:round;stroke-miterlimit:10;}
	.st23{fill:none;stroke:#FFC47D;stroke-width:4;stroke-linecap:round;stroke-linejoin:round;stroke-miterlimit:10;}
	.st24{fill:none;stroke:#FF5757;stroke-width:4;stroke-linecap:round;stroke-linejoin:round;stroke-miterlimit:10;}
	.st25{fill:#FFA364;}
	.st26{fill:#FF5252;}
	.st27{fill:#6567C3;}
	.st28{font-family:'MyriadPro-Regular';}
	.st29{font-size:11.3633px;}
	.st30{fill:#444E59;}
	.st31{fill:#BCBCBC;}
	.st32{fill:none;stroke:#444E59;stroke-width:4;stroke-linecap:round;stroke-linejoin:round;stroke-miterlimit:10;}
	.st33{fill:none;stroke:#64BDFF;stroke-width:4;stroke-linecap:round;stroke-linejoin:round;stroke-miterlimit:10;}
	.st34{fill:none;stroke:#FF5F5F;stroke-width:4;stroke-linecap:round;stroke-linejoin:round;stroke-miterlimit:10;}
	.st35{fill:none;stroke:#FFBE78;stroke-width:4;stroke-linecap:round;stroke-linejoin:round;stroke-miterlimit:10;}
	.st36{fill:none;stroke:#C383F2;stroke-width:4;stroke-linecap:round;stroke-linejoin:round;stroke-miterlimit:10;}
	.st37{fill:none;stroke:#6DBF7B;stroke-width:4;stroke-linecap:round;stroke-linejoin:round;stroke-miterlimit:10;}
	.st38{fill:#E7534E;}
	.st39{fill:#F2C4CE;}
</style>
<polygon class="st0" points="907.79,153 39.58,153 39.58,25.54 124.74,25.54 907.79,25.54 "/>
<text transform="matrix(1 0 0 1 39.5762 95.2358)" class="st1 st2 st3">Learn HTML&amp;CSS</text>
<g id="XMLID_19_">
	<g id="XMLID_181_">
		<path id="XMLID_191_" class="st4" d="M317.19,314.43c-8.53,0-15.38-5.6-15.38-12.42c0-6.82,6.93-12.42,15.38-12.42h87.12v24.91
			h-87.12V314.43z"/>
		<path id="XMLID_190_" class="st5" d="M409.37,318.74h-92.19c-11.47,0-20.71-7.54-20.71-16.72l0,0c0-9.26,9.33-16.72,20.71-16.72
			h92.19L409.37,318.74L409.37,318.74z"/>
		<line id="XMLID_188_" class="st6" x1="311.5" y1="298.14" x2="404.31" y2="298.14"/>
		<line id="XMLID_187_" class="st6" x1="311.5" y1="305.75" x2="404.31" y2="305.75"/>
		<path id="XMLID_186_" class="st6" d="M317.19,314.43c-8.53,0-15.38-5.6-15.38-12.42c0-6.82,6.93-12.42,15.38-12.42h87.12v24.91
			h-87.12V314.43z"/>
		<path id="XMLID_185_" class="st7" d="M317.19,314.43c-8.53,0-15.38-5.6-15.38-12.42c0-6.82,6.93-12.42,15.38-12.42h88.63
			l3.56-4.31h-92.19c-11.47,0-20.71,7.54-20.71,16.72l0,0c0,9.26,9.33,16.72,20.71,16.72h92.19l-3.56-4.31H317.19z"/>
		<path id="XMLID_184_" class="st6" d="M317.19,314.43c-8.53,0-15.38-5.6-15.38-12.42c0-6.82,6.93-12.42,15.38-12.42h88.63
			l3.56-4.31h-92.19c-11.47,0-20.71,7.54-20.71,16.72l0,0c0,9.26,9.33,16.72,20.71,16.72h92.19l-3.56-4.31H317.19z"/>
		<rect id="XMLID_182_" x="373.19" y="285.22" class="st8" width="16.36" height="33.52"/>
	</g>
	<g id="XMLID_173_">
		<path id="XMLID_176_" class="st9" d="M399.86,346.37H231.05c-3.29,0-6.05-2.15-6.05-4.88v-17.94c0-2.66,2.67-4.88,6.05-4.88
			h168.82c3.29,0,6.05,2.15,6.05,4.88v17.94C405.91,344.22,403.24,346.37,399.86,346.37z"/>
		<path id="XMLID_175_" class="st6" d="M399.86,346.37H231.05c-3.29,0-6.05-2.15-6.05-4.88v-17.94c0-2.66,2.67-4.88,6.05-4.88
			h168.82c3.29,0,6.05,2.15,6.05,4.88v17.94C405.91,344.22,403.24,346.37,399.86,346.37z"/>
	</g>
	<path id="XMLID_246_" class="st8" d="M399.86,318.74h-26.67v10.77c0,6.75,6.76,12.27,15.2,12.27h17.51c0-0.07,0-0.14,0-0.22v-17.94
		C405.91,320.89,403.24,318.74,399.86,318.74z"/>
	<path id="XMLID_172_" class="st4" d="M447.42,351.97H251.85c1.16,2.3,1.78,5.17,1.78,8.18s-0.62,5.81-1.78,8.18h195.49
		c-1.16-2.3-1.78-5.17-1.78-8.18C445.64,357.07,446.27,354.27,447.42,351.97z"/>
	<rect id="XMLID_171_" x="246.6" y="347.59" class="st10" width="206.15" height="4.31"/>
	<rect id="XMLID_170_" x="246.6" y="347.59" class="st6" width="206.15" height="4.31"/>
	<rect id="XMLID_169_" x="246.6" y="368.26" class="st11" width="206.15" height="4.31"/>
	<rect id="XMLID_168_" x="246.6" y="368.26" class="st10" width="206.15" height="4.31"/>
	<rect id="XMLID_167_" x="246.6" y="368.26" class="st6" width="206.15" height="4.31"/>
	<path id="XMLID_165_" class="st12" d="M555.16,357.28l-2.67-24.19h-43.92l-2.67,24.19c-0.62,5.6-4.8,10.98-11.38,15.29v0.07h72.01
		v-0.07C559.97,368.26,555.79,362.88,555.16,357.28z"/>
	<polygon id="XMLID_163_" class="st8" points="508.58,333.09 506.98,347.59 554.1,347.59 552.5,333.09 	"/>
	<path id="XMLID_161_" class="st6" d="M555.16,357.28l-2.67-24.19h-43.92l-2.67,24.19c-0.62,5.6-4.8,10.98-11.38,15.29v0.07h72.01
		v-0.07C559.97,368.26,555.79,362.88,555.16,357.28z"/>
	<path id="XMLID_160_" class="st5" d="M671,336.68H390.08c-5.87,0-10.67-3.88-10.67-8.61V180.21c0-4.74,4.8-8.61,10.67-8.61H671
		c5.87,0,10.67,3.88,10.67,8.61v147.86C681.67,332.88,676.87,336.68,671,336.68z"/>
	<path id="XMLID_152_" class="st12" d="M671,336.68H390.08c-5.87,0-10.67-3.88-10.67-8.61V180.21c0-4.74,4.8-8.61,10.67-8.61H671
		c5.87,0,10.67,3.88,10.67,8.61v147.86C681.67,332.88,676.87,336.68,671,336.68z"/>
	<path id="XMLID_150_" class="st6" d="M671,336.68H390.08c-5.87,0-10.67-3.88-10.67-8.61V180.21c0-4.74,4.8-8.61,10.67-8.61H671
		c5.87,0,10.67,3.88,10.67,8.61v147.86C681.67,332.88,676.87,336.68,671,336.68z"/>
	<rect id="XMLID_149_" x="394.58" y="183.82" class="st11" width="272.03" height="125.32"/>
	<path id="XMLID_148_" class="st8" d="M404.31,171.6v99.48c0,3.16,3.2,5.74,7.11,5.74h168.11c3.91,0,7.11-2.58,7.11-5.74V171.6
		H404.31z"/>
	<rect id="XMLID_146_" x="394.58" y="183.82" class="st6" width="272.03" height="125.32"/>
	<line id="XMLID_144_" class="st6" x1="518.63" y1="322.83" x2="542.54" y2="322.83"/>
	<path id="XMLID_142_" class="st13" d="M587.52,268.93h-168.1c-3.91,0-7.11-2.58-7.11-5.74V156.81c0-3.16,3.2-5.74,7.11-5.74h168.1
		c3.91,0,7.11,2.58,7.11,5.74v106.44C594.64,266.41,591.44,268.93,587.52,268.93z"/>
	<path id="XMLID_141_" class="st6" d="M594.64,165H412.31v-8.25c0-3.16,3.2-5.74,7.11-5.74h168.1c3.91,0,7.11,2.58,7.11,5.74V165z"
		/>
	<path id="XMLID_121_" class="st14" d="M594.64,167.72H412.31v-10.98c0-3.16,3.2-5.74,7.11-5.74h168.1c3.91,0,7.11,2.58,7.11,5.74
		V167.72z"/>
	<path id="XMLID_119_" class="st6" d="M594.64,167.72H412.31v-10.98c0-3.16,3.2-5.74,7.11-5.74h168.1c3.91,0,7.11,2.58,7.11,5.74
		V167.72z"/>
	<path id="XMLID_118_" class="st6" d="M594.64,167.72H412.31v-10.98c0-3.16,3.2-5.74,7.11-5.74h168.1c3.91,0,7.11,2.58,7.11,5.74
		V167.72z"/>
	<path id="XMLID_116_" class="st6" d="M587.52,268.93h-168.1c-3.91,0-7.11-2.58-7.11-5.74V156.81c0-3.16,3.2-5.74,7.11-5.74h168.1
		c3.91,0,7.11,2.58,7.11,5.74v106.44C594.64,266.41,591.44,268.93,587.52,268.93z"/>
	<g id="XMLID_72_">
		<path id="XMLID_114_" class="st8" d="M675.27,294.33H572.14c-3.91,0-7.11-2.58-7.11-5.74v-88.21c0-3.16,3.2-5.74,7.11-5.74h103.12
			c3.91,0,7.11,2.58,7.11,5.74v88.21C682.38,291.82,679.18,294.33,675.27,294.33z"/>
		<path id="XMLID_113_" class="st15" d="M682.38,289.31H579.26c-3.91,0-7.11-2.58-7.11-5.74v-88.21c0-3.16,3.2-5.74,7.11-5.74
			h103.12c3.91,0,7.11,2.58,7.11,5.74v88.21C689.49,286.8,686.29,289.31,682.38,289.31z"/>
		<path id="XMLID_112_" class="st6" d="M682.38,289.31H579.26c-3.91,0-7.11-2.58-7.11-5.74v-88.21c0-3.16,3.2-5.74,7.11-5.74h103.12
			c3.91,0,7.11,2.58,7.11,5.74v88.21C689.49,286.8,686.29,289.31,682.38,289.31z"/>
		<path id="XMLID_97_" class="st16" d="M667,216.96h-72.54c-2.58,0-4.62-1.65-4.62-3.73v-5.6c0-2.08,2.04-3.73,4.62-3.73H667
			c2.58,0,4.62,1.65,4.62,3.73v5.6C671.62,215.31,669.58,216.96,667,216.96z"/>
		<g id="XMLID_92_" class="st17">
			<path id="XMLID_94_" class="st18" d="M635.17,237.99h-40.54c-2.58,0-4.62-1.65-4.62-3.73v-5.6c0-2.08,2.04-3.73,4.62-3.73h40.54
				c2.58,0,4.62,1.65,4.62,3.73v5.6C639.71,236.34,637.66,237.99,635.17,237.99z"/>
			<path id="XMLID_93_" class="st18" d="M667.09,237.99h-15.73c-2.58,0-4.62-1.65-4.62-3.73v-5.6c0-2.08,2.04-3.73,4.62-3.73h15.73
				c2.58,0,4.62,1.65,4.62,3.73v5.6C671.71,236.34,669.66,237.99,667.09,237.99z"/>
		</g>
		<g id="XMLID_63_">
			<line id="XMLID_91_" class="st18" x1="589.92" y1="259.81" x2="671.62" y2="259.81"/>
			<line id="XMLID_75_" class="st18" x1="589.92" y1="267.56" x2="671.62" y2="267.56"/>
			<line id="XMLID_68_" class="st18" x1="589.92" y1="275.31" x2="639.71" y2="275.31"/>
		</g>
	</g>
	<ellipse id="XMLID_57_" class="st19" cx="430.18" cy="159.4" rx="3.56" ry="2.87"/>
	<ellipse id="XMLID_56_" class="st19" cx="442.53" cy="159.4" rx="3.56" ry="2.87"/>
	<ellipse id="XMLID_55_" class="st19" cx="454.89" cy="159.4" rx="3.56" ry="2.87"/>
	<g id="XMLID_61_">
		<line id="XMLID_54_" class="st20" x1="517.03" y1="181" x2="528.58" y2="181"/>
		<line id="XMLID_66_" class="st21" x1="458.44" y1="181" x2="508.49" y2="181"/>
		<line id="XMLID_53_" class="st22" x1="433.73" y1="181" x2="451.33" y2="181"/>
	</g>
	<g id="XMLID_51_">
		<line id="XMLID_62_" class="st22" x1="456.67" y1="251.7" x2="494.89" y2="251.7"/>
		<line id="XMLID_52_" class="st21" x1="433.73" y1="251.7" x2="446.09" y2="251.7"/>
	</g>
	<g id="XMLID_46_">
		<line id="XMLID_60_" class="st20" x1="508.49" y1="189.83" x2="515.69" y2="189.83"/>
		<line id="XMLID_48_" class="st22" x1="475.78" y1="189.83" x2="499.96" y2="189.83"/>
		<line id="XMLID_47_" class="st23" x1="442.53" y1="189.83" x2="467.16" y2="189.83"/>
	</g>
	<g id="XMLID_49_">
		<line id="XMLID_59_" class="st20" x1="480.67" y1="198.66" x2="501.92" y2="198.66"/>
		<line id="XMLID_50_" class="st24" x1="454" y1="198.66" x2="474" y2="198.66"/>
	</g>
	<g id="XMLID_65_">
		<line id="XMLID_45_" class="st20" x1="483.51" y1="207.49" x2="487.87" y2="207.49"/>
		<line id="XMLID_44_" class="st22" x1="465.91" y1="207.49" x2="475.78" y2="207.49"/>
		<line id="XMLID_67_" class="st21" x1="442.53" y1="207.49" x2="458.44" y2="207.49"/>
	</g>
	<g id="XMLID_73_">
		<line id="XMLID_43_" class="st23" x1="476.67" y1="216.39" x2="505.03" y2="216.39"/>
		<line id="XMLID_42_" class="st24" x1="442.53" y1="216.39" x2="467.96" y2="216.39"/>
	</g>
	<g id="XMLID_39_">
		<line id="XMLID_64_" class="st22" x1="509.47" y1="225.22" x2="524.85" y2="225.22"/>
		<line id="XMLID_41_" class="st24" x1="476.67" y1="225.22" x2="501.29" y2="225.22"/>
		<line id="XMLID_40_" class="st21" x1="454" y1="225.22" x2="467.96" y2="225.22"/>
	</g>
	<g id="XMLID_37_">
		<line id="XMLID_95_" class="st20" x1="487.87" y1="234.04" x2="501.29" y2="234.04"/>
		<line id="XMLID_38_" class="st22" x1="454" y1="234.04" x2="478.62" y2="234.04"/>
	</g>
	<g id="XMLID_98_">
		<line id="XMLID_36_" class="st20" x1="522.81" y1="242.87" x2="538.19" y2="242.87"/>
		<line id="XMLID_35_" class="st23" x1="475.78" y1="242.87" x2="514.45" y2="242.87"/>
		<line id="XMLID_28_" class="st20" x1="442.53" y1="242.87" x2="467.16" y2="242.87"/>
	</g>
	<line id="XMLID_145_" class="st6" x1="254.07" y1="356.92" x2="445.64" y2="356.92"/>
	<line id="XMLID_151_" class="st6" x1="254.07" y1="362.66" x2="445.64" y2="362.66"/>
	<path id="XMLID_27_" class="st6" d="M447.42,351.97H251.85c1.16,2.3,1.78,5.17,1.78,8.18s-0.62,5.81-1.78,8.18h195.49
		c-1.16-2.3-1.78-5.17-1.78-8.18C445.64,357.07,446.27,354.27,447.42,351.97z"/>
</g>
<g id="XMLID_222_">
	<g id="XMLID_174_">
		<polygon id="XMLID_177_" class="st25" points="702.51,285.02 710.91,284.09 718.22,342.62 709.82,343.54 		"/>
		<polygon id="XMLID_16_" class="st15" points="702.52,285.08 710.93,284.15 711.67,290.12 703.26,291.05 		"/>
		<polygon id="XMLID_217_" class="st6" points="702.52,285.08 710.93,284.15 711.67,290.12 703.26,291.05 		"/>
		<polygon id="XMLID_14_" class="st6" points="702.51,285.02 710.91,284.09 718.22,342.62 709.82,343.54 		"/>
	</g>
	<g id="XMLID_189_">
		<polygon id="XMLID_218_" class="st26" points="725.55,295.22 733.96,296.08 727.19,354.66 718.77,353.8 		"/>
		<polygon id="XMLID_13_" class="st6" points="725.55,295.22 733.96,296.08 727.19,354.66 718.77,353.8 		"/>
		<polygon id="XMLID_220_" class="st13" points="725.61,295.23 734.03,296.09 733.34,302.06 724.92,301.2 		"/>
		<polygon id="XMLID_4_" class="st6" points="725.61,295.23 734.03,296.09 733.34,302.06 724.92,301.2 		"/>
	</g>
	<polygon id="XMLID_2_" class="st27" points="739.2,373.8 705.26,373.8 699.73,324.94 744.73,324.94 	"/>
	<polygon id="XMLID_233_" class="st27" points="699.73,324.94 699.82,325.83 734.1,325.83 728.66,373.8 739.2,373.8 744.73,324.94 	
		"/>
	<polygon id="XMLID_1_" class="st6" points="739.2,373.8 705.26,373.8 699.73,324.94 744.73,324.94 	"/>
</g>
<text transform="matrix(1.0641 0 0 1 239.0098 334.4873)" class="st5 st28 st29">FRONT END Development</text>
<path class="st0" d="M124,96"/>
<path class="st0" d="M128,92"/>
<g id="XMLID_5_">
	<path id="XMLID_273_" class="st30" d="M264.4,281.4H140.7c-4.1,0-7.4-3.3-7.4-7.4v-84.6c0-4.1,3.3-7.4,7.4-7.4h123.8
		c4.1,0,7.4,3.3,7.4,7.4V274C271.8,278.1,268.5,281.4,264.4,281.4z"/>
	<path id="XMLID_242_" class="st31" d="M271.8,198.1H133.3v-8.7c0-4.1,3.3-7.4,7.4-7.4h123.8c4.1,0,7.4,3.3,7.4,7.4v8.7H271.8z"/>
	<path id="XMLID_240_" class="st32" d="M264.4,281.4H140.7c-4.1,0-7.4-3.3-7.4-7.4v-84.6c0-4.1,3.3-7.4,7.4-7.4h123.8
		c4.1,0,7.4,3.3,7.4,7.4V274C271.8,278.1,268.5,281.4,264.4,281.4z"/>
	<path id="XMLID_239_" class="st32" d="M264.4,281.4H140.7c-4.1,0-7.4-3.3-7.4-7.4v-84.6c0-4.1,3.3-7.4,7.4-7.4h123.8
		c4.1,0,7.4,3.3,7.4,7.4V274C271.8,278.1,268.5,281.4,264.4,281.4z"/>
	<path id="XMLID_236_" class="st32" d="M271.8,198.1H133.3v-8.7c0-4.1,3.3-7.4,7.4-7.4h123.8c4.1,0,7.4,3.3,7.4,7.4v8.7H271.8z"/>
	<g id="XMLID_83_">
		<g id="XMLID_10_">
			<line id="XMLID_235_" class="st20" x1="152.4" y1="268.7" x2="168" y2="268.7"/>
			<line id="XMLID_221_" class="st20" x1="141.4" y1="268.7" x2="142.5" y2="268.7"/>
		</g>
		<g id="XMLID_129_">
			<line id="XMLID_193_" class="st20" x1="152.4" y1="260.1" x2="191.9" y2="260.1"/>
			<line id="XMLID_192_" class="st20" x1="141.4" y1="260.1" x2="142.5" y2="260.1"/>
		</g>
		<g id="XMLID_123_">
			<line id="XMLID_128_" class="st33" x1="210.7" y1="251.4" x2="221.5" y2="251.4"/>
			<line id="XMLID_127_" class="st20" x1="181.3" y1="251.4" x2="201.3" y2="251.4"/>
			<line id="XMLID_126_" class="st34" x1="152.4" y1="251.4" x2="172.2" y2="251.4"/>
			<line id="XMLID_125_" class="st20" x1="141.4" y1="251.4" x2="142.5" y2="251.4"/>
		</g>
		<g id="XMLID_9_">
			<line id="XMLID_122_" class="st20" x1="185.7" y1="242.8" x2="233.9" y2="242.8"/>
			<line id="XMLID_120_" class="st33" x1="152.4" y1="242.8" x2="177.6" y2="242.8"/>
			<line id="XMLID_117_" class="st20" x1="141.4" y1="242.8" x2="142.5" y2="242.8"/>
		</g>
		<g id="XMLID_108_">
			<line id="XMLID_111_" class="st34" x1="185.7" y1="234.2" x2="203.7" y2="234.2"/>
			<line id="XMLID_110_" class="st35" x1="152.4" y1="234.2" x2="177.6" y2="234.2"/>
			<line id="XMLID_109_" class="st20" x1="141.4" y1="234.2" x2="142.5" y2="234.2"/>
		</g>
		<g id="XMLID_103_">
			<line id="XMLID_107_" class="st33" x1="189.2" y1="225.6" x2="194.1" y2="225.6"/>
			<line id="XMLID_106_" class="st34" x1="170.2" y1="225.6" x2="181.3" y2="225.6"/>
			<line id="XMLID_105_" class="st36" x1="152.4" y1="225.6" x2="161.6" y2="225.6"/>
			<line id="XMLID_104_" class="st20" x1="141.4" y1="225.6" x2="142.5" y2="225.6"/>
		</g>
		<g id="XMLID_96_">
			<line id="XMLID_102_" class="st33" x1="225.2" y1="216.9" x2="233.9" y2="216.9"/>
			<line id="XMLID_101_" class="st34" x1="180.1" y1="216.9" x2="214.2" y2="216.9"/>
			<line id="XMLID_100_" class="st35" x1="152.4" y1="216.9" x2="172.7" y2="216.9"/>
			<line id="XMLID_99_" class="st20" x1="141.4" y1="216.9" x2="142.5" y2="216.9"/>
		</g>
		<g id="XMLID_84_">
			<line id="XMLID_89_" class="st35" x1="203.7" y1="208.3" x2="221.5" y2="208.3"/>
			<line id="XMLID_88_" class="st37" x1="181.3" y1="208.3" x2="195.1" y2="208.3"/>
			<line id="XMLID_87_" class="st35" x1="166.3" y1="208.3" x2="174.1" y2="208.3"/>
			<line id="XMLID_86_" class="st37" x1="152.4" y1="208.3" x2="158.8" y2="208.3"/>
			<line id="XMLID_85_" class="st20" x1="141.4" y1="208.3" x2="142.5" y2="208.3"/>
		</g>
	</g>
	<g id="XMLID_6_">
		<circle id="XMLID_82_" class="st38" cx="147" cy="190.1" r="2.5"/>
		<circle id="XMLID_8_" class="st30" cx="156" cy="190.1" r="2.5"/>
		<circle id="XMLID_7_" class="st30" cx="165.1" cy="190.1" r="2.5"/>
	</g>
</g>
<path id="XMLID_3_" class="st39" d="M296.8,185.73l-0.14-10.07l-6.85,0.07c-0.41-1.28-0.89-2.42-1.58-3.56l4.8-4.83l-7.33-7.05
	l-4.8,4.83c-1.17-0.6-2.4-1.07-3.7-1.41l-0.07-6.71l-10.28,0.13l0.07,6.71c-1.3,0.4-2.47,0.87-3.63,1.54l-4.93-4.7l-7.2,7.18
	l4.93,4.7c-0.62,1.14-1.1,2.35-1.44,3.63l-6.85,0.07l0.14,10.07l6.85-0.07c0.41,1.28,0.89,2.42,1.58,3.56l-4.8,4.83l7.33,7.05
	l4.8-4.83c1.17,0.6,2.4,1.07,3.7,1.41l0.07,6.71l10.28-0.13l-0.07-6.71c1.3-0.4,2.47-0.87,3.63-1.54l4.93,4.7l7.2-7.18l-4.93-4.7
	c0.62-1.14,1.1-2.35,1.44-3.63L296.8,185.73z M272.47,188.82c-4.45,0.07-8.02-3.42-8.09-7.79c-0.07-4.36,3.5-7.85,7.95-7.92
	c4.45-0.07,8.02,3.42,8.09,7.79C280.42,185.26,276.86,188.75,272.47,188.82z"/>
<g id="XMLID_11_">
	<path id="XMLID_153_" class="st30" d="M182.4,339.4H58.7c-4.1,0-7.4-3.3-7.4-7.4v-84.6c0-4.1,3.3-7.4,7.4-7.4h123.8
		c4.1,0,7.4,3.3,7.4,7.4V332C189.8,336.1,186.5,339.4,182.4,339.4z"/>
	<path id="XMLID_147_" class="st31" d="M189.8,256.1H51.3v-8.7c0-4.1,3.3-7.4,7.4-7.4h123.8c4.1,0,7.4,3.3,7.4,7.4v8.7H189.8z"/>
	<path id="XMLID_143_" class="st32" d="M182.4,339.4H58.7c-4.1,0-7.4-3.3-7.4-7.4v-84.6c0-4.1,3.3-7.4,7.4-7.4h123.8
		c4.1,0,7.4,3.3,7.4,7.4V332C189.8,336.1,186.5,339.4,182.4,339.4z"/>
	<path id="XMLID_140_" class="st32" d="M182.4,339.4H58.7c-4.1,0-7.4-3.3-7.4-7.4v-84.6c0-4.1,3.3-7.4,7.4-7.4h123.8
		c4.1,0,7.4,3.3,7.4,7.4V332C189.8,336.1,186.5,339.4,182.4,339.4z"/>
	<path id="XMLID_139_" class="st32" d="M189.8,256.1H51.3v-8.7c0-4.1,3.3-7.4,7.4-7.4h123.8c4.1,0,7.4,3.3,7.4,7.4v8.7H189.8z"/>
	<g id="XMLID_20_">
		<g id="XMLID_136_">
			<line id="XMLID_138_" class="st20" x1="70.4" y1="326.7" x2="86" y2="326.7"/>
			<line id="XMLID_137_" class="st20" x1="59.4" y1="326.7" x2="60.5" y2="326.7"/>
		</g>
		<g id="XMLID_133_">
			<line id="XMLID_135_" class="st20" x1="70.4" y1="318.1" x2="109.9" y2="318.1"/>
			<line id="XMLID_134_" class="st20" x1="59.4" y1="318.1" x2="60.5" y2="318.1"/>
		</g>
		<g id="XMLID_115_">
			<line id="XMLID_132_" class="st33" x1="128.7" y1="309.4" x2="139.5" y2="309.4"/>
			<line id="XMLID_131_" class="st20" x1="99.3" y1="309.4" x2="119.3" y2="309.4"/>
			<line id="XMLID_130_" class="st34" x1="70.4" y1="309.4" x2="90.2" y2="309.4"/>
			<line id="XMLID_124_" class="st20" x1="59.4" y1="309.4" x2="60.5" y2="309.4"/>
		</g>
		<g id="XMLID_79_">
			<line id="XMLID_90_" class="st20" x1="103.7" y1="300.8" x2="151.9" y2="300.8"/>
			<line id="XMLID_81_" class="st33" x1="70.4" y1="300.8" x2="95.6" y2="300.8"/>
			<line id="XMLID_80_" class="st20" x1="59.4" y1="300.8" x2="60.5" y2="300.8"/>
		</g>
		<g id="XMLID_74_">
			<line id="XMLID_78_" class="st34" x1="103.7" y1="292.2" x2="121.7" y2="292.2"/>
			<line id="XMLID_77_" class="st35" x1="70.4" y1="292.2" x2="95.6" y2="292.2"/>
			<line id="XMLID_76_" class="st20" x1="59.4" y1="292.2" x2="60.5" y2="292.2"/>
		</g>
		<g id="XMLID_34_">
			<line id="XMLID_71_" class="st33" x1="107.2" y1="283.6" x2="112.1" y2="283.6"/>
			<line id="XMLID_70_" class="st34" x1="88.2" y1="283.6" x2="99.3" y2="283.6"/>
			<line id="XMLID_69_" class="st36" x1="70.4" y1="283.6" x2="79.6" y2="283.6"/>
			<line id="XMLID_58_" class="st20" x1="59.4" y1="283.6" x2="60.5" y2="283.6"/>
		</g>
		<g id="XMLID_29_">
			<line id="XMLID_33_" class="st33" x1="143.2" y1="274.9" x2="151.9" y2="274.9"/>
			<line id="XMLID_32_" class="st34" x1="98.1" y1="274.9" x2="132.2" y2="274.9"/>
			<line id="XMLID_31_" class="st35" x1="70.4" y1="274.9" x2="90.7" y2="274.9"/>
			<line id="XMLID_30_" class="st20" x1="59.4" y1="274.9" x2="60.5" y2="274.9"/>
		</g>
		<g id="XMLID_21_">
			<line id="XMLID_26_" class="st35" x1="121.7" y1="266.3" x2="139.5" y2="266.3"/>
			<line id="XMLID_25_" class="st37" x1="99.3" y1="266.3" x2="113.1" y2="266.3"/>
			<line id="XMLID_24_" class="st35" x1="84.3" y1="266.3" x2="92.1" y2="266.3"/>
			<line id="XMLID_23_" class="st37" x1="70.4" y1="266.3" x2="76.8" y2="266.3"/>
			<line id="XMLID_22_" class="st20" x1="59.4" y1="266.3" x2="60.5" y2="266.3"/>
		</g>
	</g>
	<g id="XMLID_12_">
		<circle id="XMLID_18_" class="st38" cx="65" cy="248.1" r="2.5"/>
		<circle id="XMLID_17_" class="st30" cx="74" cy="248.1" r="2.5"/>
		<circle id="XMLID_15_" class="st30" cx="83.1" cy="248.1" r="2.5"/>
	</g>
</g>
<g id="XMLID_154_">
	<path id="XMLID_231_" class="st30" d="M797.4,230.4H673.7c-4.1,0-7.4-3.3-7.4-7.4v-84.6c0-4.1,3.3-7.4,7.4-7.4h123.8
		c4.1,0,7.4,3.3,7.4,7.4V223C804.8,227.1,801.5,230.4,797.4,230.4z"/>
	<path id="XMLID_230_" class="st31" d="M804.8,147.1H666.3v-8.7c0-4.1,3.3-7.4,7.4-7.4h123.8c4.1,0,7.4,3.3,7.4,7.4v8.7H804.8z"/>
	<path id="XMLID_229_" class="st32" d="M797.4,230.4H673.7c-4.1,0-7.4-3.3-7.4-7.4v-84.6c0-4.1,3.3-7.4,7.4-7.4h123.8
		c4.1,0,7.4,3.3,7.4,7.4V223C804.8,227.1,801.5,230.4,797.4,230.4z"/>
	<path id="XMLID_228_" class="st32" d="M797.4,230.4H673.7c-4.1,0-7.4-3.3-7.4-7.4v-84.6c0-4.1,3.3-7.4,7.4-7.4h123.8
		c4.1,0,7.4,3.3,7.4,7.4V223C804.8,227.1,801.5,230.4,797.4,230.4z"/>
	<path id="XMLID_227_" class="st32" d="M804.8,147.1H666.3v-8.7c0-4.1,3.3-7.4,7.4-7.4h123.8c4.1,0,7.4,3.3,7.4,7.4v8.7H804.8z"/>
	<g id="XMLID_159_">
		<g id="XMLID_224_">
			<line id="XMLID_226_" class="st20" x1="685.4" y1="217.7" x2="701" y2="217.7"/>
			<line id="XMLID_225_" class="st20" x1="674.4" y1="217.7" x2="675.5" y2="217.7"/>
		</g>
		<g id="XMLID_216_">
			<line id="XMLID_223_" class="st20" x1="685.4" y1="209.1" x2="724.9" y2="209.1"/>
			<line id="XMLID_219_" class="st20" x1="674.4" y1="209.1" x2="675.5" y2="209.1"/>
		</g>
		<g id="XMLID_211_">
			<line id="XMLID_215_" class="st33" x1="743.7" y1="200.4" x2="754.5" y2="200.4"/>
			<line id="XMLID_214_" class="st20" x1="714.3" y1="200.4" x2="734.3" y2="200.4"/>
			<line id="XMLID_213_" class="st34" x1="685.4" y1="200.4" x2="705.2" y2="200.4"/>
			<line id="XMLID_212_" class="st20" x1="674.4" y1="200.4" x2="675.5" y2="200.4"/>
		</g>
		<g id="XMLID_207_">
			<line id="XMLID_210_" class="st20" x1="718.7" y1="191.8" x2="766.9" y2="191.8"/>
			<line id="XMLID_209_" class="st33" x1="685.4" y1="191.8" x2="710.6" y2="191.8"/>
			<line id="XMLID_208_" class="st20" x1="674.4" y1="191.8" x2="675.5" y2="191.8"/>
		</g>
		<g id="XMLID_203_">
			<line id="XMLID_206_" class="st34" x1="718.7" y1="183.2" x2="736.7" y2="183.2"/>
			<line id="XMLID_205_" class="st35" x1="685.4" y1="183.2" x2="710.6" y2="183.2"/>
			<line id="XMLID_204_" class="st20" x1="674.4" y1="183.2" x2="675.5" y2="183.2"/>
		</g>
		<g id="XMLID_198_">
			<line id="XMLID_202_" class="st33" x1="722.2" y1="174.6" x2="727.1" y2="174.6"/>
			<line id="XMLID_201_" class="st34" x1="703.2" y1="174.6" x2="714.3" y2="174.6"/>
			<line id="XMLID_200_" class="st36" x1="685.4" y1="174.6" x2="694.6" y2="174.6"/>
			<line id="XMLID_199_" class="st20" x1="674.4" y1="174.6" x2="675.5" y2="174.6"/>
		</g>
		<g id="XMLID_183_">
			<line id="XMLID_197_" class="st33" x1="758.2" y1="165.9" x2="766.9" y2="165.9"/>
			<line id="XMLID_196_" class="st34" x1="713.1" y1="165.9" x2="747.2" y2="165.9"/>
			<line id="XMLID_195_" class="st35" x1="685.4" y1="165.9" x2="705.7" y2="165.9"/>
			<line id="XMLID_194_" class="st20" x1="674.4" y1="165.9" x2="675.5" y2="165.9"/>
		</g>
		<g id="XMLID_162_">
			<line id="XMLID_180_" class="st35" x1="736.7" y1="157.3" x2="754.5" y2="157.3"/>
			<line id="XMLID_179_" class="st37" x1="714.3" y1="157.3" x2="728.1" y2="157.3"/>
			<line id="XMLID_178_" class="st35" x1="699.3" y1="157.3" x2="707.1" y2="157.3"/>
			<line id="XMLID_166_" class="st37" x1="685.4" y1="157.3" x2="691.8" y2="157.3"/>
			<line id="XMLID_164_" class="st20" x1="674.4" y1="157.3" x2="675.5" y2="157.3"/>
		</g>
	</g>
	<g id="XMLID_155_">
		<circle id="XMLID_158_" class="st38" cx="680" cy="139.1" r="2.5"/>
		<circle id="XMLID_157_" class="st30" cx="689" cy="139.1" r="2.5"/>
		<circle id="XMLID_156_" class="st30" cx="698.1" cy="139.1" r="2.5"/>
	</g>
</g>
<path id="XMLID_232_" class="st39" d="M829.8,234.73l-0.14-10.07l-6.85,0.07c-0.41-1.28-0.89-2.42-1.58-3.56l4.8-4.83l-7.33-7.05
	l-4.8,4.83c-1.17-0.6-2.4-1.07-3.7-1.41l-0.07-6.71l-10.28,0.13l0.07,6.71c-1.3,0.4-2.47,0.87-3.63,1.54l-4.93-4.7l-7.2,7.18
	l4.93,4.7c-0.62,1.14-1.1,2.35-1.44,3.63l-6.85,0.07l0.14,10.07l6.85-0.07c0.41,1.28,0.89,2.42,1.58,3.56l-4.8,4.83l7.33,7.05
	l4.8-4.83c1.17,0.6,2.4,1.07,3.7,1.41l0.07,6.71l10.28-0.13l-0.07-6.71c1.3-0.4,2.47-0.87,3.63-1.54l4.93,4.7l7.2-7.18l-4.93-4.7
	c0.62-1.14,1.1-2.35,1.44-3.63L829.8,234.73z M805.47,237.82c-4.45,0.07-8.02-3.42-8.09-7.79c-0.07-4.36,3.5-7.85,7.95-7.92
	c4.45-0.07,8.02,3.42,8.09,7.79C813.42,234.26,809.86,237.75,805.47,237.82z"/>
</svg>
