<?xml version="1.0" encoding="utf-8"?>
<!-- Generator: Adobe Illustrator 23.0.3, SVG Export Plug-In . SVG Version: 6.00 Build 0)  -->
<svg version="1.1" id="Layer_1" xmlns="http://www.w3.org/2000/svg" xmlns:xlink="http://www.w3.org/1999/xlink" x="0px" y="0px"
	 viewBox="0 0 960 560" style="enable-background:new 0 0 960 560;" xml:space="preserve">
<style type="text/css">
	.st0{fill:none;}
	.st1{fill:#F5877C;stroke:#2C2B30;stroke-miterlimit:10;}
	.st2{font-family:'ImprintMT-Shadow';}
	.st3{font-size:100px;}
	.st4{fill:#CECECE;}
	.st5{fill:#FFFFFF;}
	.st6{fill:none;stroke:#1F3969;stroke-width:4;stroke-linecap:round;stroke-linejoin:round;stroke-miterlimit:10;}
	.st7{fill:#FF3E3E;}
	
		.st8{opacity:0.28;fill:#1F3969;stroke:#1F3969;stroke-width:4;stroke-linecap:round;stroke-linejoin:round;stroke-miterlimit:10;enable-background:new    ;}
	.st9{fill:#50B56F;}
	.st10{fill:#5F5AFF;}
	.st11{fill:#F6F9FD;}
	.st12{fill:#BFCFE2;}
	.st13{fill:#2D425E;}
	.st14{fill:#D0DDF0;}
	.st15{fill:#2AA1FF;}
	
		.st16{opacity:0.34;fill:none;stroke:#FFFFFF;stroke-width:2;stroke-linecap:round;stroke-linejoin:round;stroke-miterlimit:10;enable-background:new    ;}
	.st17{opacity:0.34;}
	.st18{fill:none;stroke:#FFFFFF;stroke-width:2;stroke-linecap:round;stroke-linejoin:round;stroke-miterlimit:10;}
	.st19{fill:#1F3969;}
	.st20{fill:none;stroke:#FFFFFF;stroke-width:4;stroke-linecap:round;stroke-linejoin:round;stroke-miterlimit:10;}
	.st21{fill:none;stroke:#7BFFA0;stroke-width:4;stroke-linecap:round;stroke-linejoin:round;stroke-miterlimit:10;}
	.st22{fill:none;stroke:#9169FF;stroke-width:4;stroke-linecap:round;stroke-linejoin:round;stroke-miterlimit:10;}
	.st23{fill:none;stroke:#FFC47D;stroke-width:4;stroke-linecap:round;stroke-linejoin:round;stroke-miterlimit:10;}
	.st24{fill:none;stroke:#FF5757;stroke-width:4;stroke-linecap:round;stroke-linejoin:round;stroke-miterlimit:10;}
	.st25{fill:#FFA364;}
	.st26{fill:#FF5252;}
	.st27{fill:#6567C3;}
	.st28{font-family:'MyriadPro-Regular';}
	.st29{font-size:11.3633px;}
</style>
<polygon class="st0" points="907.79,153 39.58,153 39.58,25.54 124.74,25.54 907.79,25.54 "/>
<text transform="matrix(1 0 0 1 39.5762 95.2358)" class="st1 st2 st3">Lear</text>
<g id="XMLID_19_">
	<g id="XMLID_181_">
		<path id="XMLID_191_" class="st4" d="M317.19,314.43c-8.53,0-15.38-5.6-15.38-12.42c0-6.82,6.93-12.42,15.38-12.42h87.12v24.91
			h-87.12V314.43z"/>
		<path id="XMLID_190_" class="st5" d="M409.37,318.74h-92.19c-11.47,0-20.71-7.54-20.71-16.72l0,0c0-9.26,9.33-16.72,20.71-16.72
			h92.19L409.37,318.74L409.37,318.74z"/>
		<line id="XMLID_188_" class="st6" x1="311.5" y1="298.14" x2="404.31" y2="298.14"/>
		<line id="XMLID_187_" class="st6" x1="311.5" y1="305.75" x2="404.31" y2="305.75"/>
		<path id="XMLID_186_" class="st6" d="M317.19,314.43c-8.53,0-15.38-5.6-15.38-12.42c0-6.82,6.93-12.42,15.38-12.42h87.12v24.91
			h-87.12V314.43z"/>
		<path id="XMLID_185_" class="st7" d="M317.19,314.43c-8.53,0-15.38-5.6-15.38-12.42c0-6.82,6.93-12.42,15.38-12.42h88.63
			l3.56-4.31h-92.19c-11.47,0-20.71,7.54-20.71,16.72l0,0c0,9.26,9.33,16.72,20.71,16.72h92.19l-3.56-4.31H317.19z"/>
		<path id="XMLID_184_" class="st6" d="M317.19,314.43c-8.53,0-15.38-5.6-15.38-12.42c0-6.82,6.93-12.42,15.38-12.42h88.63
			l3.56-4.31h-92.19c-11.47,0-20.71,7.54-20.71,16.72l0,0c0,9.26,9.33,16.72,20.71,16.72h92.19l-3.56-4.31H317.19z"/>
		<rect id="XMLID_182_" x="373.19" y="285.22" class="st8" width="16.36" height="33.52"/>
	</g>
	<g id="XMLID_173_">
		<path id="XMLID_176_" class="st9" d="M399.86,346.37H231.05c-3.29,0-6.05-2.15-6.05-4.88v-17.94c0-2.66,2.67-4.88,6.05-4.88
			h168.82c3.29,0,6.05,2.15,6.05,4.88v17.94C405.91,344.22,403.24,346.37,399.86,346.37z"/>
		<path id="XMLID_175_" class="st6" d="M399.86,346.37H231.05c-3.29,0-6.05-2.15-6.05-4.88v-17.94c0-2.66,2.67-4.88,6.05-4.88
			h168.82c3.29,0,6.05,2.15,6.05,4.88v17.94C405.91,344.22,403.24,346.37,399.86,346.37z"/>
	</g>
	<path id="XMLID_246_" class="st8" d="M399.86,318.74h-26.67v10.77c0,6.75,6.76,12.27,15.2,12.27h17.51c0-0.07,0-0.14,0-0.22v-17.94
		C405.91,320.89,403.24,318.74,399.86,318.74z"/>
	<path id="XMLID_172_" class="st4" d="M447.42,351.97H251.85c1.16,2.3,1.78,5.17,1.78,8.18s-0.62,5.81-1.78,8.18h195.49
		c-1.16-2.3-1.78-5.17-1.78-8.18C445.64,357.07,446.27,354.27,447.42,351.97z"/>
	<rect id="XMLID_171_" x="246.6" y="347.59" class="st10" width="206.15" height="4.31"/>
	<rect id="XMLID_170_" x="246.6" y="347.59" class="st6" width="206.15" height="4.31"/>
	<rect id="XMLID_169_" x="246.6" y="368.26" class="st11" width="206.15" height="4.31"/>
	<rect id="XMLID_168_" x="246.6" y="368.26" class="st10" width="206.15" height="4.31"/>
	<rect id="XMLID_167_" x="246.6" y="368.26" class="st6" width="206.15" height="4.31"/>
	<path id="XMLID_165_" class="st12" d="M555.16,357.28l-2.67-24.19h-43.92l-2.67,24.19c-0.62,5.6-4.8,10.98-11.38,15.29v0.07h72.01
		v-0.07C559.97,368.26,555.79,362.88,555.16,357.28z"/>
	<polygon id="XMLID_163_" class="st8" points="508.58,333.09 506.98,347.59 554.1,347.59 552.5,333.09 	"/>
	<path id="XMLID_161_" class="st6" d="M555.16,357.28l-2.67-24.19h-43.92l-2.67,24.19c-0.62,5.6-4.8,10.98-11.38,15.29v0.07h72.01
		v-0.07C559.97,368.26,555.79,362.88,555.16,357.28z"/>
	<path id="XMLID_160_" class="st5" d="M671,336.68H390.08c-5.87,0-10.67-3.88-10.67-8.61V180.21c0-4.74,4.8-8.61,10.67-8.61H671
		c5.87,0,10.67,3.88,10.67,8.61v147.86C681.67,332.88,676.87,336.68,671,336.68z"/>
	<path id="XMLID_152_" class="st12" d="M671,336.68H390.08c-5.87,0-10.67-3.88-10.67-8.61V180.21c0-4.74,4.8-8.61,10.67-8.61H671
		c5.87,0,10.67,3.88,10.67,8.61v147.86C681.67,332.88,676.87,336.68,671,336.68z"/>
	<path id="XMLID_150_" class="st6" d="M671,336.68H390.08c-5.87,0-10.67-3.88-10.67-8.61V180.21c0-4.74,4.8-8.61,10.67-8.61H671
		c5.87,0,10.67,3.88,10.67,8.61v147.86C681.67,332.88,676.87,336.68,671,336.68z"/>
	<rect id="XMLID_149_" x="394.58" y="183.82" class="st11" width="272.03" height="125.32"/>
	<path id="XMLID_148_" class="st8" d="M404.31,171.6v99.48c0,3.16,3.2,5.74,7.11,5.74h168.11c3.91,0,7.11-2.58,7.11-5.74V171.6
		H404.31z"/>
	<rect id="XMLID_146_" x="394.58" y="183.82" class="st6" width="272.03" height="125.32"/>
	<line id="XMLID_144_" class="st6" x1="518.63" y1="322.83" x2="542.54" y2="322.83"/>
	<path id="XMLID_142_" class="st13" d="M587.52,268.93h-168.1c-3.91,0-7.11-2.58-7.11-5.74V156.81c0-3.16,3.2-5.74,7.11-5.74h168.1
		c3.91,0,7.11,2.58,7.11,5.74v106.44C594.64,266.41,591.44,268.93,587.52,268.93z"/>
	<path id="XMLID_141_" class="st6" d="M594.64,165H412.31v-8.25c0-3.16,3.2-5.74,7.11-5.74h168.1c3.91,0,7.11,2.58,7.11,5.74V165z"
		/>
	<path id="XMLID_121_" class="st14" d="M594.64,167.72H412.31v-10.98c0-3.16,3.2-5.74,7.11-5.74h168.1c3.91,0,7.11,2.58,7.11,5.74
		V167.72z"/>
	<path id="XMLID_119_" class="st6" d="M594.64,167.72H412.31v-10.98c0-3.16,3.2-5.74,7.11-5.74h168.1c3.91,0,7.11,2.58,7.11,5.74
		V167.72z"/>
	<path id="XMLID_118_" class="st6" d="M594.64,167.72H412.31v-10.98c0-3.16,3.2-5.74,7.11-5.74h168.1c3.91,0,7.11,2.58,7.11,5.74
		V167.72z"/>
	<path id="XMLID_116_" class="st6" d="M587.52,268.93h-168.1c-3.91,0-7.11-2.58-7.11-5.74V156.81c0-3.16,3.2-5.74,7.11-5.74h168.1
		c3.91,0,7.11,2.58,7.11,5.74v106.44C594.64,266.41,591.44,268.93,587.52,268.93z"/>
	<g id="XMLID_72_">
		<path id="XMLID_114_" class="st8" d="M675.27,294.33H572.14c-3.91,0-7.11-2.58-7.11-5.74v-88.21c0-3.16,3.2-5.74,7.11-5.74h103.12
			c3.91,0,7.11,2.58,7.11,5.74v88.21C682.38,291.82,679.18,294.33,675.27,294.33z"/>
		<path id="XMLID_113_" class="st15" d="M682.38,289.31H579.26c-3.91,0-7.11-2.58-7.11-5.74v-88.21c0-3.16,3.2-5.74,7.11-5.74
			h103.12c3.91,0,7.11,2.58,7.11,5.74v88.21C689.49,286.8,686.29,289.31,682.38,289.31z"/>
		<path id="XMLID_112_" class="st6" d="M682.38,289.31H579.26c-3.91,0-7.11-2.58-7.11-5.74v-88.21c0-3.16,3.2-5.74,7.11-5.74h103.12
			c3.91,0,7.11,2.58,7.11,5.74v88.21C689.49,286.8,686.29,289.31,682.38,289.31z"/>
		<path id="XMLID_97_" class="st16" d="M667,216.96h-72.54c-2.58,0-4.62-1.65-4.62-3.73v-5.6c0-2.08,2.04-3.73,4.62-3.73H667
			c2.58,0,4.62,1.65,4.62,3.73v5.6C671.62,215.31,669.58,216.96,667,216.96z"/>
		<g id="XMLID_92_" class="st17">
			<path id="XMLID_94_" class="st18" d="M635.17,237.99h-40.54c-2.58,0-4.62-1.65-4.62-3.73v-5.6c0-2.08,2.04-3.73,4.62-3.73h40.54
				c2.58,0,4.62,1.65,4.62,3.73v5.6C639.71,236.34,637.66,237.99,635.17,237.99z"/>
			<path id="XMLID_93_" class="st18" d="M667.09,237.99h-15.73c-2.58,0-4.62-1.65-4.62-3.73v-5.6c0-2.08,2.04-3.73,4.62-3.73h15.73
				c2.58,0,4.62,1.65,4.62,3.73v5.6C671.71,236.34,669.66,237.99,667.09,237.99z"/>
		</g>
		<g id="XMLID_63_">
			<line id="XMLID_91_" class="st18" x1="589.92" y1="259.81" x2="671.62" y2="259.81"/>
			<line id="XMLID_75_" class="st18" x1="589.92" y1="267.56" x2="671.62" y2="267.56"/>
			<line id="XMLID_68_" class="st18" x1="589.92" y1="275.31" x2="639.71" y2="275.31"/>
		</g>
	</g>
	<ellipse id="XMLID_57_" class="st19" cx="430.18" cy="159.4" rx="3.56" ry="2.87"/>
	<ellipse id="XMLID_56_" class="st19" cx="442.53" cy="159.4" rx="3.56" ry="2.87"/>
	<ellipse id="XMLID_55_" class="st19" cx="454.89" cy="159.4" rx="3.56" ry="2.87"/>
	<g id="XMLID_61_">
		<line id="XMLID_54_" class="st20" x1="517.03" y1="181" x2="528.58" y2="181"/>
		<line id="XMLID_66_" class="st21" x1="458.44" y1="181" x2="508.49" y2="181"/>
		<line id="XMLID_53_" class="st22" x1="433.73" y1="181" x2="451.33" y2="181"/>
	</g>
	<g id="XMLID_51_">
		<line id="XMLID_62_" class="st22" x1="456.67" y1="251.7" x2="494.89" y2="251.7"/>
		<line id="XMLID_52_" class="st21" x1="433.73" y1="251.7" x2="446.09" y2="251.7"/>
	</g>
	<g id="XMLID_46_">
		<line id="XMLID_60_" class="st20" x1="508.49" y1="189.83" x2="515.69" y2="189.83"/>
		<line id="XMLID_48_" class="st22" x1="475.78" y1="189.83" x2="499.96" y2="189.83"/>
		<line id="XMLID_47_" class="st23" x1="442.53" y1="189.83" x2="467.16" y2="189.83"/>
	</g>
	<g id="XMLID_49_">
		<line id="XMLID_59_" class="st20" x1="480.67" y1="198.66" x2="501.92" y2="198.66"/>
		<line id="XMLID_50_" class="st24" x1="454" y1="198.66" x2="474" y2="198.66"/>
	</g>
	<g id="XMLID_65_">
		<line id="XMLID_45_" class="st20" x1="483.51" y1="207.49" x2="487.87" y2="207.49"/>
		<line id="XMLID_44_" class="st22" x1="465.91" y1="207.49" x2="475.78" y2="207.49"/>
		<line id="XMLID_67_" class="st21" x1="442.53" y1="207.49" x2="458.44" y2="207.49"/>
	</g>
	<g id="XMLID_73_">
		<line id="XMLID_43_" class="st23" x1="476.67" y1="216.39" x2="505.03" y2="216.39"/>
		<line id="XMLID_42_" class="st24" x1="442.53" y1="216.39" x2="467.96" y2="216.39"/>
	</g>
	<g id="XMLID_39_">
		<line id="XMLID_64_" class="st22" x1="509.47" y1="225.22" x2="524.85" y2="225.22"/>
		<line id="XMLID_41_" class="st24" x1="476.67" y1="225.22" x2="501.29" y2="225.22"/>
		<line id="XMLID_40_" class="st21" x1="454" y1="225.22" x2="467.96" y2="225.22"/>
	</g>
	<g id="XMLID_37_">
		<line id="XMLID_95_" class="st20" x1="487.87" y1="234.04" x2="501.29" y2="234.04"/>
		<line id="XMLID_38_" class="st22" x1="454" y1="234.04" x2="478.62" y2="234.04"/>
	</g>
	<g id="XMLID_98_">
		<line id="XMLID_36_" class="st20" x1="522.81" y1="242.87" x2="538.19" y2="242.87"/>
		<line id="XMLID_35_" class="st23" x1="475.78" y1="242.87" x2="514.45" y2="242.87"/>
		<line id="XMLID_28_" class="st20" x1="442.53" y1="242.87" x2="467.16" y2="242.87"/>
	</g>
	<line id="XMLID_145_" class="st6" x1="254.07" y1="356.92" x2="445.64" y2="356.92"/>
	<line id="XMLID_151_" class="st6" x1="254.07" y1="362.66" x2="445.64" y2="362.66"/>
	<path id="XMLID_27_" class="st6" d="M447.42,351.97H251.85c1.16,2.3,1.78,5.17,1.78,8.18s-0.62,5.81-1.78,8.18h195.49
		c-1.16-2.3-1.78-5.17-1.78-8.18C445.64,357.07,446.27,354.27,447.42,351.97z"/>
</g>
<g id="XMLID_222_">
	<g id="XMLID_174_">
		<polygon id="XMLID_177_" class="st25" points="702.51,285.02 710.91,284.09 718.22,342.62 709.82,343.54 		"/>
		<polygon id="XMLID_16_" class="st15" points="702.52,285.08 710.93,284.15 711.67,290.12 703.26,291.05 		"/>
		<polygon id="XMLID_217_" class="st6" points="702.52,285.08 710.93,284.15 711.67,290.12 703.26,291.05 		"/>
		<polygon id="XMLID_14_" class="st6" points="702.51,285.02 710.91,284.09 718.22,342.62 709.82,343.54 		"/>
	</g>
	<g id="XMLID_189_">
		<polygon id="XMLID_218_" class="st26" points="725.55,295.22 733.96,296.08 727.19,354.66 718.77,353.8 		"/>
		<polygon id="XMLID_13_" class="st6" points="725.55,295.22 733.96,296.08 727.19,354.66 718.77,353.8 		"/>
		<polygon id="XMLID_220_" class="st13" points="725.61,295.23 734.03,296.09 733.34,302.06 724.92,301.2 		"/>
		<polygon id="XMLID_4_" class="st6" points="725.61,295.23 734.03,296.09 733.34,302.06 724.92,301.2 		"/>
	</g>
	<polygon id="XMLID_2_" class="st27" points="739.2,373.8 705.26,373.8 699.73,324.94 744.73,324.94 	"/>
	<polygon id="XMLID_233_" class="st27" points="699.73,324.94 699.82,325.83 734.1,325.83 728.66,373.8 739.2,373.8 744.73,324.94 	
		"/>
	<polygon id="XMLID_1_" class="st6" points="739.2,373.8 705.26,373.8 699.73,324.94 744.73,324.94 	"/>
</g>
<text transform="matrix(1.0641 0 0 1 239.0098 334.4873)" class="st5 st28 st29">FRONT END Development</text>
<path class="st0" d="M124,96"/>
<path class="st0" d="M128,92"/>
</svg>
