<?xml version="1.0" encoding="utf-8"?>
<!-- Generator: Adobe Illustrator 23.0.3, SVG Export Plug-In . SVG Version: 6.00 Build 0)  -->
<svg version="1.1" id="Layer" xmlns="http://www.w3.org/2000/svg" xmlns:xlink="http://www.w3.org/1999/xlink" x="0px" y="0px"
	 viewBox="0 0 512 512" style="enable-background:new 0 0 512 512;" xml:space="preserve">
<style type="text/css">
	.st0{fill:#2C2B30;}
</style>
<path class="st0" d="M75.4,159.1c-4,7.8-0.9,17.5,7,21.5s17.5,0.9,21.5-7c27.5-53.8,82.1-87.2,142.5-87.2c88.2,0,160,71.8,160,160
	c0,88.2-71.8,160-160,160c-60.4,0-115-33.4-142.5-87.3c-4-7.9-13.7-11-21.5-7c-5.5,2.8-8.7,8.4-8.7,14.3c0,2.5,0.6,4.9,1.8,7.3
	c32.9,64.6,98.4,104.7,170.9,104.7c105.9,0,192-86.1,192-192c0-105.9-86.1-192-192-192C173.9,54.4,108.4,94.5,75.4,159.1L75.4,159.1
	z"/>
<path class="st0" d="M277,320c0,4.1,1.6,8.2,4.7,11.3c6.2,6.2,16.4,6.2,22.6,0l64-64c6.2-6.2,6.2-16.4,0-22.6l-64-64
	c-6.2-6.2-16.4-6.2-22.6,0c-6.2,6.2-6.2,16.4,0,22.6l36.7,36.7L133,240c-8.8,0-16,7.2-16,16c0,8.8,7.2,16,16,16l185.4,0l-36.7,36.7
	C278.6,311.8,277,315.9,277,320z"/>
</svg>
