<?xml version="1.0" encoding="utf-8"?>
<!-- Generator: Adobe Illustrator 23.0.3, SVG Export Plug-In . SVG Version: 6.00 Build 0)  -->
<svg version="1.1" id="Layer_1" xmlns="http://www.w3.org/2000/svg" xmlns:xlink="http://www.w3.org/1999/xlink" x="0px" y="0px"
	 viewBox="0 0 768 630" style="enable-background:new 0 0 768 630;" xml:space="preserve">
<style type="text/css">
	.st0{fill:#2AA1FF;}
	
		.st1{opacity:0.28;fill:#1F3969;stroke:#1F3969;stroke-width:4;stroke-linecap:round;stroke-linejoin:round;stroke-miterlimit:10;enable-background:new    ;}
	.st2{fill:none;stroke:#1F3969;stroke-width:4;stroke-linecap:round;stroke-linejoin:round;stroke-miterlimit:10;}
	.st3{fill:#FFFFFF;}
	.st4{fill:#F6F9FD;}
	.st5{fill:none;stroke:#000000;stroke-width:4;stroke-linecap:round;stroke-linejoin:round;stroke-miterlimit:10;}
</style>
<path id="XMLID_69_" class="st0" d="M447.59,495.4l-5.11-54.48h-84.13l-5.11,54.48c-1.19,12.61-9.2,24.73-21.8,34.43V530h137.94
	v-0.16C456.79,520.14,448.78,508.01,447.59,495.4z"/>
<polygon id="XMLID_33_" class="st1" points="358.36,445.13 355.29,477.78 445.55,477.78 442.48,445.13 "/>
<path id="XMLID_10_" class="st2" d="M447.59,495.4l-5.11-54.48h-84.13l-5.11,54.48c-1.19,12.61-9.2,24.73-21.8,34.43V530h137.94
	v-0.16C456.79,520.14,448.78,508.01,447.59,495.4z"/>
<path id="XMLID_13_" class="st3" d="M657.56,438.82H119.44c-11.24,0-20.44-8.73-20.44-19.4V86.4c0-10.67,9.2-19.4,20.44-19.4h538.13
	C668.8,67,678,75.73,678,86.4v333.02C678,430.25,668.8,438.82,657.56,438.82z"/>
<path id="XMLID_63_" class="st0" d="M657.56,438.82H119.44c-11.24,0-20.44-8.73-20.44-19.4V86.4c0-10.67,9.2-19.4,20.44-19.4h538.13
	C668.8,67,678,75.73,678,86.4v333.02C678,430.25,668.8,438.82,657.56,438.82z"/>
<path id="XMLID_4_" class="st2" d="M657.56,438.82H119.44c-11.24,0-20.44-8.73-20.44-19.4V86.4c0-10.67,9.2-19.4,20.44-19.4h538.13
	C668.8,67,678,75.73,678,86.4v333.02C678,430.25,668.8,438.82,657.56,438.82z"/>
<rect id="XMLID_68_" x="127.95" y="111.78" class="st4" width="521.1" height="282.26"/>
<rect id="XMLID_11_" x="127.95" y="111.78" class="st5" width="521.1" height="282.26"/>
<line id="XMLID_9_" class="st5" x1="377.52" y1="467.92" x2="423.33" y2="467.92"/>
</svg>
