<?xml version="1.0" encoding="utf-8"?>
<!-- Generator: Adobe Illustrator 23.0.3, SVG Export Plug-In . SVG Version: 6.00 Build 0)  -->
<svg version="1.1" id="Layer_1" xmlns="http://www.w3.org/2000/svg" xmlns:xlink="http://www.w3.org/1999/xlink" x="0px" y="0px"
	 viewBox="0 0 32.61 31.84" style="enable-background:new 0 0 32.61 31.84;" xml:space="preserve">
<style type="text/css">
	.st0{fill:#FFFFFF;}
</style>
<path class="st0" d="M16.31,0.06C7.31,0.05,0.01,7.34,0,16.33c-0.01,7.02,4.49,13.26,11.16,15.48c0.81,0.15,1.11-0.35,1.11-0.79
	s0-1.41,0-2.77c-4.53,1-5.49-2.18-5.49-2.18c-0.3-0.98-0.94-1.83-1.81-2.38c-1.48-1,0.11-1,0.11-1c1.05,0.14,1.97,0.76,2.5,1.68
	c0.92,1.68,3.04,2.29,4.71,1.36c0.01,0,0.02-0.01,0.03-0.01c0.06-0.82,0.42-1.59,1-2.18C9.7,23.13,5.9,21.73,5.9,15.49
	c-0.02-1.62,0.58-3.18,1.68-4.37c-0.5-1.4-0.44-2.95,0.16-4.31c0,0,1.37-0.44,4.48,1.67c2.67-0.73,5.49-0.73,8.16,0
	c3.11-2.11,4.48-1.67,4.48-1.67c0.6,1.36,0.66,2.91,0.16,4.31c1.1,1.19,1.7,2.75,1.67,4.37c0,6.26-3.81,7.63-7.44,8
	c0.78,0.79,1.19,1.89,1.11,3c0,2.18,0,3.93,0,4.47s0.29,0.94,1.12,0.78c8.53-2.85,13.14-12.08,10.29-20.61
	C29.54,4.48,23.32,0,16.32,0L16.31,0.06z"/>
</svg>
