<?xml version="1.0" encoding="utf-8"?>
<!-- Generator: Adobe Illustrator 23.0.3, SVG Export Plug-In . SVG Version: 6.00 Build 0)  -->
<svg version="1.1" id="Layer_1" xmlns="http://www.w3.org/2000/svg" xmlns:xlink="http://www.w3.org/1999/xlink" x="0px" y="0px"
	 viewBox="0 0 960 560" style="enable-background:new 0 0 960 560;" xml:space="preserve">
<style type="text/css">
	.st0{fill:#444E59;}
	.st1{fill:#BBBFC2;}
	.st2{fill:#28A8E0;}
	.st3{opacity:0.4;fill:#848484;enable-background:new    ;}
	.st4{fill:none;stroke:#444E59;stroke-width:4;stroke-linecap:round;stroke-linejoin:round;stroke-miterlimit:10;}
	.st5{opacity:0.32;fill:#848484;enable-background:new    ;}
	.st6{fill:#AFB1B2;}
	.st7{fill:#AEAEAF;}
	.st8{fill:#FFFFFF;}
	.st9{fill:#6567C3;}
	.st10{opacity:0.2;fill:#444E59;enable-background:new    ;}
	
		.st11{opacity:0.2;fill:none;stroke:#444E59;stroke-width:4;stroke-linecap:round;stroke-linejoin:round;stroke-miterlimit:10;enable-background:new    ;}
	.st12{opacity:0.2;}
	.st13{opacity:0.09;}
	.st14{fill:#F09F54;}
	.st15{fill:#ED8B3B;}
	.st16{fill:#FF6C37;}
	.st17{fill:#8D91DB;}
	.st18{fill:#BECCD5;stroke:#444E59;stroke-width:4;stroke-linecap:round;stroke-linejoin:round;stroke-miterlimit:10;}
	
		.st19{opacity:0.3;fill:none;stroke:#444E59;stroke-width:4;stroke-linecap:round;stroke-linejoin:round;stroke-miterlimit:10;enable-background:new    ;}
	.st20{opacity:0.62;fill:#FFFFFF;enable-background:new    ;}
	.st21{opacity:0.71;fill:#5D5D5D;enable-background:new    ;}
	.st22{opacity:0.8;fill:#BBBFC2;enable-background:new    ;}
	.st23{opacity:0.3;}
	.st24{fill:none;stroke:#444E59;stroke-width:2;stroke-linejoin:round;}
	.st25{fill:none;stroke:#444E59;stroke-width:2;stroke-linejoin:round;stroke-dasharray:2.858,1.9053;}
	.st26{fill:none;stroke:#444E59;stroke-width:2;stroke-linejoin:round;stroke-dasharray:3.0046,2.003;}
	.st27{fill:none;stroke:#444E59;stroke-linejoin:round;stroke-miterlimit:10;}
	.st28{fill:none;stroke:#444E59;stroke-linecap:round;stroke-linejoin:round;stroke-miterlimit:10;}
	.st29{fill:none;}
	.st30{fill:#F5877C;stroke:#2C2B30;stroke-miterlimit:10;}
	.st31{font-family:'ImprintMT-Shadow';}
	.st32{font-size:100px;}
</style>
<path id="XMLID_1313_" class="st0" d="M703,368.63c-0.05,2.04-2.2,3.67-4.89,3.67H260.83c-2.69,0-4.83-1.63-4.83-3.67l0,0
	c0-2.04,2.15-3.67,4.83-3.67h437.33C700.85,364.97,703,366.6,703,368.63"/>
<g id="XMLID_24_">
	<rect id="XMLID_6_" x="428.26" y="364.76" class="st0" width="75.63" height="3.42"/>
	<g id="XMLID_104_">
		<path id="XMLID_76_" class="st1" d="M556.42,342.4H377.98c-3.55,0-6.45-2.2-6.45-4.89v-90.63c0-2.69,2.9-4.89,6.45-4.89h178.43
			c3.55,0,6.45,2.2,6.45,4.89v90.59C562.86,340.2,560.02,342.4,556.42,342.4z"/>
		<rect id="XMLID_80_" x="383.62" y="251.2" class="st2" width="167.91" height="74.01"/>
		<path id="XMLID_18_" class="st3" d="M556.85,342.4h-27.98v-38.61c0-3.1,3.28-5.58,7.36-5.58h20.63V342.4L556.85,342.4z"/>
		<path id="XMLID_107_" class="st3" d="M385.13,305.09h-13.59v30.43c0,3.79,4.3,6.88,9.35,6.88h15.63v-28.51
			C396.46,309.13,391.36,305.09,385.13,305.09z"/>
		<path id="XMLID_5_" class="st4" d="M556.95,342.4H378.2c-3.55,0-6.45-2.2-6.45-4.89v-90.63c0-2.69,2.9-4.89,6.45-4.89h178.76
			c3.55,0,6.45,2.2,6.45,4.89v90.59C563.4,340.2,560.5,342.4,556.95,342.4z"/>
		<rect id="XMLID_7_" x="383.88" y="251.2" class="st4" width="167.42" height="74.01"/>
	</g>
	<path id="XMLID_179_" class="st5" d="M518.76,321.63h-92.28c-2.09,0-3.76-1.3-3.76-2.85v-49.94c0-1.59,1.72-2.85,3.76-2.85h92.28
		c2.09,0,3.76,1.3,3.76,2.85v49.9C522.52,320.33,520.86,321.63,518.76,321.63z"/>
	<path id="XMLID_134_" class="st6" d="M514.47,318.86h-92.28c-2.09,0-3.76-1.3-3.76-2.85v-49.9c0-1.59,1.72-2.85,3.76-2.85h92.28
		c2.09,0,3.76,1.3,3.76,2.85v49.9C518.28,317.6,516.56,318.86,514.47,318.86z"/>
	<path id="XMLID_137_" class="st4" d="M514.47,318.86h-92.28c-2.09,0-3.76-1.3-3.76-2.85v-49.9c0-1.59,1.72-2.85,3.76-2.85h92.28
		c2.09,0,3.76,1.3,3.76,2.85v49.9C518.28,317.6,516.56,318.86,514.47,318.86z"/>
	<polygon id="XMLID_96_" class="st7" points="490.08,364.76 445.07,364.76 450.66,342.4 484.5,342.4 	"/>
	<polygon id="XMLID_99_" class="st5" points="486,348.72 484.5,342.4 450.66,342.4 449.15,348.72 	"/>
	<polygon id="XMLID_3_" class="st4" points="490.08,364.76 445.07,364.76 450.66,342.4 484.5,342.4 	"/>
	<rect id="XMLID_8_" x="428.26" y="364.76" class="st4" width="75.63" height="3.42"/>
	<ellipse id="XMLID_9_" class="st0" cx="467.31" cy="332.14" rx="3.33" ry="2.53"/>
	<path id="XMLID_133_" class="st8" d="M506.89,313.73h-92.28c-2.09,0-3.76-1.3-3.76-2.85v-49.94c0-1.59,1.72-2.85,3.76-2.85h92.28
		c2.09,0,3.76,1.3,3.76,2.85v49.9C510.71,312.42,508.99,313.73,506.89,313.73z"/>
	<path id="XMLID_25_" class="st4" d="M506.89,313.73h-92.28c-2.09,0-3.76-1.3-3.76-2.85v-49.94c0-1.59,1.72-2.85,3.76-2.85h92.28
		c2.09,0,3.76,1.3,3.76,2.85v49.9C510.71,312.42,508.99,313.73,506.89,313.73z"/>
	<path id="XMLID_105_" class="st1" d="M510.71,266.68h-99.85v-5.62c0-1.63,1.77-3.01,3.97-3.01H507c2.04,0,3.71,1.26,3.71,2.81
		V266.68z"/>
	<path id="XMLID_26_" class="st4" d="M510.71,266.68h-99.85v-5.62c0-1.63,1.77-3.01,3.97-3.01H507c2.04,0,3.71,1.26,3.71,2.81
		V266.68z"/>
	<g id="XMLID_108_">
		<ellipse id="XMLID_106_" class="st0" cx="420.47" cy="262.41" rx="1.77" ry="1.34"/>
		<ellipse id="XMLID_109_" class="st0" cx="426.32" cy="262.41" rx="1.77" ry="1.34"/>
		<ellipse id="XMLID_120_" class="st0" cx="432.13" cy="262.41" rx="1.77" ry="1.34"/>
	</g>
	<path id="XMLID_122_" class="st9" d="M501.31,281.59h-81.8c-0.59,0-1.07-0.37-1.07-0.81v-8.68c0-0.45,0.48-0.81,1.07-0.81h81.8
		c0.59,0,1.07,0.37,1.07,0.81v8.68C502.38,281.22,501.9,281.59,501.31,281.59z"/>
	<g id="XMLID_123_">
		<path id="XMLID_124_" class="st10" d="M443.03,292.47h-23.58c-0.59,0-1.07-0.37-1.07-0.81v-4.68c0-0.45,0.48-0.81,1.07-0.81h23.58
			c0.59,0,1.07,0.37,1.07,0.81v4.68C444.1,292.1,443.67,292.47,443.03,292.47z"/>
		<line id="XMLID_125_" class="st11" x1="422.19" y1="297.07" x2="441.1" y2="297.07"/>
		<line id="XMLID_128_" class="st11" x1="422.19" y1="301.67" x2="441.1" y2="301.67"/>
	</g>
	<g id="XMLID_127_">
		<path id="XMLID_131_" class="st10" d="M472.57,292.47h-23.58c-0.59,0-1.07-0.37-1.07-0.81v-4.68c0-0.45,0.48-0.81,1.07-0.81h23.58
			c0.59,0,1.07,0.37,1.07,0.81v4.68C473.65,292.1,473.16,292.47,472.57,292.47z"/>
		<line id="XMLID_130_" class="st11" x1="451.68" y1="297.07" x2="469.83" y2="297.07"/>
		<line id="XMLID_129_" class="st11" x1="451.68" y1="301.67" x2="469.83" y2="301.67"/>
	</g>
	<g id="XMLID_132_" class="st12">
		<path id="XMLID_135_" class="st0" d="M502.06,302.24h-23.58c-0.59,0-1.07-0.37-1.07-0.81v-14.42c0-0.45,0.48-0.81,1.07-0.81h23.58
			c0.59,0,1.07,0.37,1.07,0.81v14.42C503.13,301.88,502.65,302.24,502.06,302.24z"/>
	</g>
	<g id="XMLID_126_" class="st13">
		<path id="XMLID_136_" class="st0" d="M501.31,306.84h-22.45c-0.86,0-1.5-0.53-1.5-1.14s0.7-1.14,1.5-1.14h22.45
			c0.86,0,1.5,0.53,1.5,1.14S502.11,306.84,501.31,306.84z"/>
	</g>
</g>
<g id="XMLID_23_">
	<g id="XMLID_12_">
		<path id="XMLID_71_" class="st8" d="M332.54,350.75h-43.29c-0.54,0-1.02,0.12-1.4,0.41l-10.47,6.92c-0.97,0.65-0.97,1.79,0,2.4
			l10.47,7.05c0.38,0.24,0.86,0.49,1.4,0.49h43.29c2.47,0,4.51-1.71,4.51-3.58v-10.39C337,352.26,335.01,350.75,332.54,350.75z
			 M288.07,361.3c-1.45,0-2.69-0.9-2.69-2.04c0-1.14,1.18-2.04,2.69-2.04s2.69,0.9,2.69,2.04
			C290.75,360.41,289.57,361.3,288.07,361.3z"/>
		<rect id="XMLID_70_" x="299.19" y="350.75" class="st14" width="12.62" height="17.31"/>
		<rect id="XMLID_69_" x="311.81" y="350.75" class="st15" width="12.62" height="17.31"/>
		<path id="XMLID_58_" class="st16" d="M331.41,368.06h-6.98v-17.31h7.2c2.95,0,5.43,1.83,5.43,4.11v8.96
			C337,366.15,334.47,368.06,331.41,368.06z"/>
		<path id="XMLID_117_" class="st3" d="M333.72,351.61c-0.21-0.04-0.43-0.04-0.64-0.04h-43.29c-0.54,0-1.02,0.12-1.4,0.41
			l-10.47,6.92c-0.97,0.65-0.97,1.79,0,2.4l6.55,4.36l7.09,1.34c0.32,0.08,0.7,0.08,1.07,0.08c0.7,0,1.34-0.12,1.99-0.37
			l38.57-14.91C333.35,351.77,333.56,351.69,333.72,351.61z M288.6,362.12c-1.45,0-2.69-0.9-2.69-2.04s1.18-2.04,2.69-2.04
			s2.69,0.9,2.69,2.04S290.11,362.12,288.6,362.12z"/>
		<path id="XMLID_29_" class="st4" d="M332.54,350.75h-43.29c-0.54,0-1.02,0.12-1.4,0.41l-10.47,6.92c-0.97,0.65-0.97,1.79,0,2.4
			l10.47,7.05c0.38,0.24,0.86,0.49,1.4,0.49h43.29c2.47,0,4.51-1.71,4.51-3.58v-10.39C337,352.26,335.01,350.75,332.54,350.75z
			 M288.07,361.3c-1.45,0-2.69-0.9-2.69-2.04c0-1.14,1.18-2.04,2.69-2.04s2.69,0.9,2.69,2.04
			C290.75,360.41,289.57,361.3,288.07,361.3z"/>
		<rect id="XMLID_17_" x="299.19" y="350.75" class="st4" width="12.62" height="17.31"/>
		<rect id="XMLID_21_" x="311.81" y="350.75" class="st4" width="12.62" height="17.31"/>
		<path id="XMLID_22_" class="st4" d="M331.41,368.06h-6.98v-17.31h7.2c2.95,0,5.43,1.83,5.43,4.11v8.96
			C337,366.15,334.47,368.06,331.41,368.06z"/>
	</g>
	<g id="XMLID_20_">
		<path id="XMLID_74_" class="st8" d="M321.37,334.3l-38.57,14.91c-0.48,0.16-0.81,0.49-1.02,0.86l-5.16,9.78
			c-0.48,0.9,0.21,1.91,1.45,2.16l13.48,2.61c0.48,0.08,1.02,0.04,1.5-0.12l38.57-14.91c2.2-0.86,3.06-2.89,1.93-4.52l-6.23-9.25
			C326.2,334.09,323.52,333.44,321.37,334.3z"/>
		<polygon id="XMLID_77_" class="st17" points="302.86,341.44 314.1,337.09 324.36,352.33 313.11,356.68 		"/>
		<path id="XMLID_33_" class="st4" d="M321.37,334.3l-38.57,14.91c-0.48,0.16-0.81,0.49-1.02,0.86l-5.16,9.78
			c-0.48,0.9,0.21,1.91,1.45,2.16l13.48,2.61c0.48,0.08,1.02,0.04,1.5-0.12l38.57-14.91c2.2-0.86,3.06-2.89,1.93-4.52l-6.23-9.25
			C326.2,334.09,323.52,333.44,321.37,334.3z"/>
		<ellipse id="XMLID_34_" class="st0" cx="286.89" cy="357.23" rx="3.12" ry="2.36"/>
		<polygon id="XMLID_79_" class="st18" points="291.59,345.81 302.84,341.46 313.09,356.7 301.85,361.05 		"/>
		<polygon id="XMLID_32_" class="st4" points="291.59,345.81 302.84,341.46 313.09,356.7 301.85,361.05 		"/>
		<polygon id="XMLID_31_" class="st4" points="302.86,341.44 314.1,337.09 324.36,352.33 313.11,356.68 		"/>
		<path id="XMLID_30_" class="st9" d="M330.77,349.86l-6.45,2.48l-10.26-15.23l6.45-2.48c2.63-1.02,5.85-0.24,7.25,1.79l5.37,7.98
			C334.47,346.39,333.4,348.84,330.77,349.86z"/>
		<path id="XMLID_78_" class="st4" d="M330.77,349.86l-6.45,2.48l-10.26-15.23l6.45-2.48c2.63-1.02,5.85-0.24,7.25,1.79l5.37,7.98
			C334.47,346.39,333.4,348.84,330.77,349.86z"/>
	</g>
</g>
<g id="XMLID_90_">
	<path id="XMLID_102_" class="st8" d="M385.07,368.19h-36.15c-2.95,0-5.37-1.83-5.37-4.07v-54.95c0-2.24,2.42-4.07,5.37-4.07h36.15
		c2.95,0,5.37,1.83,5.37,4.07v54.95C390.44,366.39,388.03,368.19,385.07,368.19z"/>
	<path id="XMLID_83_" class="st9" d="M391.2,324.03h-47.64v-14.95c0-2.2,2.36-3.99,5.26-3.99h36.79c3.06,0,5.53,1.91,5.53,4.2v14.74
		H391.2z"/>
	<path id="XMLID_10_" class="st4" d="M385.07,368.19h-36.15c-2.95,0-5.37-1.83-5.37-4.07v-54.95c0-2.24,2.42-4.07,5.37-4.07h36.15
		c2.95,0,5.37,1.83,5.37,4.07v54.95C390.44,366.39,388.03,368.19,385.07,368.19z"/>
	<path id="XMLID_82_" class="st1" d="M385.13,368.19h-36.04c-3.06,0-5.59-1.91-5.59-4.24v-7.82h46.95v8.02
		C390.44,366.39,388.03,368.19,385.13,368.19z"/>
	<path id="XMLID_81_" class="st4" d="M385.23,368.19h-36.15c-3.06,0-5.59-1.91-5.59-4.24v-7.82h46.95v8.11
		C390.44,366.43,388.08,368.19,385.23,368.19z"/>
	<ellipse id="XMLID_84_" class="st0" cx="367.35" cy="361.91" rx="2.69" ry="2.04"/>
	<line id="XMLID_86_" class="st19" x1="354.13" y1="330.35" x2="380.61" y2="330.35"/>
	<line id="XMLID_87_" class="st19" x1="359.4" y1="336.66" x2="376.05" y2="336.66"/>
	<line id="XMLID_88_" class="st19" x1="354.13" y1="342.4" x2="380.61" y2="342.4"/>
	<ellipse id="XMLID_85_" class="st20" cx="367.35" cy="316.01" rx="6.02" ry="4.56"/>
	<path id="XMLID_89_" class="st15" d="M376.05,348.72c0,1.26-1.34,2.28-3.01,2.28h-11.33c-1.67,0-3.01-1.02-3.01-2.28l0,0
		c0-1.26,1.34-2.28,3.01-2.28h11.33C374.71,346.39,376.05,347.41,376.05,348.72L376.05,348.72z"/>
</g>
<g id="XMLID_111_">
	<path id="XMLID_100_" class="st1" d="M665.02,360.73H534.88v-59.31c0-1.75,1.88-3.18,4.19-3.18h121.82c2.26,0,4.08,1.38,4.08,3.1
		v59.39H665.02z"/>
	<path id="XMLID_11_" class="st4" d="M665.35,360.85H535.25v-59.47c0-1.79,1.93-3.26,4.3-3.26h121.5c2.36,0,4.3,1.47,4.3,3.26
		V360.85z"/>
	<rect id="XMLID_101_" x="542.47" y="303.39" class="st21" width="115.75" height="52.22"/>
	<path id="XMLID_183_" class="st5" d="M570.76,345.66h-9.99c-0.59,0-1.07-0.37-1.07-0.81V318.9c0-0.45,0.48-0.81,1.07-0.81h9.99
		c0.59,0,1.07,0.37,1.07,0.81v25.99C571.83,345.3,571.35,345.66,570.76,345.66z"/>
	<path id="XMLID_178_" class="st5" d="M642.9,350.92h-57.69c-1.18,0-2.15-0.73-2.15-1.63v-33.44c0-0.9,0.97-1.63,2.15-1.63h57.69
		c1.18,0,2.15,0.73,2.15,1.63v33.44C645.04,350.18,644.13,350.92,642.9,350.92z"/>
	<rect id="XMLID_103_" x="542.47" y="303.59" class="st4" width="115.64" height="51.77"/>
	<path id="XMLID_110_" class="st8" d="M679.53,360.85H521.02v3.83c0,1.79,1.93,3.26,4.3,3.26h149.91c2.36,0,4.3-1.47,4.3-3.26
		L679.53,360.85L679.53,360.85z"/>
	<path id="XMLID_206_" class="st22" d="M527.09,368.19h146.42c2.95,0,5.37-1.71,5.91-4.03H521.13
		C521.66,366.48,524.14,368.19,527.09,368.19z"/>
	<path id="XMLID_15_" class="st4" d="M679.53,360.85H521.02v3.83c0,1.79,1.93,3.26,4.3,3.26h149.91c2.36,0,4.3-1.47,4.3-3.26
		L679.53,360.85L679.53,360.85z"/>
	<rect id="XMLID_201_" x="556.85" y="316.01" class="st14" width="12.09" height="9.16"/>
	<rect id="XMLID_138_" x="557.06" y="316.09" class="st4" width="12.09" height="9.16"/>
	<rect id="XMLID_180_" x="557.06" y="316.09" class="st4" width="12.09" height="9.16"/>
	<rect id="XMLID_156_" x="556.85" y="325.17" class="st17" width="12.09" height="9.16"/>
	<rect id="XMLID_140_" x="557.06" y="325.3" class="st4" width="12.09" height="9.16"/>
	<rect id="XMLID_202_" x="556.85" y="334.34" class="st9" width="12.09" height="9.16"/>
	<rect id="XMLID_143_" x="557.06" y="334.46" class="st4" width="12.09" height="9.16"/>
	<path id="XMLID_115_" class="st8" d="M639.4,348.11h-57.74c-1.18,0-2.15-0.73-2.15-1.63v-33.44c0-0.9,0.97-1.63,2.15-1.63h57.74
		c1.18,0,2.15,0.73,2.15,1.63v33.44C641.55,347.41,640.59,348.11,639.4,348.11z"/>
	<path id="XMLID_139_" class="st4" d="M639.4,348.11h-57.74c-1.18,0-2.15-0.73-2.15-1.63v-33.44c0-0.9,0.97-1.63,2.15-1.63h57.74
		c1.18,0,2.15,0.73,2.15,1.63v33.44C641.55,347.41,640.59,348.11,639.4,348.11z"/>
	<g id="XMLID_147_" class="st23">
		<g id="XMLID_205_">
			<polyline id="XMLID_419_" class="st24" points="623.4,338.45 623.4,339.06 622.59,339.06 			"/>
			<line id="XMLID_418_" class="st25" x1="621.57" y1="339.06" x2="599.07" y2="339.06"/>
			<polyline id="XMLID_417_" class="st24" points="598.53,339.06 597.72,339.06 597.72,338.45 			"/>
			<line id="XMLID_416_" class="st26" x1="597.72" y1="337.6" x2="597.72" y2="321.71"/>
			<polyline id="XMLID_415_" class="st24" points="597.72,321.3 597.72,320.69 598.53,320.69 			"/>
			<line id="XMLID_214_" class="st25" x1="599.55" y1="320.69" x2="622.05" y2="320.69"/>
			<polyline id="XMLID_213_" class="st24" points="622.59,320.69 623.4,320.69 623.4,321.3 			"/>
			<line id="XMLID_211_" class="st26" x1="623.4" y1="322.12" x2="623.4" y2="338.04"/>
		</g>
	</g>
	<g id="XMLID_155_">
		<rect id="XMLID_154_" x="595.95" y="319.27" class="st8" width="3.81" height="2.89"/>
		<rect id="XMLID_153_" x="595.79" y="319.15" class="st27" width="3.76" height="2.85"/>
	</g>
	<g id="XMLID_157_">
		<rect id="XMLID_159_" x="595.95" y="337.6" class="st8" width="3.81" height="2.89"/>
		<rect id="XMLID_158_" x="595.79" y="337.52" class="st27" width="3.76" height="2.85"/>
	</g>
	<g id="XMLID_162_">
		<rect id="XMLID_166_" x="621.52" y="319.27" class="st8" width="3.81" height="2.89"/>
		<rect id="XMLID_164_" x="621.52" y="319.15" class="st27" width="3.76" height="2.85"/>
	</g>
	<g id="XMLID_196_">
		<rect id="XMLID_198_" x="621.52" y="337.6" class="st8" width="3.81" height="2.89"/>
		<rect id="XMLID_197_" x="621.52" y="337.52" class="st27" width="3.76" height="2.85"/>
	</g>
	<g id="XMLID_229_">
		<g id="XMLID_225_">
			<polygon id="XMLID_230_" class="st8" points="563.13,330.02 566.94,336.21 570.65,337.68 573.23,335.72 571.35,332.87 			"/>
			<polygon id="XMLID_227_" class="st27" points="563.13,330.02 566.94,336.21 570.65,337.68 573.23,335.72 571.35,332.87 			"/>
			<ellipse id="XMLID_224_" class="st0" cx="567.97" cy="333.52" rx="1.02" ry="0.77"/>
			<line id="XMLID_226_" class="st28" x1="563.13" y1="330.02" x2="567.37" y2="333.24"/>
		</g>
		<polygon id="XMLID_231_" class="st8" points="570.66,337.65 573.25,335.69 575.11,337.1 572.52,339.06 		"/>
		<polygon id="XMLID_228_" class="st27" points="570.66,337.65 573.25,335.69 575.11,337.1 572.52,339.06 		"/>
	</g>
</g>
<rect x="39.58" y="78.54" class="st29" width="868.21" height="157.62"/>
<text transform="matrix(1 0 0 1 40.3325 148.2358)" class="st30 st31 st32">Learn HTML&amp;CSS</text>
</svg>
